<svg width="45" height="30" viewBox="0 0 45 30" fill="none" xmlns="http://www.w3.org/2000/svg">
<g id="navigation-right-circle-1-alternate-1">
<path id="Path" d="M24.345 24.04L30.162 19.19C30.3749 19.011 30.438 18.743 30.3219 18.5102C30.2059 18.2775 29.9334 18.1256 29.631 18.125H6C3.92893 18.125 2.25 16.7259 2.25 15C2.25 13.2741 3.92893 11.875 6 11.875H29.637C29.9408 11.8755 30.2149 11.7232 30.3312 11.4893C30.4475 11.2555 30.3831 10.9863 30.168 10.8075L24.351 5.95752C22.8872 4.73766 22.8872 2.75988 24.351 1.54002C25.8148 0.320157 28.1882 0.320157 29.652 1.54002L43.152 12.79C43.8553 13.3757 44.2504 14.1702 44.2504 14.9988C44.2504 15.8273 43.8553 16.6219 43.152 17.2075L29.652 28.4575C28.1882 29.6774 25.8148 29.6774 24.351 28.4575C22.8872 27.2377 22.8872 25.2599 24.351 24.04H24.345Z" fill="#94A2B0"/>
</g>
</svg>
