<svg xmlns="http://www.w3.org/2000/svg" width="13" height="12" viewBox="0 0 13 12">
    <g fill="none" fill-rule="evenodd">
        <g fill="#283782">
            <path d="M1348.026 247.776h-3.051l-.943-2.773 2.469-1.714 2.468 1.714-.943 2.773zm3.448-6.031c-.674-.76-1.535-1.363-2.516-1.745l-.233.162-2.225 1.544-2.224-1.544-.234-.162c-.98.382-1.842.985-2.516 1.745l.94 2.767-2.466 1.713c.078 1.03.417 1.992.957 2.824v-.002h1.342l1.71-.001.943 2.773-.003.002c.497.116 1.016.179 1.551.179.538 0 1.061-.063 1.561-.181l.944-2.773h3.04c.538-.83.877-1.79.955-2.819l-2.468-1.714.942-2.768z" transform="translate(-1340 -240)"/>
        </g>
    </g>
</svg>
