<svg xmlns="http://www.w3.org/2000/svg" width="480" height="510" viewBox="0 0 480 510">
    <defs>
        <linearGradient id="yueiq2hsoa" x1="50%" x2="50%" y1="0%" y2="84.857%">
            <stop offset="0%" stop-color="#0A73B9"/>
            <stop offset="100%" stop-color="#283782"/>
        </linearGradient>
    </defs>
    <g fill="none" fill-rule="evenodd" opacity=".255">
        <g fill="url(#yueiq2hsoa)" transform="translate(-372 -1407)">
            <path d="M447.989 712.651L473.311 776H190.686l25.298-63.349H447.99zm-331.476-198.72c3.974 69.072 29.3 132.148 71.873 176.924 3.819 4.015 7.746 7.85 11.78 11.505l-.012.034c-19.873-13.174-37.91-29.364-53.111-47.787-21.983-26.645-38.257-58.223-47.064-91.323-.749-2.808-1.44-5.623-2.083-8.444-3.08-13.524-4.95-27.179-5.618-40.908zm455.21 0c-.669 13.732-2.54 27.389-5.62 40.915-.641 2.818-1.334 5.632-2.08 8.438-8.807 33.1-25.083 64.679-47.066 91.322-15.196 18.42-33.228 34.606-53.098 47.779l-.011-.036c4.026-3.652 7.952-7.484 11.766-11.495 42.573-44.775 67.899-107.852 71.873-176.922zm-36.358 0c-3.934 65.959-28.071 126.035-68.536 168.592-6.101 6.418-12.504 12.34-19.172 17.775h-61.752c4.257-10.85 8.13-23.3 11.581-37.285 9.906-40.13 16.209-92.116 18.212-149.081zm-287.063 0c2.003 56.966 8.306 108.952 18.213 149.082 3.451 13.986 7.325 26.435 11.582 37.285h-61.753c-6.668-5.435-13.071-11.357-19.173-17.775-40.465-42.558-64.602-102.633-68.534-168.591zm155.277 0c-1.987 55.967-8.164 106.93-17.855 146.186-3.82 15.478-8.134 28.898-12.888 40.18h-81.671c-4.755-11.282-9.07-24.702-12.89-40.18-9.69-39.256-15.867-90.22-17.854-146.185zM94.877 465.564l.046.031 21.318 14.825c-.197 4.763-.297 9.504-.297 14.225 0 .957.005 1.911.014 2.865.01 1.316.048 2.624.073 3.936h-24.03l-.001-.344c.072-11.817 1.027-23.674 2.877-35.538zm381.27-28.3l59.493 43.283c.204 4.735.305 9.447.305 14.139v.075c0 2.234-.025 4.463-.071 6.685H416.066c.162-6.807.267-13.674.306-20.594l35.343-25.772 24.432-17.816zm-288.293 0l24.431 17.816 35.343 25.772c.04 6.92.144 13.787.306 20.594H128.127c-.047-2.222-.072-4.45-.072-6.685v-.075c0-4.692.101-9.404.307-14.139l59.492-43.283zM332 428.383l72.26 52.456c-.04 6.927-.147 13.798-.31 20.606h-143.9c-.164-6.808-.27-13.679-.308-20.606L332 428.383zm237.122 37.18c1.851 11.864 2.807 23.722 2.878 35.537l-.001.345h-24.032c.029-1.311.064-2.62.075-3.936.009-.954.015-1.909.015-2.865 0-4.72-.099-9.462-.298-14.224l21.319-14.826zm-192.695-99.656c15.746 31.632 38.116 59.396 65.302 81.474l-31.406 22.903L332 413.426l-78.321 56.858-31.408-22.903c27.186-22.078 49.556-49.841 65.303-81.474 5.566 5.128 11.905 9.221 18.888 12.171 8.083 3.415 16.663 5.148 25.497 5.153l.04.002c8.85 0 17.442-1.734 25.539-5.155 6.983-2.95 13.322-7.044 18.89-12.171zM310.927 266l2.002 1.452 19.07 13.841 19.074-13.84 2.002-1.452c8.408 3.422 15.789 8.826 21.57 15.636l-8.073 24.81 21.158 15.36c-.669 9.225-3.575 17.828-8.19 25.268l-11.516-.002-14.548-.004-8.089 24.851c-4.29 1.054-8.77 1.624-13.387 1.624-4.583 0-9.034-.563-13.298-1.603l.027-.02-8.09-24.852-14.663.004-11.498.002-.006.018c-4.627-7.45-7.536-16.066-8.204-25.306l21.152-15.353-8.068-24.793c5.782-6.812 13.165-12.218 21.576-15.641zm21.077 29.478l-21.167 15.358 8.084 24.854 26.163.002 8.086-24.853-21.166-15.361z" transform="translate(280 1141)"/>
        </g>
    </g>
</svg>
