<svg height="24" viewBox="0 0 24 24" width="24" xmlns="http://www.w3.org/2000/svg"><path d="m1254 10c6.62742 0 12 5.372583 12 12s-5.37258 12-12 12-12-5.372583-12-12 5.37258-12 12-12zm5.258 7.588c-1.584 0-2.856 1.02-2.856 2.496 0 .744.324 1.836 2.136 2.316l1.008.288c.708.216 1.044.54 1.044.996 0 .588-.492.996-1.236.996-.768 0-1.344-.492-1.356-1.08h-1.668c0 1.452 1.212 2.544 2.976 2.544 1.56 0 2.964-.9 2.964-2.544 0-1.404-1.092-2.04-2.34-2.412l-.924-.264c-.864-.252-.924-.672-.924-.876 0-.552.492-.984 1.14-.984.72 0 1.128.456 1.128 1.044h1.668c0-1.572-1.2-2.52-2.76-2.52zm-10.856.144h-1.668v8.268h1.668v-3.324l2.664 3.324h2.16l-3.384-4.164 2.868-4.104h-2.004l-2.304 3.384zm6.88 0h-1.668v8.268h1.668z" fill="#283782" fill-rule="evenodd" transform="translate(-1242 -10)"/></svg>