<svg width="102" height="102" viewBox="0 0 102 102" fill="none" xmlns="http://www.w3.org/2000/svg">
<g id="Group 5">
<g id="Oval" filter="url(#filter0_d)">
<circle cx="51" cy="48" r="36" fill="url(#paint0_radial)"/>
</g>
<g id="1479877176 instagram">
<path id="Instagram" fill-rule="evenodd" clip-rule="evenodd" d="M61.5776 38.056C61.5776 39.2013 60.6491 40.1296 59.504 40.1296C58.3589 40.1296 57.4304 39.2013 57.4304 38.056C57.4304 36.9107 58.3589 35.9824 59.504 35.9824C60.6493 35.9824 61.5776 36.9107 61.5776 38.056ZM50.28 53.0399C47.0989 53.0399 44.5201 50.4611 44.5201 47.28C44.5201 44.0989 47.0989 41.5201 50.28 41.5201C53.4611 41.5201 56.0399 44.0989 56.0399 47.28C56.0399 50.4611 53.4611 53.0399 50.28 53.0399ZM50.28 38.4065C45.3792 38.4065 41.4065 42.3792 41.4065 47.28C41.4065 52.1808 45.3792 56.1535 50.28 56.1535C55.1808 56.1535 59.1535 52.1808 59.1535 47.28C59.1535 42.3792 55.1808 38.4065 50.28 38.4065ZM50.28 33.1136C54.894 33.1136 55.4405 33.1312 57.2625 33.2143C58.9473 33.2913 59.8623 33.5726 60.4712 33.8094C61.2776 34.1229 61.8533 34.4974 62.4581 35.1022C63.0629 35.7067 63.4374 36.2824 63.7508 37.0891C63.9874 37.698 64.269 38.613 64.3459 40.2978C64.4291 42.12 64.4466 42.6665 64.4466 47.2805C64.4466 51.8946 64.4291 52.4411 64.3459 54.263C64.269 55.9478 63.9876 56.8628 63.7508 57.4717C63.4374 58.2782 63.0629 58.8538 62.4581 59.4586C61.8536 60.0634 61.2779 60.4379 60.4712 60.7514C59.8623 60.9879 58.9473 61.2695 57.2625 61.3465C55.4405 61.4296 54.894 61.4472 50.28 61.4472C45.6657 61.4472 45.1192 61.4296 43.2973 61.3465C41.6125 61.2695 40.6974 60.9882 40.0886 60.7514C39.2821 60.4379 38.7065 60.0634 38.1017 59.4586C37.4971 58.8541 37.1224 58.2785 36.8089 57.4717C36.5724 56.8628 36.2908 55.9478 36.2138 54.263C36.1307 52.4408 36.1131 51.8943 36.1131 47.2805C36.1131 42.6665 36.1307 42.12 36.2138 40.2978C36.2908 38.613 36.5721 37.698 36.8089 37.0891C37.1224 36.2826 37.4969 35.707 38.1017 35.1022C38.7062 34.4974 39.2818 34.1229 40.0886 33.8094C40.6974 33.5729 41.6125 33.2913 43.2973 33.2143C45.1195 33.1312 45.666 33.1136 50.28 33.1136ZM50.28 30C45.5871 30 44.9985 30.02 43.1555 30.104C41.3163 30.1879 40.06 30.4801 38.9611 30.9072C37.8246 31.3486 36.861 31.9397 35.9003 32.9003C34.9397 33.861 34.3486 34.8246 33.9072 35.9611C33.4801 37.0602 33.1879 38.3163 33.104 40.1555C33.02 41.9985 33 42.5871 33 47.28C33 51.9729 33.02 52.5615 33.104 54.4045C33.1879 56.2437 33.4801 57.4998 33.9072 58.5989C34.3486 59.7354 34.9397 60.699 35.9003 61.6597C36.861 62.6203 37.8246 63.2111 38.9611 63.6528C40.0602 64.0799 41.3163 64.3721 43.1555 64.456C44.9985 64.54 45.5871 64.56 50.28 64.56C54.9729 64.56 55.5615 64.54 57.4045 64.456C59.2437 64.3721 60.4998 64.0799 61.5989 63.6528C62.7354 63.2111 63.699 62.6203 64.6597 61.6597C65.6203 60.699 66.2111 59.7354 66.6528 58.5989C67.0799 57.4998 67.3721 56.2437 67.456 54.4045C67.54 52.5615 67.56 51.9729 67.56 47.28C67.56 42.5871 67.54 41.9985 67.456 40.1555C67.3721 38.3163 67.0799 37.0602 66.6528 35.9611C66.2111 34.8246 65.6203 33.861 64.6597 32.9003C63.699 31.9397 62.7354 31.3489 61.5989 30.9072C60.4998 30.4801 59.2437 30.1879 57.4045 30.104C55.5615 30.02 54.9729 30 50.28 30Z" fill="white"/>
</g>
</g>
<defs>
<filter id="filter0_d" x="0" y="0" width="102" height="102" filterUnits="userSpaceOnUse" color-interpolation-filters="sRGB">
<feFlood flood-opacity="0" result="BackgroundImageFix"/>
<feColorMatrix in="SourceAlpha" type="matrix" values="0 0 0 0 0 0 0 0 0 0 0 0 0 0 0 0 0 0 127 0" result="hardAlpha"/>
<feOffset dy="1"/>
<feGaussianBlur stdDeviation="2.5"/>
<feColorMatrix type="matrix" values="0 0 0 0 0 0 0 0 0 0 0 0 0 0 0 0 0 0 0.2 0"/>
<feBlend mode="normal" in2="BackgroundImageFix" result="effect1_dropShadow"/>
<feBlend mode="normal" in="SourceGraphic" in2="effect1_dropShadow" result="shape"/>
</filter>
<radialGradient id="paint0_radial" cx="0" cy="0" r="1" gradientUnits="userSpaceOnUse" gradientTransform="translate(55.75 108.25) scale(91.9979)">
<stop stop-color="#FFB140"/>
<stop offset="0.2559" stop-color="#FF5445"/>
<stop offset="0.599" stop-color="#FC2B82"/>
<stop offset="1" stop-color="#8E40B7"/>
</radialGradient>
</defs>
</svg>
