<?xml version="1.0" encoding="UTF-8"?>
<svg width="38px" height="20px" viewBox="0 0 38 20" version="1.1" xmlns="http://www.w3.org/2000/svg" xmlns:xlink="http://www.w3.org/1999/xlink">
    <title>Group 2</title>
    <g id="Final" stroke="none" stroke-width="1" fill="none" fill-rule="evenodd">
        <g id="Profil-hráče" transform="translate(-1632.000000, -91.000000)" fill="#FFFFFF" fill-rule="nonzero">
            <g id="Group-2" transform="translate(1632.000000, 91.000000)">
                <g id="KIS" transform="translate(0.181104, 0.086624)">
                    <path d="M30.192624,3.55271368e-15 C33.711216,3.55271368e-15 36.324288,2.043888 36.324288,5.56248 L32.003664,5.56248 C32.003664,4.605216 31.460352,3.906672 30.14088,3.906672 C28.97664,3.906672 28.252224,4.475856 28.252224,5.329632 C28.252224,5.665968 28.355712,6.312768 29.908032,6.778464 L31.95192,7.425264 C36.634752,8.874096 36.893472,11.590656 36.893472,12.858384 C36.893472,16.790928 33.297264,18.291504 30.296112,18.291504 C26.311824,18.291504 23.724624,16.118256 23.724624,12.754896 L28.096992,12.754896 C28.148736,13.71216 28.795536,14.48832 30.296112,14.48832 C31.408608,14.48832 32.495232,13.996752 32.495232,12.884256 C32.495232,12.599664 32.495232,12.004608 30.710064,11.409552 L28.614432,10.711008 C24.630144,9.624384 23.957472,7.088928 23.957472,5.458992 C23.957472,2.19912 26.622288,3.55271368e-15 30.192624,3.55271368e-15 Z M4.320624,0.232848 L4.320624,5.329632 L7.865088,0.232848 L13.272336,0.232848 L6.571488,9.029328 L14.902272,18.058656 L8.977584,18.058656 L4.320624,12.625536 L4.320624,18.058656 L-1.50990331e-14,18.058656 L-1.50990331e-14,0.232848 L4.320624,0.232848 Z M20.6976,0.232848 L20.6976,18.058656 L16.376976,18.058656 L16.376976,0.232848 L20.6976,0.232848 Z" id="Combined-Shape"></path>
                </g>
            </g>
        </g>
    </g>
</svg>