<svg width="72" height="66" viewBox="0 0 72 66" fill="none" xmlns="http://www.w3.org/2000/svg">
<g id="layout-module">
<path id="Combined Shape" fill-rule="evenodd" clip-rule="evenodd" d="M0.75 5.17896C0.75 2.69368 2.76472 0.678955 5.25 0.678955H15.75C18.2353 0.678955 20.25 2.69367 20.25 5.17896V14.054C20.25 16.5392 18.2353 18.554 15.75 18.554H5.25C2.76472 18.554 0.75 16.5392 0.75 14.054V5.17896ZM0.75 28.554C0.75 26.0687 2.76472 24.054 5.25 24.054H15.75C18.2353 24.054 20.25 26.0687 20.25 28.554V37.429C20.25 39.9142 18.2353 41.929 15.75 41.929H5.25C2.76472 41.929 0.75 39.9142 0.75 37.429V28.554ZM5.25 47.429C2.76472 47.429 0.75 49.4437 0.75 51.929V60.804C0.75 63.2892 2.76472 65.304 5.25 65.304H15.75C18.2353 65.304 20.25 63.2892 20.25 60.804V51.929C20.25 49.4437 18.2353 47.429 15.75 47.429H5.25ZM26.25 5.17896C26.25 2.69368 28.2647 0.678955 30.75 0.678955H41.25C43.7353 0.678955 45.75 2.69367 45.75 5.17896V14.054C45.75 16.5392 43.7353 18.554 41.25 18.554H30.75C28.2647 18.554 26.25 16.5392 26.25 14.054V5.17896ZM30.75 24.054C28.2647 24.054 26.25 26.0687 26.25 28.554V37.429C26.25 39.9142 28.2647 41.929 30.75 41.929H41.25C43.7353 41.929 45.75 39.9142 45.75 37.429V28.554C45.75 26.0687 43.7353 24.054 41.25 24.054H30.75ZM26.25 51.929C26.25 49.4437 28.2647 47.429 30.75 47.429H41.25C43.7353 47.429 45.75 49.4437 45.75 51.929V60.804C45.75 63.2892 43.7353 65.304 41.25 65.304H30.75C28.2647 65.304 26.25 63.2892 26.25 60.804V51.929ZM56.25 0.678955C53.7647 0.678955 51.75 2.69368 51.75 5.17896V14.054C51.75 16.5392 53.7647 18.554 56.25 18.554H66.75C69.2353 18.554 71.25 16.5392 71.25 14.054V5.17896C71.25 2.69367 69.2353 0.678955 66.75 0.678955H56.25ZM51.75 28.554C51.75 26.0687 53.7647 24.054 56.25 24.054H66.75C69.2353 24.054 71.25 26.0687 71.25 28.554V37.429C71.25 39.9142 69.2353 41.929 66.75 41.929H56.25C53.7647 41.929 51.75 39.9142 51.75 37.429V28.554ZM56.25 47.429C53.7647 47.429 51.75 49.4437 51.75 51.929V60.804C51.75 63.2892 53.7647 65.304 56.25 65.304H66.75C69.2353 65.304 71.25 63.2892 71.25 60.804V51.929C71.25 49.4437 69.2353 47.429 66.75 47.429H56.25Z" fill="#94A2B0"/>
</g>
</svg>
