<svg xmlns="http://www.w3.org/2000/svg" xmlns:xlink="http://www.w3.org/1999/xlink" width="128" height="128" viewBox="0 0 128 128">
    <defs>
        <radialGradient id="sozx2svqia" cx="50%" cy="50%" r="50%" fx="50%" fy="50%">
            <stop offset="0%" stop-color="#0A73B9"/>
            <stop offset="100%" stop-color="#283782"/>
        </radialGradient>
        <path id="12selxwk7b" d="M64 0C28.654 0 0 28.654 0 64c0 35.346 28.654 64 64 64 35.346 0 64-28.654 64-64 0-35.346-28.654-64-64-64z"/>
    </defs>
    <g fill="none" fill-rule="evenodd">
        <g>
            <g>
                <path fill="url(#sozx2svqia)" d="M64 0C28.654 0 0 28.654 0 64c0 35.346 28.654 64 64 64 35.346 0 64-28.654 64-64 0-35.346-28.654-64-64-64" transform="translate(-896 -12) translate(896 12)"/>
                <g>
                    <g transform="translate(-896 -12) translate(896 12)">
                        <mask id="4omgnz3tjc" fill="#fff">
                            <use xlink:href="#12selxwk7b"/>
                        </mask>
                        <path d="M64 0C28.654 0 0 28.654 0 64c0 35.346 28.654 64 64 64 35.346 0 64-28.654 64-64 0-35.346-28.654-64-64-64z" mask="url(#4omgnz3tjc)"/>
                    </g>
                    <path fill="#FBE214" d="M64 123.874C30.932 123.874 4.126 97.068 4.126 64S30.932 4.126 64 4.126 123.874 30.932 123.874 64 97.068 123.874 64 123.874m56.436-83.716c-3.085-7.293-7.501-13.843-13.126-19.468-5.625-5.625-12.175-10.04-19.468-13.126C80.29 4.37 72.268 2.75 64 2.75c-8.268 0-16.29 1.619-23.842 4.813-7.293 3.085-13.843 7.501-19.468 13.126-5.625 5.625-10.04 12.175-13.126 19.468C4.37 47.71 2.75 55.732 2.75 64c0 8.268 1.62 16.29 4.814 23.841 3.085 7.294 7.501 13.844 13.126 19.469 5.625 5.625 12.175 10.04 19.468 13.126C47.71 123.63 55.732 125.25 64 125.25c8.268 0 16.29-1.62 23.842-4.814 7.293-3.085 13.843-7.501 19.468-13.126 5.625-5.625 10.04-12.175 13.126-19.469C123.63 80.29 125.25 72.268 125.25 64s-1.619-16.29-4.813-23.842" transform="translate(-896 -12) translate(896 12)"/>
                    <path fill="#FBE214" d="M88.657 65.346c-.455 7.913-3.353 15.139-8.224 20.268-.437.46-.886.899-1.347 1.317l.002.004c2.273-1.509 4.336-3.363 6.075-5.473C87.68 78.41 89.541 74.792 90.55 71c.085-.322.164-.644.238-.967.352-1.55.567-3.114.643-4.687h-2.773zM48.915 86.932c-.462-.418-.911-.858-1.348-1.318-4.871-5.129-7.77-12.355-8.224-20.268H36.57c.076 1.573.29 3.137.643 4.687.074.323.153.645.238.967 1.008 3.792 2.87 7.41 5.385 10.462 1.74 2.11 3.804 3.965 6.078 5.474v-.004zM39.28 63.465l-.002-.328c0-.541.011-1.084.034-1.63l-2.44-1.698-.005-.004c-.211 1.36-.32 2.718-.329 4.071v.04h2.75c-.003-.15-.007-.3-.008-.451" transform="translate(-896 -12) translate(896 12)"/>
                    <path fill="#FBE214" d="M79.428 84.66c4.63-4.875 7.392-11.758 7.842-19.314H73.577c-.23 6.526-.95 12.482-2.084 17.079-.395 1.602-.838 3.028-1.325 4.271h7.066c.763-.622 1.495-1.3 2.194-2.036M73.62 63.916h13.708c.005-.255.008-.51.008-.766v-.009c0-.537-.012-1.077-.035-1.62l-6.807-4.958-2.796 2.041-4.044 2.953c-.004.792-.016 1.579-.035 2.359M40.73 65.346c.45 7.556 3.212 14.439 7.842 19.314.699.735 1.431 1.414 2.194 2.036h7.066c-.487-1.243-.93-2.67-1.325-4.271-1.134-4.597-1.855-10.553-2.084-17.079H40.73zM40.672 63.916h13.709c-.019-.78-.03-1.567-.035-2.36l-4.044-2.952-2.796-2.04-6.807 4.958c-.024.542-.035 1.082-.035 1.62v.008c0 .256.003.511.008.766M72.268 61.555L64 55.546l-8.268 6.01c.004.793.017 1.58.035 2.36h16.466c.018-.78.03-1.567.035-2.36M59.327 86.696h9.345c.545-1.292 1.038-2.83 1.475-4.603 1.11-4.497 1.816-10.335 2.043-16.747H55.81c.227 6.412.934 12.25 2.043 16.747.437 1.773.93 3.31 1.474 4.603M91.127 59.809l-2.44 1.698c.024.546.035 1.089.035 1.63 0 .11 0 .219-.002.328 0 .15-.005.3-.008.45h2.75v-.039c-.008-1.353-.118-2.712-.33-4.07l-.005.003z" transform="translate(-896 -12) translate(896 12)"/>
                    <path fill="#FBE214" d="M64 53.833l8.962 6.513 3.594-2.624c-3.111-2.529-5.67-5.71-7.472-9.333-.638.587-1.363 1.056-2.162 1.394-.926.392-1.91.59-2.922.59h-.005c-1.01 0-1.992-.199-2.917-.59-.8-.338-1.525-.807-2.161-1.394-1.802 3.624-4.362 6.804-7.473 9.333l3.594 2.624L64 53.833zM50.725 88.111L47.83 95.368 80.169 95.368 77.272 88.111z" transform="translate(-896 -12) translate(896 12)"/>
                    <path fill="#FBE214" d="M77.083 100.161v-3.39h-6.928v5.184c-.502.08-1.007.151-1.515.212v-5.396h-9.28v5.396c-.512-.061-1.022-.133-1.528-.214V96.77h-6.927v3.386C36.119 94.8 25.555 80.634 25.555 64c0-20.506 16.054-37.261 36.279-38.385V36.12c.58-.18 1.192-.281 1.823-.31.114-.016.229-.028.343-.028.115 0 .229.012.343.028.631.03 1.244.13 1.823.31V25.615c20.225 1.124 36.28 17.88 36.28 38.385 0 16.639-10.571 30.809-25.363 36.161m15.074-64.318c-3.656-3.657-7.915-6.528-12.657-8.534-4.247-1.796-8.724-2.826-13.334-3.071-.719-.039-1.441-.059-2.166-.059-.725 0-1.447.02-2.166.059-4.61.245-9.087 1.275-13.334 3.071-4.742 2.006-9 4.877-12.657 8.534-3.657 3.656-6.528 7.915-8.534 12.657-2.077 4.91-3.13 10.125-3.13 15.5s1.053 10.59 3.13 15.5c2.006 4.742 4.877 9 8.534 12.657 3.656 3.657 7.915 6.528 12.657 8.534.794.336 1.595.644 2.405.926 2.256.787 4.57 1.364 6.927 1.73.508.079 1.017.148 1.528.207 1.531.177 3.079.267 4.64.267 1.561 0 3.11-.09 4.64-.267.507-.059 1.012-.127 1.515-.205 2.358-.365 4.672-.942 6.928-1.728.813-.283 1.62-.593 2.417-.93 4.742-2.006 9-4.877 12.657-8.534 3.657-3.656 6.528-7.915 8.534-12.657 2.077-4.91 3.13-10.125 3.13-15.5s-1.053-10.59-3.13-15.5c-2.006-4.742-4.877-9-8.534-12.657" transform="translate(-896 -12) translate(896 12)"/>
                    <path fill="#FFF" d="M21.458 93.953c-.026-.036-.02-.067.015-.093l4.762-3.444c.063-.045.07-.091.025-.154l-.82-1.135c-.046-.063-.092-.07-.155-.025l-5.897 4.266c-.062.045-.07.091-.024.154l2.862 3.958c.046.062.092.07.154.024l.992-.717c.063-.045.07-.091.025-.154l-1.939-2.68zM31.022 96.035c-.054-.055-.101-.055-.156 0l-5.143 5.146c-.055.054-.055.1 0 .155l.99.99c.054.055.101.055.156 0l5.143-5.146c.055-.054.055-.101 0-.155l-.99-.99zM39.439 102.97l-4.5-3.239c-.063-.045-.11-.037-.155.025l-.714.994c-.045.062-.038.108.025.153l1.539 1.107c.036.026.04.057.015.093l-3.432 4.769c-.045.062-.037.108.025.153l1.137.818c.062.045.109.038.154-.025l3.431-4.769c.026-.035.057-.04.092-.015l1.54 1.108c.062.045.108.037.153-.025l.714-.994c.046-.062.038-.108-.024-.153M45.396 108.398c-.029.253-.21.763-.548 1.518-.338.754-.6 1.229-.77 1.419-.386.43-.86.52-1.414.271-.553-.248-.803-.662-.738-1.237.03-.253.21-.764.548-1.518.339-.754.6-1.23.77-1.419.386-.43.861-.52 1.414-.271.553.248.803.661.738 1.237m-.151-2.545c-1.217-.546-2.4-.387-3.24.54-.31.344-.65.94-1.03 1.786-.378.845-.598 1.495-.648 1.956-.135 1.244.533 2.233 1.75 2.779 1.218.546 2.4.387 3.24-.541.31-.344.65-.94 1.03-1.785.379-.845.598-1.496.647-1.957.136-1.244-.532-2.232-1.749-2.778M58.311 109.745l-1.265-.25c-.087-.017-.147.004-.195.074l-2.658 3.833-.043-.009-1.029-4.563c-.018-.082-.065-.125-.151-.142l-1.287-.255c-.076-.015-.115.01-.13.086l-1.413 7.136c-.015.076.011.115.087.13l1.222.242c.076.015.114-.011.13-.087l.82-4.141.042.009.749 3.372c.023.106.08.162.177.182l.746.147c.097.02.17-.01.233-.1l1.977-2.833.043.009-.82 4.14c-.015.077.011.115.087.13l1.222.242c.076.015.114-.01.13-.086l1.413-7.136c.014-.076-.012-.115-.087-.13M64.604 109.263l.827-.016c.077-.001.142-.036.196-.114l1.119-1.455c.043-.056.03-.11-.046-.11l-.882.018c-.088.001-.165.036-.24.115l-.573.606h-.023l-.584-.584c-.079-.075-.157-.107-.244-.105l-.882.017c-.056 0-.088.056-.043.11l1.163 1.412c.057.076.124.108.212.106M67.566 116.01l-3.229.061c-.044.001-.067-.02-.067-.065l-.03-1.554c0-.044.02-.066.065-.067l2.69-.052c.077-.001.109-.035.107-.112l-.022-1.168c-.001-.078-.035-.11-.112-.109l-2.69.052c-.044 0-.067-.02-.067-.065l-.029-1.488c0-.044.021-.067.065-.067l3.23-.062c.077-.002.11-.035.108-.112l-.023-1.18c-.001-.077-.035-.11-.112-.108l-4.806.092c-.077.001-.11.035-.108.113l.14 7.274c.001.077.035.11.111.108l4.807-.092c.077-.001.11-.035.108-.112l-.023-1.18c-.001-.077-.035-.11-.113-.108M71.663 107.106l1.421 1.149c.07.063.143.08.229.062l.806-.182c.076-.016.133-.063.17-.15l.804-1.65c.03-.063.008-.114-.067-.097l-.86.193c-.086.019-.154.068-.213.16l-.44.709-.02.005-.69-.455c-.093-.059-.175-.074-.261-.054l-.86.193c-.054.012-.075.073-.02.117M75.107 111.98l-1.29.29c-.043.01-.07-.007-.08-.05l-.379-1.688c-.01-.044.007-.07.05-.08l1.291-.29c.602-.134 1.069.133 1.192.682.125.56-.182 1-.784 1.136zm1.52.833c.737-.538 1.055-1.388.845-2.324-.152-.677-.499-1.165-1.055-1.48-.546-.318-1.197-.398-1.939-.231l-2.914.654c-.075.017-.1.057-.084.132l1.594 7.097c.018.075.057.1.132.083l1.366-.306c.075-.017.1-.057.083-.132l-.587-2.613c-.01-.043.007-.07.05-.079l.98-.22 1.858 2.395c.05.068.11.088.186.072l1.527-.343c.075-.017.09-.1.046-.146l-2.088-2.559zM82.26 106.33c-.03-.071-.072-.09-.144-.06l-1.294.533c-.072.03-.09.073-.06.144l2.77 6.727c.03.07.072.089.144.06l1.294-.533c.072-.03.09-.073.06-.144l-2.77-6.727zM93.557 106.623l-1.306.172c-.074.006-.115.045-.103.128.09.606-.097 1.058-.566 1.348-.488.302-.952.264-1.392-.112-.199-.175-.515-.602-.95-1.306-.434-.703-.675-1.176-.743-1.433-.14-.562.034-.993.522-1.295.469-.29.958-.254 1.46.097.069.048.121.028.16-.035l.738-1.091c.054-.06.04-.103-.022-.142-.923-.674-2.02-.71-3.098-.042-1.126.696-1.597 1.738-1.302 2.97.092.421.395 1.038.888 1.835.492.798.908 1.344 1.245 1.616.97.814 2.112.859 3.238.164 1.079-.667 1.538-1.664 1.348-2.79-.007-.074-.04-.106-.117-.084M103.043 100.487l-4.809-1.478-.301-3.627c-.014-.094-.075-.127-.131-.074l-1.162 1.098c-.057.053-.082.122-.068.2l.422 4.076-2.226-2.357c-.053-.056-.1-.057-.156-.004l-1.018.961c-.056.053-.057.1-.004.156l4.996 5.29c.054.056.1.057.156.004l1.018-.961c.056-.053.058-.1.004-.156l-1.31-1.387-.134-1.57 3.4 1.125c.07.026.132.012.188-.04l1.178-1.114c.072-.068.058-.115-.043-.142M106.762 93.87c-.348.497-.801.664-1.354.493-.243-.076-.711-.35-1.388-.825-.678-.474-1.094-.82-1.25-1.022-.35-.46-.348-.944 0-1.44.348-.497.801-.664 1.354-.493.243.076.711.35 1.388.824.678.475 1.094.82 1.25 1.023.35.46.348.944 0 1.44m1.252-2.46c-.279-.37-.8-.817-1.56-1.348-.758-.531-1.356-.87-1.8-1.005-1.196-.367-2.293.104-3.057 1.196-.766 1.093-.833 2.284-.079 3.283.28.37.801.817 1.56 1.348.758.531 1.356.87 1.8 1.005 1.196.367 2.292-.104 3.058-1.196.765-1.093.832-2.284.078-3.284M25.607 36.912c.051.039.09.033.128-.017l.382-.5c.039-.05.034-.089-.017-.128l-2.021-1.545c-.028-.022-.032-.047-.01-.076l1.522-1.992c.04-.05.034-.09-.017-.128l-.456-.349c-.05-.039-.089-.034-.128.017l-1.522 1.992c-.022.03-.048.033-.077.01l-1.5-1.146c-.028-.022-.032-.047-.01-.076l1.795-2.347c.038-.05.033-.09-.018-.128l-.456-.349c-.05-.039-.089-.033-.128.017l-2.265 2.963c-.038.05-.033.089.017.128l4.781 3.654zM30.788 30.014c-.483.471-1.012.556-1.583.26-.263-.139-.653-.472-1.162-.994-.51-.52-.835-.918-.967-1.184-.284-.577-.188-1.104.295-1.576.488-.478 1.018-.563 1.589-.266.262.138.652.471 1.162.993.51.521.834.918.967 1.184.284.577.188 1.104-.301 1.583m-.08-3.34c-.586-.6-1.033-.98-1.34-1.138-.905-.468-1.751-.316-2.527.443-.75.733-.927 1.608-.491 2.509.15.311.52.767 1.106 1.366.586.6 1.034.979 1.342 1.137.89.455 1.77.297 2.519-.436.776-.759.946-1.602.498-2.516-.151-.31-.52-.766-1.106-1.366M31.365 22.942c.037.052.075.058.127.02l1.37-.998c.03-.021.055-.017.077.012l3.118 4.28c.037.052.075.058.127.02l.508-.37c.052-.037.058-.075.02-.127l-3.118-4.28c-.021-.03-.017-.056.013-.077l1.37-.999c.052-.037.058-.075.02-.127l-.338-.464c-.038-.051-.076-.058-.128-.02l-3.485 2.539c-.051.037-.057.075-.02.127l.339.464zM38.696 18.174l1.243-.652c.606-.318 1.14-.166 1.415.359.27.517.077 1.05-.512 1.36l-1.243.653c-.032.017-.057.01-.074-.023l-.852-1.623c-.017-.032-.009-.057.023-.074zm4.014 2.075c.293.557.111 1.095-.535 1.433l-1.283.674c-.033.018-.057.01-.074-.023l-.898-1.711c-.018-.032-.01-.057.022-.074l1.284-.674c.646-.339 1.195-.175 1.484.375zm-2.284 3.083c.03.057.067.068.123.039l1.905-1c1.155-.607 1.508-1.483.97-2.508-.356-.678-1.005-.934-1.497-.83l-.008-.017c.39-.452.425-.975.107-1.58-.475-.905-1.324-1.149-2.414-.577l-1.945 1.022c-.057.03-.068.066-.039.123l2.798 5.328zM47.083 14.957l.017-.006 1.84 2.345-1.87.645.013-2.984zm-.713 5.54l.603-.207c.052-.018.078-.056.083-.125l.008-1.43 2.37-.818.889 1.121c.038.055.08.068.142.048l.603-.209c.06-.02.07-.052.03-.106l-3.97-4.997c-.038-.055-.081-.069-.142-.048l-.56.193c-.052.018-.077.056-.074.122l-.073 6.391c.005.067.03.087.091.066zM53.734 18.243l3.665-.688c.063-.012.085-.044.073-.107l-.106-.564c-.012-.063-.044-.085-.107-.073l-2.903.545c-.036.007-.057-.007-.064-.044l-.978-5.206c-.012-.062-.044-.084-.106-.072l-.619.116c-.063.012-.084.044-.073.106l1.112 5.915c.011.062.043.084.106.072M60.553 12.614c.175-.619.6-.947 1.274-.975.683-.028 1.133.263 1.36.865.102.278.17.787.2 1.516.03.728.006 1.24-.073 1.527-.175.619-.6.947-1.283.975-.673.028-1.124-.263-1.35-.865-.103-.278-.17-.786-.2-1.515-.031-.73-.007-1.241.072-1.528m-.655 3.304c.359.934 1.118 1.404 2.165 1.36 1.084-.045 1.775-.558 2.053-1.537.096-.332.126-.918.09-1.756-.034-.838-.114-1.419-.237-1.742-.359-.952-1.09-1.405-2.174-1.36-1.047.044-1.765.576-2.044 1.537-.095.333-.125.918-.09 1.756s.114 1.419.237 1.742M68.671 17.362l.536.056c.054.005.093-.018.118-.08l2.606-5.761c.034-.07.011-.109-.053-.116l-.625-.064c-.064-.007-.103.016-.128.078l-2.018 4.603-.018-.002-1.083-4.925c-.012-.065-.055-.097-.118-.104l-.617-.064c-.063-.007-.094.027-.075.102l1.376 6.175c.011.066.045.096.1.102M77.16 11.81l.44.113c.063.016.123.004.18-.038l1.189-.702c.046-.035.04-.084-.022-.1l-.618-.159c-.062-.016-.122-.003-.182.048l-1 .74c-.047.035-.032.087.012.098M79.357 13.147l-.609-.156c-.062-.016-.104.001-.146.056l-1.995 2.227-.018-.005-.68-2.915c-.02-.07-.058-.109-.11-.122l-.628-.161c-.07-.019-.106.01-.095.078l.886 3.91-.609 2.367c-.016.061.004.095.066.11l.6.155c.062.016.095-.004.111-.066l.61-2.366 2.663-2.996c.042-.055.025-.097-.046-.116M87.114 23.106c0 .061.027.107.075.132l.647.338c.073.038.106.014.095-.064l-.186-4.232 2.79-1.166c.061-.02.075-.085.018-.114l-.663-.346c-.056-.03-.11-.027-.167.005l-3.834 1.649 1.494-2.86c.03-.058.018-.094-.038-.124l-.558-.291c-.057-.03-.093-.018-.123.038l-2.786 5.334c-.03.057-.018.094.038.123l.558.292c.057.029.094.018.123-.039l.794-1.52 1.594-.669.13 3.514zM90.173 25.094l3.021 2.187c.052.038.09.031.128-.02l.336-.466c.038-.051.033-.09-.02-.127l-2.392-1.733c-.03-.021-.034-.046-.013-.076l3.106-4.292c.038-.051.032-.09-.02-.127l-.51-.369c-.051-.037-.09-.031-.127.02l-3.53 4.876c-.037.052-.03.09.021.127M99.783 30.418l2.753-2.828c.045-.046.044-.085-.001-.13l-.45-.438c-.047-.045-.085-.044-.13.001l-2.747 2.823c-.687.705-1.441.708-2.042.123-.608-.591-.624-1.345.062-2.05l2.748-2.822c.044-.046.044-.085-.002-.13l-.45-.438c-.046-.044-.085-.044-.13.001l-2.753 2.829c-1.011 1.039-.996 2.186-.003 3.153.986.96 2.134.944 3.145-.094M101.353 34.377l1.543-1.164c.03-.022.055-.019.077.01l.873 1.157c.44.582.366 1.152-.129 1.525-.502.38-1.062.288-1.5-.294l-.874-1.157c-.022-.03-.019-.055.01-.077m2.22-1.675l1.462-1.104c.03-.022.055-.018.077.01l.846 1.121c.411.546.347 1.097-.125 1.454-.466.351-1.024.247-1.425-.284l-.846-1.12c-.022-.03-.019-.055.01-.077m-3.286 1.578l1.296 1.717c.786 1.04 1.708 1.248 2.632.55.61-.461.758-1.144.576-1.612l.015-.01c.51.312 1.03.26 1.577-.152.815-.614.917-1.492.176-2.474l-1.323-1.754c-.039-.05-.078-.056-.128-.018l-4.803 3.625c-.05.039-.056.077-.018.128M65.497 44.927h-2.994l-.925-2.847L64 40.32l2.422 1.76-.925 2.847zm3.382-6.192c-.66-.78-1.505-1.4-2.467-1.791l-.23.166L64 38.696l-2.182-1.586-.23-.166c-.962.392-1.807 1.011-2.468 1.792l.923 2.84-2.42 1.759c.076 1.058.41 2.045.939 2.898v-.002H61.556l.925 2.847-.003.002c.488.12.997.184 1.522.184.528 0 1.04-.066 1.532-.186l.925-2.847h2.983c.528-.852.86-1.837.937-2.894l-2.421-1.76.923-2.842zM78.28 47.054L78.28 39.696 75.58 39.696 75.58 41.083 76.727 41.083 76.727 47.054zM81 42.195c0-.71.526-1.202 1.26-1.202.725 0 1.257.493 1.257 1.202 0 .717-.532 1.209-1.257 1.209-.734 0-1.26-.49-1.26-1.21m1.583 2.266c-.453.786-.901 1.549-1.511 2.594h1.736l1.472-2.525c.585-.997.758-1.68.758-2.334 0-1.562-1.14-2.65-2.79-2.65-1.617 0-2.768 1.097-2.768 2.65 0 1.388 1.005 2.369 2.419 2.369.23 0 .46-.036.684-.104M45.325 47.054L45.325 39.696 42.624 39.696 42.624 41.083 43.772 41.083 43.772 47.054zM49.305 43.404c-.735 0-1.26-.49-1.26-1.21 0-.71.525-1.202 1.26-1.202.725 0 1.257.494 1.257 1.203 0 .717-.532 1.209-1.257 1.209m2.778-1.21c0-1.562-1.14-2.649-2.79-2.649-1.617 0-2.769 1.097-2.769 2.65 0 1.388 1.005 2.369 2.42 2.369.229 0 .459-.036.683-.104-.452.786-.9 1.549-1.51 2.594h1.736l1.471-2.525c.586-.997.76-1.68.76-2.334" transform="translate(-896 -12) translate(896 12)"/>
                </g>
            </g>
        </g>
    </g>
</svg>
