<?xml version="1.0" encoding="UTF-8"?>
<svg width="10px" height="24px" viewBox="0 0 10 24" version="1.1" xmlns="http://www.w3.org/2000/svg" xmlns:xlink="http://www.w3.org/1999/xlink">
    <!-- Generator: Sketch 57.1 (83088) - https://sketch.com -->
    <title>ohlasy</title>
    <desc>Created with Sketch.</desc>
    <g id="Page-1" stroke="none" stroke-width="1" fill="none" fill-rule="evenodd">
        <g id="ohlasy" transform="translate(-7.000000, 0.000000)" fill="#000000" fill-rule="nonzero">
            <g id="microphone-1">
                <path d="M13.5,18.9999851 L10.5,18.9999851 C10.3559159,18.9988874 10.218356,19.0599874 10.1225813,19.1676382 C10.0268066,19.2752889 9.98212874,19.4190242 10,19.562 L10.445,23.124 C10.5075244,23.6243376 10.9327709,23.9998577 11.437,24 L12.555,24 C13.0592291,23.9998577 13.4844756,23.6243376 13.547,23.124 L14,19.562 C14.0178713,19.4190242 13.9731934,19.2752889 13.8774187,19.1676382 C13.781644,19.0599874 13.6440841,18.9988874 13.5,18.9999851 Z" id="Shape"></path>
                <path d="M16.25,8.5 C16.3880712,8.5 16.5,8.38807119 16.5,8.25 L16.5,2.5 C16.4998767,1.65617613 15.9701616,0.903212462 15.176,0.618 C14.1587662,0.237879877 13.0855469,0.0290481521 12,1.0906831e-15 C10.9144531,0.0290481521 9.84123376,0.237879877 8.824,0.618 C8.02983844,0.903212462 7.50012329,1.65617613 7.5,2.5 L7.5,8.25 C7.5,8.38807119 7.61192881,8.5 7.75,8.5 L16.25,8.5 Z" id="Shape"></path>
                <path d="M13.25,10 C13.1119288,10 13,10.1119288 13,10.25 L13,13 C13,13.5522847 12.5522847,14 12,14 C11.4477153,14 11,13.5522847 11,13 L11,10.25 C11,10.1119288 10.8880712,10 10.75,10 L7.75,10 C7.61192881,10 7.5,10.1119288 7.5,10.25 L7.5,14 C7.50086212,14.4362219 7.64962993,14.8592584 7.922,15.2 L9.3,16.923 C9.59151272,17.2877221 10.0330933,17.5 10.5,17.5 L13.5,17.5 C13.9671423,17.500099 14.4088735,17.2873318 14.7,16.922 L16.078,15.2 C16.3503701,14.8592584 16.4991379,14.4362219 16.5,14 L16.5,10.25 C16.5,10.1119288 16.3880712,10 16.25,10 L13.25,10 Z" id="Shape"></path>
            </g>
        </g>
    </g>
</svg>