<svg xmlns="http://www.w3.org/2000/svg" width="48" height="48" viewBox="0 0 48 48">
    <g fill="none" fill-rule="evenodd">
        <g>
            <g>
                <path fill="#FFE119" d="M24 48c13.255 0 24-10.745 24-24S37.255 0 24 0 0 10.745 0 24s10.745 24 24 24z" transform="translate(-472 -2589) translate(472 2589)"/>
                <path fill="#283782" d="M22.664 15.504c-.92-.614-2.104-.671-3.08-.149C18.61 15.877 18 16.894 18 18v12c0 1.106.609 2.123 1.584 2.645.976.522 2.16.465 3.08-.149l9-6C32.5 25.94 33 25.003 33 24s-.501-1.94-1.336-2.496l-9-6z" transform="translate(-472 -2589) translate(472 2589)"/>
            </g>
        </g>
    </g>
</svg>
