<?xml version="1.0" encoding="UTF-8"?>
<svg width="24px" height="24px" viewBox="0 0 24 24" version="1.1" xmlns="http://www.w3.org/2000/svg" xmlns:xlink="http://www.w3.org/1999/xlink">
    <!-- Generator: Sketch 57.1 (83088) - https://sketch.com -->
    <title>report</title>
    <desc>Created with Sketch.</desc>
    <g id="Page-1" stroke="none" stroke-width="1" fill="none" fill-rule="evenodd">
        <g id="report" fill="#000000" fill-rule="nonzero">
            <g id="paragraph-left-align-alternate">
                <path d="M23,22 L1,22 C0.44771525,22 0,22.4477153 0,23 C0,23.5522847 0.44771525,24 1,24 L23,24 C23.5522847,24 24,23.5522847 24,23 C24,22.4477153 23.5522847,22 23,22 Z" id="Shape"></path>
                <path d="M1,18.5 L19,18.5 C19.5522847,18.5 20,18.0522847 20,17.5 C20,16.9477153 19.5522847,16.5 19,16.5 L1,16.5 C0.44771525,16.5 0,16.9477153 0,17.5 C0,18.0522847 0.44771525,18.5 1,18.5 Z" id="Shape"></path>
                <path d="M23,11 L1,11 C0.44771525,11 0,11.4477153 0,12 C0,12.5522847 0.44771525,13 1,13 L23,13 C23.5522847,13 24,12.5522847 24,12 C24,11.4477153 23.5522847,11 23,11 Z" id="Shape"></path>
                <path d="M1,7.5 L19,7.5 C19.5522847,7.5 20,7.05228475 20,6.5 C20,5.94771525 19.5522847,5.5 19,5.5 L1,5.5 C0.44771525,5.5 0,5.94771525 0,6.5 C0,7.05228475 0.44771525,7.5 1,7.5 Z" id="Shape"></path>
                <path d="M1,2 L23,2 C23.5522847,2 24,1.55228475 24,1 C24,0.44771525 23.5522847,0 23,0 L1,0 C0.44771525,0 0,0.44771525 0,1 C0,1.55228475 0.44771525,2 1,2 Z" id="Shape"></path>
            </g>
        </g>
    </g>
</svg>