<svg width="102" height="102" viewBox="0 0 102 102" fill="none" xmlns="http://www.w3.org/2000/svg">
<g id="Group 8">
<g id="Oval" filter="url(#filter0_d)">
<circle cx="51" cy="48" r="36" fill="#00AAEC"/>
</g>
<g id="1479877206 twitter">
<path id="Twitter_1_" fill-rule="evenodd" clip-rule="evenodd" d="M67.8301 36.2894C66.5603 36.8677 65.193 37.2587 63.7587 37.4334C65.2232 36.5348 66.3472 35.1097 66.8767 33.4125C65.5054 34.2447 63.9901 34.85 62.3712 35.1745C61.0811 33.7622 59.2371 32.8801 57.1964 32.8801C53.2833 32.8801 50.1086 36.1355 50.1086 40.1504C50.1086 40.7203 50.1694 41.2736 50.2911 41.8063C44.3987 41.5023 39.1752 38.6108 35.6758 34.2071C35.0653 35.2847 34.7162 36.5348 34.7162 37.8662C34.7162 40.3874 35.9679 42.613 37.8706 43.9174C36.7104 43.882 35.6148 43.5513 34.6573 43.0105V43.0999C34.6573 46.6236 37.1016 49.5628 40.3473 50.2287C39.753 50.3993 39.1261 50.4846 38.4789 50.4846C38.0226 50.4846 37.5763 50.4409 37.144 50.3556C38.0466 53.2429 40.6635 55.346 43.7671 55.4021C41.3409 57.3534 38.2821 58.516 34.9614 58.516C34.3892 58.516 33.8233 58.4828 33.2695 58.4161C36.4077 60.4754 40.1362 61.6799 44.1384 61.6799C57.1818 61.6799 64.312 50.6029 64.312 40.9947C64.312 40.6785 64.3058 40.3623 64.2936 40.0524C65.6798 39.0269 66.8826 37.7476 67.8301 36.2894Z" fill="white"/>
</g>
</g>
<defs>
<filter id="filter0_d" x="0" y="0" width="102" height="102" filterUnits="userSpaceOnUse" color-interpolation-filters="sRGB">
<feFlood flood-opacity="0" result="BackgroundImageFix"/>
<feColorMatrix in="SourceAlpha" type="matrix" values="0 0 0 0 0 0 0 0 0 0 0 0 0 0 0 0 0 0 127 0" result="hardAlpha"/>
<feOffset dy="1"/>
<feGaussianBlur stdDeviation="2.5"/>
<feColorMatrix type="matrix" values="0 0 0 0 0 0 0 0 0 0 0 0 0 0 0 0 0 0 0.2 0"/>
<feBlend mode="normal" in2="BackgroundImageFix" result="effect1_dropShadow"/>
<feBlend mode="normal" in="SourceGraphic" in2="effect1_dropShadow" result="shape"/>
</filter>
</defs>
</svg>
