<?xml version="1.0" encoding="UTF-8"?>
<svg width="24px" height="24px" viewBox="0 0 24 24" version="1.1" xmlns="http://www.w3.org/2000/svg" xmlns:xlink="http://www.w3.org/1999/xlink">
    <!-- Generator: Sketch 57.1 (83088) - https://sketch.com -->
    <title>vieo-ohlasy</title>
    <desc>Created with Sketch.</desc>
    <g id="Page-1" stroke="none" stroke-width="1" fill="none" fill-rule="evenodd">
        <g id="vieo-ohlasy" fill="#000000" fill-rule="nonzero">
            <g id="modern-tv-hd">
                <path d="M24,1.5 C24,0.671572875 23.3284271,0 22.5,0 L1.5,0 C0.671572875,0 0,0.671572875 0,1.5 L0,17.5 C0,18.3284271 0.671572875,19 1.5,19 L22.5,19 C23.3284271,19 24,18.3284271 24,17.5 L24,1.5 Z M22,14.5 C22,14.7761424 21.7761424,15 21.5,15 L2.5,15 C2.22385763,15 2,14.7761424 2,14.5 L2,2.5 C2,2.22385763 2.22385763,2 2.5,2 L21.5,2 C21.7761424,2 22,2.22385763 22,2.5 L22,14.5 Z" id="Shape"></path>
                <path d="M14.35,20.681 C14.2550143,20.5663566 14.1138804,20.5 13.965,20.5 L10.035,20.5 C9.88611956,20.5 9.74498572,20.5663566 9.65,20.681 L7.55,23.213 C7.44289164,23.3657981 7.42978036,23.5655248 7.51599443,23.7310137 C7.60220849,23.8965027 7.7734004,24.0002137 7.96,24 L16.039,24 C16.2255996,24.0002137 16.3967915,23.8965027 16.4830056,23.7310137 C16.5692196,23.5655248 16.5561084,23.3657981 16.449,23.213 L14.35,20.681 Z" id="Shape"></path>
            </g>
            <g id="microphone-1" transform="translate(12.000000, 8.500000) rotate(-330.000000) translate(-12.000000, -8.500000) translate(10.000000, 3.000000)">
                <path d="M2.74855393,9 L1.25144607,9 C1.17954291,8.99956094 1.11089559,9.02400088 1.06310057,9.06706105 C1.01530556,9.11012121 0.993009691,9.16761514 1.00192809,9.2248053 L1.22399909,10.649601 C1.25520101,10.8497355 1.46741432,10.9999431 1.71904276,11 L2.27696495,11 C2.52859339,10.9999431 2.7408067,10.8497355 2.77200862,10.649601 L2.99807191,9.2248053 C3.00699031,9.16761514 2.98469444,9.11012121 2.93689943,9.06706105 C2.88910441,9.02400088 2.82045709,8.99956094 2.74855393,9 Z" id="Shape"></path>
                <path d="M3.88888889,4 C3.95025386,4 4,3.94732762 4,3.88235294 L4,1.17647059 C3.9999452,0.779377002 3.76451625,0.425041159 3.41155556,0.290823529 C2.95945166,0.111943472 2.48246528,0.0136697186 2,0 C1.51753472,0.0136697186 1.04054834,0.111943472 0.588444444,0.290823529 C0.235483749,0.425041159 5.47974119e-05,0.779377002 0,1.17647059 L0,3.88235294 C0,3.94732762 0.0497461389,4 0.111111111,4 L3.88888889,4 Z" id="Shape"></path>
                <path d="M2.55555556,5 C2.49419058,5 2.44444444,5.04477152 2.44444444,5.1 L2.44444444,6.19999999 C2.44444444,6.42091389 2.24545989,6.59999999 2,6.59999999 C1.75454011,6.59999999 1.55555556,6.42091389 1.55555556,6.19999999 L1.55555556,5.1 C1.55555556,5.04477152 1.50580942,5 1.44444444,5 L0.111111111,5 C0.0497461389,5 0,5.04477152 0,5.1 L0,6.59999999 C0.000383162345,6.77448877 0.0665021893,6.94370334 0.187555556,7.07999999 L0.8,7.76919999 C0.92956121,7.91508883 1.12581924,8 1.33333333,8 L2.66666667,8 C2.87428549,8.00003958 3.07061044,7.91493271 3.2,7.76879999 L3.81244444,7.07999999 C3.93349781,6.94370334 3.99961684,6.77448877 4,6.59999999 L4,5.1 C4,5.04477152 3.95025386,5 3.88888889,5 L2.55555556,5 Z" id="Shape"></path>
            </g>
        </g>
    </g>
</svg>