<svg width="21" height="11" viewBox="0 0 21 11" fill="none" xmlns="http://www.w3.org/2000/svg">
<g opacity="0.3" filter="url(#filter0_d)">
<path fill-rule="evenodd" clip-rule="evenodd" d="M14.3058 5.27801C13.0376 5.27801 12.2103 4.6748 11.1364 3.80066C10.0559 2.92598 8.76778 1.89264 6.8217 1.89264C4.67815 1.89264 2.93187 3.20572 2 5.40868L3.59837 6.23909C4.30256 4.6564 5.427 3.72199 6.69625 3.72199C7.96524 3.72199 8.79179 4.326 9.8646 5.19934C10.9457 6.07482 12.2351 7.10736 14.1804 7.10736C16.3229 7.10736 18.0674 5.79615 19 3.59479L17.4032 2.76145C16.6985 4.34413 15.574 5.27801 14.3058 5.27801Z" fill="white"/>
</g>
<defs>
<filter id="filter0_d" x="0" y="0.892639" width="21" height="9.21472" filterUnits="userSpaceOnUse" color-interpolation-filters="sRGB">
<feFlood flood-opacity="0" result="BackgroundImageFix"/>
<feColorMatrix in="SourceAlpha" type="matrix" values="0 0 0 0 0 0 0 0 0 0 0 0 0 0 0 0 0 0 127 0" result="hardAlpha"/>
<feOffset dy="1"/>
<feGaussianBlur stdDeviation="1"/>
<feColorMatrix type="matrix" values="0 0 0 0 0 0 0 0 0 0 0 0 0 0 0 0 0 0 0.272732 0"/>
<feBlend mode="normal" in2="BackgroundImageFix" result="effect1_dropShadow"/>
<feBlend mode="normal" in="SourceGraphic" in2="effect1_dropShadow" result="shape"/>
</filter>
</defs>
</svg>
