<svg xmlns="http://www.w3.org/2000/svg" xmlns:xlink="http://www.w3.org/1999/xlink" width="696" height="293" viewBox="0 0 696 293">
    <defs>
        <linearGradient id="qxouqkabyb" x1="50%" x2="50%" y1="0%" y2="62.691%">
            <stop offset="0%" stop-color="#0A73B9"/>
            <stop offset="100%" stop-color="#283782"/>
        </linearGradient>
        <path id="9gr0a9cn2a" d="M0 0H696V293H0z"/>
    </defs>
    <g fill="none" fill-rule="evenodd">
        <g>
            <g transform="translate(-612 -3623) translate(612 3623)">
                <mask id="u1p06c5ylc" fill="#fff">
                    <use xlink:href="#9gr0a9cn2a"/>
                </mask>
                <path fill="url(#qxouqkabyb)" d="M515.26 465l36.947 92H142.795l36.947-92H515.26zM696 176l-.1 1.932c-1.049 19.312-3.729 38.507-7.889 57.068-1.11 4.585-2.118 8.675-2.995 13-13.005 47.88-36.66 93.794-68.901 133-21.791 26.314-47.997 49.848-76.89 69l1.252-1.152c5.413-5.008 10.692-10.215 15.724-15.848 61.995-64.865 98.8-156.575 104.85-257H696zm-661.05 0c6.04 100.42 42.844 192.126 104.85 257 5.406 6.061 11.113 11.636 16.975 17-28.896-19.153-55.107-42.69-76.89-69-32.248-39.213-55.898-85.125-68.9-133-.883-4.33-1.887-8.423-2.996-13C3.688 215.813.97 195.961 0 176zm608.126 0c-5.703 95.912-40.697 183.27-99.856 245-8.353 9.486-17.636 18.096-26.962 26h-89.87c6.172-15.778 11.786-33.88 16.975-54 14.177-58.571 23.314-134.165 25.963-217zm-416.402 0c2.646 82.835 11.784 158.43 25.963 217 5.187 20.12 10.803 38.223 16.976 54h-89.871c-9.328-7.903-18.611-16.514-26.962-26-59.162-61.73-94.156-149.088-99.856-245zm225.676 0c-2.883 81.382-11.845 155.49-25.963 213-5.484 22.08-11.743 41.594-18.972 58H289.584c-7.23-16.406-13.489-35.92-18.973-58-14.118-57.51-23.08-131.618-25.963-213zM3.994 105l30.956 22c-.285 6.43-.429 13.302 0 20-.429 1.53-.421 2.913 0 4-.393 2.202-.34 4.099 0 6H0l.018-2.032C.21 138.054 1.578 121.531 3.994 105zM557.2 64l86.876 63c-.146 6.578 0 13.406 0 20l-.002 1.172c-.005 3.096-.03 5.965.002 8.828h-173.75c.234-9.863.385-19.814 0-30l51.925-37 34.95-26zm-418.398 0l34.95 26 51.925 37c-.386 10.186-.236 20.137 0 30H51.926c.036-3.22 0-6.45 0-10l.005-2.483c.026-5.814.123-11.761-.006-17.517l86.876-63zm209.698-13l104.85 76c-.058 10.154-.212 20.123 0 30h-209.7c.21-9.877.057-19.846 0-30L348.5 51zm343.507 54c2.514 17.192 3.892 34.377 3.994 52h-34.95c.342-1.9.393-3.798 0-6 .421-1.087.43-2.47 0-4 .43-6.697.288-13.569 0-20zM412.407-40c22.933 46.065 55.404 86.496 94.864 119l-45.934 33L348.5 29l-113.836 83-45.934-33c39.46-32.504 71.93-72.934 94.864-119 8.002 7.468 17.203 13.428 26.96 18 12.112 4.698 24.564 7.222 36.948 7h.998c12.345.232 24.816-2.294 36.947-7 9.758-4.572 18.958-10.533 26.961-18z" mask="url(#u1p06c5ylc)" opacity=".255"/>
            </g>
        </g>
    </g>
</svg>
