<?xml version="1.0" encoding="UTF-8"?>
<svg width="132px" height="132px" viewBox="0 0 132 132" version="1.1" xmlns="http://www.w3.org/2000/svg" xmlns:xlink="http://www.w3.org/1999/xlink">
    <title>Group 41</title>
    <defs>
        <filter x="-12.1%" y="-12.1%" width="124.1%" height="124.1%" filterUnits="objectBoundingBox" id="filter-1">
            <feOffset dx="0" dy="2" in="SourceAlpha" result="shadowOffsetOuter1"></feOffset>
            <feGaussianBlur stdDeviation="2.5" in="shadowOffsetOuter1" result="shadowBlurOuter1"></feGaussianBlur>
            <feColorMatrix values="0 0 0 0 0   0 0 0 0 0   0 0 0 0 0  0 0 0 0.25 0" type="matrix" in="shadowBlurOuter1" result="shadowMatrixOuter1"></feColorMatrix>
            <feMerge>
                <feMergeNode in="shadowMatrixOuter1"></feMergeNode>
                <feMergeNode in="SourceGraphic"></feMergeNode>
            </feMerge>
        </filter>
    </defs>
    <g id="Final" stroke="none" stroke-width="1" fill="none" fill-rule="evenodd">
        <g id="HP" transform="translate(-237.000000, -39.000000)">
            <g id="Group-41" filter="url(#filter-1)" transform="translate(247.000000, 49.000000)">
                <path d="M56,0.964564683 C86.3947915,0.964564683 111.034699,25.6048018 111.034699,56 C111.034699,86.3951982 86.3947915,111.035435 56,111.035435 C25.6052085,111.035435 0.965301127,86.3951982 0.965301127,56 C0.965301127,25.6048018 25.6052085,0.964564683 56,0.964564683 Z" id="Fill-17" fill="#FEFEFE"></path>
                <path d="M56,0.964564683 C86.3947915,0.964564683 111.034699,25.6048018 111.034699,56 C111.034699,86.3951982 86.3947915,111.035435 56,111.035435 C25.6052085,111.035435 0.965301127,86.3951982 0.965301127,56 C0.965301127,25.6048018 25.6052085,0.964564683 56,0.964564683 Z" id="Stroke-19" stroke="#FEFEFE" stroke-width="0.54"></path>
                <g id="Group-40">
                    <path d="M56.1735771,24.2686899 L55.6852723,28.5357595 C53.7279659,28.6340621 53.0564787,30.7542106 55.564763,31.5984687 L55.522663,35.2130486 C51.1660008,40.2503938 43.0363533,39.4996016 39.7201318,32.9179583 C39.5942407,43.9159985 40.0273659,53.3243021 49.6569429,54.4312455 L46.232951,56.3522681 L49.6569429,58.5949712 L49.6569429,70.7670568 C54.001343,70.0707636 58.3456068,69.034737 62.6902794,67.8683897 L62.6902794,58.5949712 L66.1148162,56.3522681 L62.6902794,54.4312455 C72.3197882,53.3243021 72.7521641,43.9159985 72.6276355,32.9179583 C69.3112777,39.4996016 61.1819708,40.2503938 56.8247636,35.2130486 L56.7818462,31.5984687 C59.2906754,30.7542106 58.6202101,28.6340621 56.6617456,28.5357595 L56.1735771,24.2686899 Z M47.1400071,75.4240669 L47.1400071,75.4240669 L46.5183859,75.8911917 L51.5991261,77.8434832 L61.0890512,77.8193673 L65.8289727,75.8911917 L62.6902794,73.327898 L62.6902794,72.0609319 C57.4766995,73.3631861 52.302086,74.4349777 47.1400071,75.4240669 Z M73.3882274,42.1160318 L73.3882274,42.1160318 C73.4948397,41.2186372 73.5552647,40.2743734 73.5672543,39.2837173 C92.0274633,37.1346163 105.783447,39.4644497 106.07113,45.765968 C106.445738,53.9810835 84.5579945,65.9156895 57.3446093,72.3333589 C30.1310198,78.7489845 7.62948942,77.2833013 7.25454112,69.0677771 C6.95868348,62.6017398 20.926257,53.7059315 39.9557688,47.1352561 C40.1716502,48.0111918 40.4809962,48.7944109 40.8843517,49.4836193 C29.3894341,54.2943167 21.4729431,60.5326161 21.4729431,65.5916247 C21.4729431,72.741216 37.2814691,74.8997863 56.6629037,70.3968721 C76.0444064,65.8947755 91.85266,56.3908943 91.85266,49.241848 C91.85266,44.3220844 84.3691579,41.7662843 73.3882274,42.1160318 Z M46.0122329,39.5013728 L46.0122329,39.5013728 C47.1009727,39.8402887 47.3554798,39.9254434 48.4446283,39.8340894 C47.692688,46.0864904 50.5851852,51.8744917 54.7344132,54.0336069 L53.364871,56.5196482 L54.2207668,58.6048492 L53.6893402,68.9447455 L53.0797086,58.7207278 L51.9963506,56.5196482 L53.1370681,54.2607316 C49.7072857,52.2558486 46.2737566,47.4720601 46.0122329,39.5013728 L46.0122329,39.5013728 Z" id="Fill-20" fill="#FEFEFE"></path>
                    <path d="M14.8045311,42.4900995 L15.5014281,40.4752023 L18.9230357,41.6482939 C19.1358516,41.721527 19.2246838,41.7668974 19.3300699,41.8916321 L20.4257582,38.7237398 C20.2652607,38.7578698 20.1809246,38.7437682 19.9535986,38.6661752 L11.9535207,35.9228985 C11.7399555,35.8502785 11.6514639,35.8051124 11.5460778,35.6795603 L10.4501851,38.8475207 C10.6330269,38.8362803 10.7486996,38.8463626 10.9217317,38.9056303 L14.1568189,40.0142768 L13.4601262,42.0291059 L10.2248347,40.9205275 C10.0520069,40.8611917 9.95486373,40.7979047 9.81793675,40.6765762 L8.72231657,43.8448773 C8.88274594,43.8109516 8.98063851,43.8298219 9.19345436,43.9026462 L17.1947584,46.6451736 C17.4208583,46.7231753 17.4963384,46.7639134 17.6017926,46.888648 L18.6976853,43.7207557 C18.5369834,43.7549539 18.4526473,43.7408523 18.226275,43.6631911 L14.8045311,42.4900995 Z M18.5520386,25.3757696 L18.5520386,25.3757696 L20.1812652,26.5537661 C19.0145248,26.8883901 18.3946747,27.2369795 17.9644788,27.8268634 C17.1698255,28.9154134 17.7147403,30.3150847 19.4123624,31.5428797 C20.4263713,32.2758916 21.2112831,32.5840836 21.9934018,32.5611259 C22.6041915,32.5346257 23.182691,32.2428516 23.5304582,31.7666663 C23.9356531,31.2107081 24.0839566,30.5550848 24.0539825,29.3551524 L25.6260541,30.4923428 C25.3394611,31.5330017 24.9949638,32.2198938 24.3249072,33.138475 C22.3883101,35.7919646 20.1332386,36.1360578 17.4333929,34.1832214 C16.1118091,33.2273084 15.4896429,32.2919007 15.3440643,31.0602908 C15.2005294,29.7780649 15.5824944,28.6340621 16.6341753,27.1937209 C17.2380165,26.3658807 17.7458725,25.8842455 18.5520386,25.3757696 Z M29.2683798,26.1785403 L29.2683798,26.1785403 C30.5797451,25.9657216 31.339792,25.6778305 32.28561,25.0189372 C33.1159597,24.4400213 33.7236839,23.7395725 33.9739673,23.0687576 C34.3379478,22.0960862 34.1394378,20.9337581 33.4452657,19.946372 C32.6455713,18.8097947 31.6858562,18.519928 30.0782926,18.9225396 C28.26057,19.3684098 28.1587944,19.370726 27.8598712,18.9457017 C27.5932383,18.5670697 27.7112271,18.0741941 28.1491891,17.7681821 C28.6568408,17.4145515 29.3683842,17.2780314 30.5023575,17.3261268 L29.8028719,15.6228959 C28.7649518,15.833194 28.0991188,16.1087548 27.2921352,16.6716616 C26.4963919,17.2266661 25.9058347,17.877657 25.6540526,18.4981284 C25.2541713,19.4447084 25.3930057,20.5459975 25.99855,21.4068778 C26.3215886,21.8661003 26.7358438,22.2106023 27.2286447,22.3976702 C27.7927021,22.6381471 28.4177976,22.6470032 29.3972001,22.4266909 C30.302485,22.2229327 30.6483449,22.1530377 30.7927654,22.1379823 C31.1828369,22.1055554 31.3991271,22.19398 31.6012476,22.4815305 C31.9243544,22.9406849 31.7621539,23.5157859 31.1961209,23.9095413 C30.5156415,24.3840235 30.0684148,24.4565753 28.5778182,24.3660388 L29.2683798,26.1785403 Z M32.3124504,13.3801928 L32.3124504,13.3801928 L39.1958581,10.3289284 L39.8545382,11.8011515 C39.6386568,11.8358947 39.5305458,11.8687303 39.3628954,11.9427128 L37.8196398,12.6274249 L40.8202481,19.3377541 C40.9064235,19.5296588 40.9590825,19.613451 41.0994837,19.7204735 L38.0253028,21.0830173 C38.0453309,20.9208146 38.0181499,20.8250326 37.9263884,20.6203206 L34.9257801,13.9100596 L33.5105274,14.5370709 C33.3178078,14.6226344 33.1945735,14.6925294 32.9711305,14.8532334 L32.3124504,13.3801928 Z M44.928943,15.8851725 L44.928943,15.8851725 L47.5187022,15.3369123 L48.522629,17.0739326 C48.596406,17.2160388 48.646817,17.3199275 48.6641883,17.4022211 C48.6676626,17.4155733 48.6763142,17.4570607 48.6744067,17.5148297 L52.1996973,16.7684655 C52.049827,16.6711166 51.9606542,16.5899812 51.8279508,16.3740969 L47.1073762,8.76031011 C47.0372778,8.6316924 46.9688824,8.51676758 46.9461294,8.40729265 L46.9279406,8.32506724 L44.3248975,8.8759843 C44.3511929,8.927554 44.3563702,8.95493977 44.3595039,8.96904139 C44.3737416,9.0372333 44.3727878,9.166396 44.3526916,9.3431091 L43.2176283,18.1964763 C43.1849974,18.4473081 43.1502547,18.5546712 43.0529071,18.7045435 L44.7217132,18.350981 C44.6960309,18.2994113 44.6736866,18.2609895 44.6705529,18.2474329 C44.6561109,18.178696 44.657269,18.0493289 44.680022,17.8871262 L44.928943,15.8851725 Z M45.1154634,14.398439 L45.1154634,14.398439 L45.3910204,11.5740268 L46.7686693,14.0481465 L45.1154634,14.398439 Z M53.5315677,7.48598657 L53.5315677,7.48598657 C53.6134513,7.6275478 53.6263947,7.71195317 53.6216942,7.95038642 L53.4742082,16.3740969 C53.4709383,16.584395 53.4548613,16.6817439 53.3680046,16.8348862 L58.1540453,16.9182697 C60.603812,16.9603702 62.2273844,15.1098557 62.2777953,12.2229059 C62.3309312,9.19500799 60.7111736,7.61072122 57.5012238,7.55492784 L53.5315677,7.48598657 Z M56.6582713,15.4757485 L56.6582713,15.4757485 L56.7725815,8.95841408 L57.0684392,8.96345524 C58.3069811,8.98505048 59.0042869,10.188934 58.9676368,12.2771324 C58.9305779,14.3799093 58.2488723,15.5036112 57.0103303,15.4819478 L56.6582713,15.4757485 Z M66.0879758,8.52937048 L66.0879758,8.52937048 C66.1410435,8.68421584 66.1345037,8.78326783 66.0870221,9.00262642 L64.3282257,17.2434927 C64.2841502,17.4491584 64.2500207,17.5422155 64.1355061,17.6758743 L67.4265222,18.3721675 C67.3761794,18.2038337 67.3829235,18.1049179 67.4265222,17.8989116 L69.1864766,9.65804536 C69.2330727,9.43889114 69.2672022,9.3459703 69.3791962,9.2262768 L66.0879758,8.52937048 Z M78.2380992,12.5959517 L78.2380992,12.5959517 C76.9709456,11.9533401 75.7130567,11.7238992 74.6282,11.9604931 C73.4303273,12.20206 72.346288,13.1471413 71.6175095,14.570724 C70.8693841,16.0323199 70.7025512,17.2533025 71.0588338,18.4411088 C71.4278554,19.60405 72.2141978,20.4139055 73.7198495,21.17805 C76.7175966,22.6991179 79.0473989,22.0058903 80.4987568,19.1705102 C81.9238192,16.3853373 81.1355694,14.0661312 78.2380992,12.5959517 Z M77.6495175,13.7764688 L77.6495175,13.7764688 C78.7030378,14.3109681 78.6627091,15.5020443 77.5187897,17.737867 C76.4321618,19.8606723 75.4751035,20.5873487 74.4343223,20.0587762 C73.3681993,19.5182821 73.4023288,18.3397406 74.5526517,16.0915876 C75.639484,13.9681692 76.5957248,13.2415609 77.6495175,13.7764688 Z M84.841045,21.5457141 L84.841045,21.5457141 L81.3650072,25.2566211 C81.2114583,25.420595 81.1549163,25.5020711 81.1205142,25.662162 L79.9361981,24.5629847 C80.1034397,24.5069869 80.1813042,24.4447899 80.3257247,24.2911027 L86.0962771,18.1294425 C86.2598401,17.9554543 86.306913,17.8844012 86.3413151,17.7245147 L88.3281868,19.5692387 C88.2630613,19.7007857 88.236834,19.7907773 88.1972546,20.0997186 L87.5480437,26.5695708 L91.0912506,22.7864526 C91.2450039,22.6224787 91.3014097,22.5407982 91.3456214,22.3706931 L92.519651,23.4605375 C92.3808166,23.485062 92.3416459,23.5063167 92.1303969,23.7322833 L86.3598445,29.8938753 C86.2540497,30.0064839 86.1974396,30.1075115 86.1148065,30.2994162 L84.0960533,28.4249221 C84.1611787,28.2939882 84.1882235,28.2039967 84.2070935,27.8956684 L84.841045,21.5457141 Z" id="Fill-21" fill="#FEFEFE"></path>
                    <path d="M22.6580767,91.998039 L23.7703189,90.9654868 C23.574125,90.8793783 23.5158118,90.8378228 23.2467946,90.5508854 L21.9122675,89.1255315 L27.4005187,84.0294635 C27.5655804,83.8769344 27.6470554,83.8203235 27.8075529,83.7863297 L25.5124932,81.3354403 C25.4671234,81.4928062 25.404791,81.5700586 25.2402061,81.7232009 L19.0614614,87.4592237 C18.8969447,87.6118209 18.8148566,87.6689768 18.6442088,87.712576 L22.6580767,91.998039 Z M31.3220801,86.9529277 L31.3220801,86.9529277 L34.0446108,88.9225907 C33.892833,88.9863546 33.8236883,89.0574077 33.6918024,89.2390938 L28.7180151,96.0552192 C28.5938952,96.2253243 28.5471629,96.313204 28.5245461,96.4871921 L25.8019473,94.5180741 C25.9616955,94.4425248 26.0307721,94.3714717 26.1547557,94.2009579 L31.128543,87.3853093 C31.2614507,87.2035551 31.3073655,87.1162885 31.3220801,86.9529277 Z M36.0030753,90.3264857 L36.0030753,90.3264857 L35.3187129,91.7877409 C35.5873214,91.8502785 35.7203653,91.8972158 35.9119269,91.9858449 L37.3162118,92.6379939 L34.1981597,99.2951183 C34.1029239,99.4982635 34.0486981,99.5817151 33.9121799,99.6728647 L36.9616322,101.089294 C36.9510732,100.913535 36.9796167,100.818911 37.0689939,100.628369 L40.1871141,93.970972 L41.7181757,94.6819799 C41.8844636,94.7586873 41.9806531,94.8183637 42.1478948,94.9581537 L42.832189,93.4973073 L36.0030753,90.3264857 Z M49.040499,94.7383864 L49.040499,94.7383864 C47.6443889,94.4688206 46.3723986,94.5935552 45.3946991,95.1187896 C44.3098423,95.679789 43.5294948,96.88558 43.2234187,98.4545389 C42.9093041,100.064508 43.0869005,101.283924 43.7575702,102.327717 C44.4345753,103.343987 45.4143866,103.907507 47.0729662,104.228439 C50.376593,104.86778 52.4247072,103.562188 53.0341344,100.438508 C53.6331389,97.370417 52.2332819,95.3565416 49.040499,94.7383864 Z M48.802069,96.0351227 L48.802069,96.0351227 C49.9629509,96.2595224 50.2536312,97.4156512 49.7725475,99.8790754 C49.3160561,102.217969 48.5977685,103.179128 47.4507155,102.957044 C46.2758684,102.729375 45.982327,101.587484 46.4664762,99.1105029 C46.9223545,96.7706552 47.641119,95.8101098 48.802069,96.0351227 Z M57.5841974,100.037054 L57.5841974,100.037054 L59.7726448,104.458833 C59.8345003,104.592083 59.8796658,104.712935 59.8952659,104.824181 L59.906915,104.907428 L62.4033458,104.55809 C62.3815465,104.504204 62.3772547,104.47675 62.3749386,104.462852 C62.3631533,104.379469 62.3733717,104.250851 62.4083869,104.090147 L63.3149661,99.2346925 L64.4158999,103.809 C64.4453971,103.918475 64.4548662,103.98803 64.4670602,104.070664 C64.470875,104.098663 64.4824559,104.182114 64.4803441,104.26761 L67.8266759,103.799327 C67.7115483,103.688149 67.6698571,103.594683 67.5947176,103.364084 L65.3159393,95.1754005 C65.2875321,95.0801634 65.2821503,95.0382673 65.264779,94.9135327 L65.2506776,94.7171318 L62.5460632,95.0958319 C62.5660914,95.1356162 62.5699744,95.1636151 62.5718818,95.1771036 C62.5836671,95.2603509 62.5730399,95.3889686 62.5408178,95.5635698 L61.5150235,101.086365 L59.0273124,96.0552192 C58.9637538,95.9086168 58.9202914,95.8012537 58.9100729,95.7319037 C58.9085061,95.7180065 58.9147053,95.6603056 58.9211088,95.6033541 L56.1461917,95.9914553 L56.1876785,96.1839731 C56.2035511,96.2946743 56.2089329,96.3367748 56.2108403,96.4495197 L56.2176526,104.956069 C56.2085241,105.198385 56.1948314,105.299208 56.1147189,105.438453 L57.8298485,105.19784 C57.7705816,105.078691 57.7265742,104.971873 57.7107016,104.860491 L57.6954421,104.749245 L57.5841974,100.037054 Z M68.4160069,93.7187777 L68.4160069,93.7187777 C68.5475522,93.8172847 68.5967369,93.9028482 68.6818905,94.1108301 L71.8515116,101.922176 C71.9301254,102.117419 71.9544453,102.213541 71.934349,102.387938 L77.5081626,100.145984 L76.9547324,98.7810562 C76.8058157,98.9013628 76.8058157,98.9013628 76.4534161,99.0429241 L74.4296899,99.8574802 L73.438434,97.4135394 L75.5270813,96.5733006 C75.7619008,96.4786766 75.8325442,96.4653244 76.0052357,96.4414129 L75.4726511,95.128872 C75.3372909,95.2437287 75.3105868,95.254356 75.0234489,95.3700302 L72.947813,96.2046828 L71.9355071,93.7091041 L74.0373021,92.8635517 C74.2069962,92.7957685 74.3033901,92.7715846 74.5014914,92.7370458 L73.9907742,91.4760746 L68.4160069,93.7187777 Z M72.4696586,88.7014609 L72.4696586,88.7014609 L71.6638331,91.6561939 L70.3451105,92.1864694 L67.7441791,90.6024551 L69.3627786,89.9512599 L70.6471673,90.946344 L70.8767414,89.3422332 L72.4696586,88.7014609 Z M81.9561094,92.819135 L81.9561094,92.819135 L84.0910803,95.7454603 C84.2152002,95.9153611 84.2845492,95.9864142 84.4438886,96.0619634 L81.7099133,98.0393926 C81.7037142,97.887749 81.6657016,97.8118591 81.5165806,97.6075559 L76.542589,90.7914986 C76.4269163,90.6325658 76.3379478,90.5582428 76.1898487,90.4747912 L80.0059559,87.7146879 C81.4408961,86.6760045 82.8744739,86.8521045 83.8427043,88.1791558 C84.5212762,89.109318 84.5913747,89.8728494 84.1017075,90.9900113 L87.7584752,93.0921751 C87.990638,93.219226 88.0975909,93.2460668 88.2827489,93.2852379 L85.3209707,95.4275948 C85.3076186,95.3850855 85.2988988,95.3739132 85.291201,95.3627409 C85.2495098,95.3057213 85.1440555,95.2089855 84.9911197,95.0942651 L81.9561094,92.819135 Z M81.3897358,92.067934 L81.3897358,92.067934 L81.572237,91.9360464 C82.0505277,91.5895688 81.994122,91.0587482 81.3982512,90.2420803 C80.7609617,89.3688696 80.2575337,89.109318 79.8252259,89.4220062 L79.585774,89.5955856 L81.3897358,92.067934 Z M79.3478208,84.3092479 L79.3478208,84.3092479 L77.9586591,85.3140056 L78.1254921,86.9260869 L76.6370754,86.2699186 L75.2248882,87.2918435 L78.1340074,88.2021135 L79.2845346,87.3701859 L79.3478208,84.3092479 Z M84.3550564,83.9551405 L84.3550564,83.9551405 C84.5151452,83.9892705 84.5969607,84.0458814 84.7616819,84.1990236 L90.9507131,89.9451287 C91.1052158,90.088393 91.1671395,90.165441 91.2230002,90.3322762 L93.5179917,87.8821361 C93.3473439,87.8384688 93.2652559,87.7813129 93.1105488,87.638253 L86.9227438,81.8921479 C86.7574777,81.7396187 86.6952815,81.6623664 86.6497073,81.5050004 L84.3550564,83.9551405 Z M92.428162,73.1780257 L92.428162,73.1780257 L94.1892745,74.1502884 C93.0725363,74.6236124 92.4994185,75.0447537 92.144839,75.6823923 C91.4892925,76.8594351 92.2019941,78.1821946 94.0364749,79.1948547 C95.1327763,79.8000664 95.949229,80.0103645 96.7235817,79.8923742 C97.3260604,79.7920959 97.8647761,79.4325386 98.1515734,78.9173184 C98.4858523,78.3166029 98.5520678,77.648036 98.3761064,76.4606384 L100.07584,77.3985667 C99.9186808,78.4658621 99.6604951,79.1892686 99.1078142,80.1827858 C97.5106734,83.051751 95.3140513,83.6666363 92.3955311,82.0561218 C90.9673351,81.2672484 90.2346736,80.4143386 89.9396334,79.2099101 C89.6403015,77.9547293 89.8797534,76.7727135 90.7469576,75.2152675 C91.2450039,74.3204616 91.6903231,73.7805125 92.428162,73.1780257 Z M93.0966518,70.6547207 L93.0966518,70.6547207 C93.2569449,70.6175932 93.3550418,70.6351691 93.5692201,70.7045192 L101.61678,73.3078015 C101.81781,73.3728597 101.90746,73.4163227 102.028719,73.5439867 L103.885953,67.85095 L102.480578,67.3962238 C102.477103,67.5869704 102.477103,67.5869704 102.359523,67.9467321 L101.685584,70.0136077 L99.1678986,69.199256 L99.8638418,67.065619 C99.9427962,66.8261639 99.9773345,66.7636263 100.069437,66.6164789 L98.7171295,66.1790561 C98.7191051,66.3563142 98.7100447,66.3831549 98.6144002,66.6762916 L97.922953,68.79644 L95.3513827,67.9645124 L96.0519583,65.8181363 C96.1085003,65.6447612 96.1523714,65.5559278 96.2537382,65.3819397 L94.9544988,64.9618884 L93.0966518,70.6547207 Z" id="Fill-22" fill="#FEFEFE"></path>
                    <path d="M56.1253461,20.8078654 C68.8116646,20.8078654 79.938378,27.4543625 86.191036,37.438789 L84.7389288,37.438789 C78.6323944,28.1586262 68.0980094,22.0267362 56.1253461,22.0267362 C38.1338225,22.0267362 23.3837216,35.8732362 22.0410878,53.4444724 L20.7752967,54.0606521 C21.8173042,35.5247149 37.2476802,20.8078654 56.1253461,20.8078654 Z M91.1584879,61.1977086 L91.1584879,61.1977086 C88.6597408,78.230835 73.9258531,91.316188 56.1253461,91.316188 C44.6003182,91.316188 34.3609053,85.8290215 27.8946139,77.3383453 L29.396587,77.2743771 C35.6605534,85.0884478 45.3060712,90.0972491 56.1253461,90.0972491 C72.9957034,90.0972491 87.0131428,77.9232561 89.8031152,61.9202976 L91.1584879,61.1977086 Z" id="Fill-23" fill="#FEFEFE"></path>
                    <path d="M7.25467737,69.0679133 C6.95868348,62.6019442 20.926257,53.7055228 39.9547469,47.1354605 C40.1716502,48.010783 40.4805874,48.7946153 40.8851692,49.4832105 C29.3894341,54.2943167 21.4727387,60.5322073 21.4727387,65.591829 C21.4727387,72.7408072 37.2816054,74.9001269 56.6629037,70.3972809 C76.0446108,65.8944349 91.85266,56.3908943 91.85266,49.2422567 C91.85266,44.3222888 84.3683404,41.7664887 73.3882274,42.1158275 C73.4950441,41.2188416 73.5551284,40.274169 73.5669137,39.2835129 C92.0272589,37.1336625 105.783447,39.4639047 106.07113,45.7663087 C106.445738,53.9810835 84.5573814,65.9150764 57.3447455,72.333972 C30.1313604,78.7489845 7.62874007,77.2833013 7.25467737,69.0679133 Z M25.5131064,81.3354403 L25.5131064,81.3354403 L27.8083022,83.785376 C27.6469191,83.8199148 27.5653761,83.8769344 27.4003143,84.0290548 L21.9122675,89.1255315 L23.2466583,90.5510898 C23.5165612,90.8380272 23.5748743,90.8799233 23.7703189,90.9656912 L22.6586217,91.9983796 L18.643187,87.7129848 C18.8148566,87.6687724 18.8967403,87.6118209 19.0614614,87.4592237 L25.2404105,81.7232009 C25.4049272,81.5712167 25.4675322,81.4923975 25.5131064,81.3354403 Z M26.1549601,94.2008216 L26.1549601,94.2008216 C26.0307721,94.3714717 25.960878,94.4435467 25.8019473,94.5176653 L28.5249549,96.4871921 C28.5467542,96.3135446 28.5942358,96.2251199 28.7180151,96.0552192 L33.6920068,89.2392982 C33.8236883,89.0567946 33.8934461,88.9861502 34.0452239,88.9225907 L31.3222163,86.9534727 C31.308183,87.1166973 31.2614507,87.2026014 31.1287474,87.3853093 L26.1549601,94.2008216 Z M34.1983641,99.2947777 L34.1983641,99.2947777 L37.3162118,92.6383345 L35.9115862,91.9865942 C35.720161,91.8972158 35.5875257,91.8502785 35.3185085,91.7882859 L36.0028709,90.3259407 L42.8325978,93.4971029 L42.1478948,94.9589031 C41.9804487,94.8185681 41.8840549,94.7588917 41.7181757,94.6823887 L40.1872503,93.9706313 L37.0689939,100.628369 C36.9790717,100.81932 36.9514138,100.913535 36.961496,101.089294 L33.9123843,99.6730691 C34.0490387,99.5817151 34.1027196,99.4981272 34.1983641,99.2947777 Z M3.02165821,56.0619926 L3.02165821,56.0619926 C3.02165821,85.2568498 26.8026724,108.933272 56.1253461,108.933272 C85.4482242,108.933272 109.228966,85.2568498 109.228966,56.0619926 C109.228966,26.8667949 85.4482242,3.18935128 56.1253461,3.18935128 C26.8026724,3.18935128 3.02165821,26.8667949 3.02165821,56.0619926 Z M20.7746836,54.0604477 L20.7746836,54.0604477 L22.0412922,53.4444724 C23.3841303,35.8734406 38.1334138,22.0265318 56.1253461,22.0265318 C68.0980094,22.0265318 78.6328031,28.1588306 84.7385201,37.4389933 L86.1908998,37.4389933 C79.938378,27.4545669 68.8115283,20.8078654 56.1253461,20.8078654 C37.2478164,20.8078654 21.8174404,35.5247149 20.7746836,54.0604477 Z M49.6570792,70.7669205 L49.6570792,70.7669205 C54.0012067,70.070968 58.3456068,69.0349414 62.6910287,67.8681853 L62.6910287,58.5949712 L66.1142031,56.3526087 L62.6910287,54.4310411 C72.319652,53.3247108 72.7519597,43.9157941 72.6272268,32.9181627 C69.3106646,39.4993972 61.1821752,40.2503938 56.824968,35.2133892 L56.7820506,31.5990137 C59.2914929,30.7540062 58.6200057,28.6346753 56.6617456,28.5367814 L56.1733727,24.2690987 L55.6852723,28.5367814 C53.7277615,28.6346753 53.0563425,30.7540062 55.5639455,31.5990137 L55.5222543,35.2133892 C51.1662052,40.2503938 43.0366939,39.4993972 39.7195868,32.9181627 C39.5948538,43.9157941 40.0271616,53.3247108 49.6570792,54.4310411 L46.2331554,56.3526087 L49.6570792,58.5949712 L49.6570792,70.7669205 Z M56.1253461,90.0972491 L56.1253461,90.0972491 C45.3056625,90.0972491 35.6610984,85.0890609 29.3967914,77.2741727 L27.8944777,77.3377322 C34.3609053,85.8294302 44.6001139,91.316188 56.1253461,91.316188 C73.9254444,91.316188 88.6598771,78.2306306 91.1586922,61.1982536 L89.8032514,61.9202976 C87.0131428,77.9232561 72.9958396,90.0972491 56.1253461,90.0972491 Z M93.0964474,70.6545163 L93.0964474,70.6545163 C93.2571493,70.6172526 93.3544968,70.6350329 93.5692201,70.7049279 L101.61678,73.3080059 C101.817265,73.3726554 101.90746,73.4157096 102.028923,73.5431692 L103.885953,67.8513588 L102.480782,67.3967687 C102.477103,67.5866297 102.477103,67.5866297 102.359523,67.9473452 L101.685584,70.0136077 L99.1680348,69.1990516 L99.8638418,67.066164 C99.9423875,66.8267089 99.9777433,66.7632175 100.070254,66.6160702 L98.7171295,66.1796692 C98.7193094,66.3565185 98.7098403,66.3831549 98.614264,66.6762916 L97.9230893,68.7966444 L95.3513827,67.9641718 L96.0519583,65.8179319 C96.1082959,65.6448975 96.152167,65.5559278 96.2535339,65.3820759 L94.9547032,64.9627059 L93.0964474,70.6545163 Z M46.5187946,75.8909873 L46.5187946,75.8909873 L51.5989898,77.8440963 L61.0892556,77.8187542 L65.8288364,75.8909873 L62.6910287,73.328443 L62.6910287,72.0601144 C57.4762908,73.3624368 52.302086,74.4355227 47.1400071,75.4238625 L46.5187946,75.8909873 Z M45.3955165,95.118994 L45.3955165,95.118994 C46.3733523,94.5933509 47.6437758,94.4692293 49.0407034,94.738182 C52.2332819,95.3563373 53.6334795,97.370417 53.0331126,100.438508 C52.4247072,103.562052 50.376593,104.86778 47.0733829,104.228439 C45.4145909,103.907099 44.4345753,103.344396 43.7579789,102.328057 C43.0869005,101.283584 42.9093041,100.064508 43.2232825,98.4541302 C43.5296991,96.8867381 44.3086842,95.6799934 45.3955165,95.118994 Z M56.2174482,104.956273 L56.2174482,104.956273 L56.2110447,96.4493153 C56.2089329,96.3371154 56.2035511,96.2946743 56.1876785,96.1836325 L56.1465323,95.9914553 L58.9212451,95.6033541 C58.915114,95.6608506 58.9087105,95.7180065 58.9108223,95.7321081 C58.9209045,95.8022075 58.9630044,95.9084124 59.0266993,96.0552192 L61.5150235,101.08657 L62.5414309,95.5637061 C62.5730399,95.3885598 62.5838714,95.2601465 62.5718818,95.1765586 C62.5707237,95.1638195 62.5662957,95.1362293 62.5450414,95.0962407 L65.2504732,94.7171318 L65.2649153,94.9135327 C65.282491,95.0381311 65.2882814,95.0798228 65.3155306,95.1749918 L67.5947176,103.364084 C67.6696527,103.594887 67.7107989,103.687536 67.8270847,103.798986 L64.4803441,104.267814 C64.4832734,104.182114 64.4703301,104.098254 64.4664471,104.070868 C64.4552749,103.987417 64.4453971,103.91868 64.4158999,103.809205 L63.3155792,99.2344882 L62.4085231,104.089807 C62.3743936,104.250851 62.3637664,104.379265 62.3749386,104.462852 C62.3780041,104.477363 62.3816827,104.504612 62.4033458,104.557681 L59.9065062,104.907224 L59.8962878,104.824385 C59.8800745,104.712186 59.8345003,104.591879 59.7728491,104.459038 L57.5841974,100.036441 L57.6960552,104.749245 L57.7111104,104.860491 C57.7265742,104.971533 57.7709904,105.078691 57.8294398,105.197431 L56.1143102,105.438453 C56.1952402,105.299413 56.2081835,105.198589 56.2174482,104.956273 Z M68.6818905,94.1108301 L68.6818905,94.1108301 C68.5969413,93.9033932 68.5473478,93.8172847 68.4160069,93.7189821 L73.9907742,91.4754614 L74.5011508,92.7366371 C74.3035945,92.771789 74.2069962,92.7953598 74.0368934,92.8635517 L71.9351665,93.7087635 L72.9471999,96.2046828 L75.0231083,95.3696895 C75.3104505,95.2549691 75.3372909,95.2445461 75.4729917,95.1292126 L76.005372,96.4421623 C75.832408,96.4653244 75.7619008,96.4790854 75.5272856,96.5728918 L73.438434,97.413335 L74.4298943,99.8582295 L76.4536205,99.0431284 C76.8064289,98.9008179 76.8064289,98.9008179 76.9547324,98.7810562 L77.5079582,100.146189 L71.9342128,102.388483 C71.9546496,102.214154 71.9301254,102.117214 71.851171,101.921972 L68.6818905,94.1108301 Z M70.8774907,89.3422332 L70.8774907,89.3422332 L72.4694542,88.7016653 L71.6644462,91.6560576 L70.3453148,92.1864694 L67.7455416,90.6022508 L69.3627786,89.9514642 L70.6465542,90.9460034 L70.8774907,89.3422332 Z M76.189985,90.4743824 L76.189985,90.4743824 L80.0051384,87.7146879 C81.4403511,86.6767539 82.8743376,86.8515595 83.8421593,88.1783383 C84.5212762,89.109318 84.5910341,89.8732581 84.1020481,90.9900113 L87.7573171,93.091562 C87.9907742,93.219226 88.0977953,93.2462711 88.2824082,93.2856467 L85.3209707,95.4280035 C85.3070055,95.3852899 85.2988988,95.3735045 85.2900429,95.3627409 C85.2497141,95.3055851 85.1446687,95.2091899 84.9913241,95.0946738 L81.9561094,92.81968 L84.0910803,95.7456647 C84.2146552,95.9153611 84.284958,95.9854604 84.4428668,96.0621678 L81.7099133,98.0393926 C81.7029648,97.8876128 81.6654972,97.8115185 81.5152182,97.6072153 L76.5432021,90.7920436 C76.4269163,90.6319527 76.3377435,90.5582428 76.189985,90.4743824 Z M77.9590679,85.31421 L77.9590679,85.31421 L79.3476164,84.3094523 L79.2843303,87.3701859 L78.1338031,88.2017048 L75.2240707,87.2914348 L76.6378247,86.270668 L78.1261052,86.9258825 L77.9590679,85.31421 Z M84.3552608,83.9547317 L84.3552608,83.9547317 L86.6499117,81.505341 C86.6950771,81.6627751 86.7574777,81.7396187 86.9227438,81.892761 L93.1113663,87.6386617 C93.2656646,87.7817217 93.3471396,87.8386731 93.5188092,87.8819317 L91.2230002,90.3320718 C91.1677526,90.1661904 91.104807,90.0879843 90.9507131,89.9454693 L84.7613412,84.1995686 C84.5966201,84.0458814 84.5147364,83.9887255 84.3552608,83.9547317 Z M90.7477751,75.2151313 L90.7477751,75.2151313 C89.8793447,76.7725091 89.6403015,77.9545249 89.939429,79.2095013 C90.2346736,80.4141342 90.9673351,81.267044 92.3962805,82.0564625 C95.3140513,83.6662275 97.5102647,83.0515466 99.1078142,80.1825815 C99.6614488,79.1888598 99.9176589,78.4658621 100.076249,77.3991117 L98.3761064,76.4598891 C98.5530215,77.6488535 98.4858523,78.3161941 98.1517778,78.9171822 C97.8647761,79.4325386 97.3260604,79.7920959 96.7239223,79.8927148 C95.949229,80.0101602 95.1321632,79.800407 94.0372924,79.1953997 C92.2019941,78.1826034 91.4892925,76.8594351 92.1454521,75.6825967 C92.5001679,75.0447537 93.0727406,74.6243618 94.1892745,74.1502884 L92.4272083,73.1774126 C91.6903231,73.7799675 91.2441864,74.3200528 90.7477751,75.2151313 Z M17.1947584,46.6453099 L17.1947584,46.6453099 C17.4204495,46.7225622 17.4959978,46.7635046 17.6022013,46.888103 L18.6978897,43.7209601 C18.5368472,43.7549539 18.4526473,43.7406479 18.226275,43.6631911 L14.8043268,42.4904402 L15.5014281,40.474998 L18.9232401,41.6481577 C19.1359879,41.721527 19.223662,41.7673062 19.3298656,41.8918365 L20.4257582,38.7235354 C20.2649201,38.7575292 20.1809246,38.7439726 19.953803,38.6661752 L11.9537251,35.9226941 C11.7393424,35.8502785 11.6507146,35.8054531 11.5452604,35.6793559 L10.4507983,38.8478613 C10.6326863,38.8364847 10.7491083,38.8457495 10.9219361,38.9056303 L14.1564101,40.0136637 L13.4595131,42.0289015 L10.2248347,40.9206638 C10.0526201,40.8610555 9.95465936,40.7982453 9.8171874,40.6775981 L8.72252094,43.844741 C8.88254157,43.8114966 8.97988915,43.8298219 9.19325,43.9022375 L17.1947584,46.6453099 Z M17.4333929,34.183017 L17.4333929,34.183017 C16.1116047,33.227104 15.4888254,32.2925138 15.3440643,31.0608358 C15.2003932,29.7784055 15.5826987,28.6346753 16.6335622,27.1940616 C17.2383571,26.3656763 17.7452594,25.8842455 18.551698,25.3757696 L20.1812652,26.5539023 C19.0147291,26.8878451 18.3946747,27.2377289 17.964615,27.8265228 C17.1696211,28.9156177 17.7151491,30.3150847 19.4117492,31.5424709 C20.4257582,32.2756872 21.2112831,32.5836749 21.9939468,32.5616709 C22.6041915,32.5346257 23.182691,32.2424428 23.5306626,31.7668707 C23.9359937,31.2109125 24.0833435,30.5554935 24.0539825,29.3551524 L25.6266672,30.4925471 C25.3393249,31.5327973 24.9948275,32.2190764 24.3247028,33.1381344 C22.3881057,35.7915558 20.1332386,36.1360578 17.4333929,34.183017 Z M32.2858144,25.0191416 L32.2858144,25.0191416 C31.3406095,25.6781711 30.5795408,25.9657216 29.2676304,26.1785403 L28.5778182,24.3662432 C30.0688236,24.455826 30.5156415,24.3841598 31.1965296,23.9095413 C31.7615407,23.5163309 31.9243544,22.9405486 31.6000895,22.4815305 C31.3989227,22.1935713 31.1833819,22.105351 30.7931741,22.1381867 C30.6483449,22.1526289 30.3022807,22.223137 29.3967914,22.4264865 C28.4177976,22.6472076 27.7932471,22.637534 27.228236,22.3975339 C26.7354351,22.2109429 26.321793,21.8662365 25.9981412,21.4064691 C25.393142,20.5464063 25.2541713,19.4447084 25.6544613,18.4981284 C25.9056985,17.877657 26.4963919,17.2266661 27.291999,16.671321 C28.1001406,16.1084141 28.7657692,15.8328534 29.8025313,15.6228959 L30.5023575,17.3253774 C29.3692016,17.2784402 28.6568408,17.4144152 28.1491891,17.7671602 C27.7110228,18.0741941 27.5932383,18.5668653 27.8600756,18.9457017 C28.1587944,19.370726 28.2601613,19.3684098 30.0784289,18.922744 C31.6856519,18.5197237 32.6453669,18.809931 33.4444482,19.9465764 C34.1394378,20.9335538 34.338561,22.0950643 33.9745123,23.068962 C33.7236839,23.7395725 33.1159597,24.4396125 32.2858144,25.0191416 Z M32.9709943,14.8528246 L32.9709943,14.8528246 L32.3123142,13.379784 L39.1958581,10.3289284 L39.8547426,11.8013559 C39.6384524,11.8353497 39.5297283,11.8681853 39.3635085,11.941759 L37.8192311,12.6274249 L40.8204524,19.3373453 C40.9058104,19.5298632 40.9592869,19.6138598 41.0992794,19.7202691 L38.0258478,21.082813 C38.0451947,20.9206102 38.0177411,20.8254413 37.9260478,20.620525 L34.9259845,13.9098552 L33.5106637,14.5374796 C33.3169903,14.6232475 33.1940285,14.6927337 32.9709943,14.8528246 Z M44.7219176,18.3499592 L44.7219176,18.3499592 L43.0527709,18.7047479 C43.1510041,18.5548755 43.1849974,18.4475124 43.2176283,18.1968169 L44.3526916,9.34344972 C44.3718341,9.16619162 44.3739459,9.03743767 44.3597082,8.96924576 C44.3560296,8.95575725 44.3511929,8.92714526 44.3246931,8.87557555 L46.9285537,8.32506724 L46.9461294,8.40708828 C46.9688824,8.51676758 47.0364603,8.6316924 47.1073762,8.76031011 L51.8278146,16.3743013 C51.9602454,16.5899812 52.0494864,16.6707079 52.2001061,16.7682611 L48.673453,17.5146253 C48.6763142,17.4568564 48.6670495,17.415914 48.6641883,17.4024255 C48.6457951,17.3205407 48.596406,17.2158344 48.5228333,17.0737282 L47.5188384,15.3371166 L44.928943,15.8849681 L44.6808395,17.8867174 C44.657269,18.0495333 44.6561109,18.1782872 44.671166,18.2476373 C44.6734822,18.2613301 44.6956903,18.299752 44.7219176,18.3499592 Z M53.622103,7.95025017 L53.622103,7.95025017 C53.627144,7.71229379 53.6135876,7.62734343 53.5315677,7.48659969 L57.5010194,7.55492784 C60.7115142,7.6109256 62.3301137,9.19534861 62.2786128,12.2227015 C62.2275888,15.1100601 60.6034032,16.9601658 58.1540453,16.9182697 L53.3675959,16.8350906 C53.4545207,16.6821527 53.4709383,16.5840544 53.4745488,16.3743013 L53.622103,7.95025017 Z M66.0873627,9.00262642 L66.0873627,9.00262642 C66.1347081,8.78326783 66.141861,8.68421584 66.0873627,8.52896173 L69.3788556,9.22648118 C69.2669979,9.34617467 69.2332089,9.43909551 69.1864766,9.65804536 L67.4267265,17.8990478 C67.3829235,18.105531 67.3761794,18.2038337 67.4267265,18.3716226 L64.1353018,17.6758743 C64.2500207,17.5422155 64.2843546,17.448954 64.328362,17.2434927 L66.0873627,9.00262642 Z M71.0586295,18.4411088 L71.0586295,18.4411088 C70.7025512,17.2531662 70.8692479,16.0319111 71.6171008,14.5705197 C72.3458793,13.1463238 73.4303273,12.2016513 74.6284043,11.9604931 C75.7132611,11.7233542 76.9705369,11.9531357 78.2380992,12.5952024 C81.1355694,14.0662674 81.924841,16.3845198 80.4987568,19.1707146 C79.0475352,22.0052772 76.7171879,22.6987773 73.7198495,21.1778457 C72.2135847,20.4137012 71.4282642,19.6038456 71.0586295,18.4411088 Z M81.120378,25.662162 L81.120378,25.662162 L79.9370155,24.5624397 C80.1038485,24.5067826 80.1808954,24.4444493 80.3257247,24.291307 L86.0964815,18.1294425 C86.2598401,17.954705 86.3075261,17.8850143 86.3417238,17.7239016 L88.3283231,19.5696474 C88.2627207,19.7011264 88.2370384,19.7903685 88.1972546,20.099923 L87.548793,26.5690258 L91.0922724,22.7856351 C91.2441864,22.6222743 91.3014097,22.5401851 91.3456214,22.3706931 L92.519651,23.4603331 C92.3816341,23.485062 92.3416459,23.5067254 92.1299882,23.7316701 L86.3592314,29.8938753 C86.2540497,30.0064839 86.1970308,30.1071028 86.1151471,30.2998249 L84.095917,28.4255352 C84.1603612,28.2936476 84.1872017,28.2039967 84.2075023,27.8954641 L84.8412494,21.5459185 L81.365416,25.2566211 C81.2116626,25.420595 81.155325,25.5022755 81.120378,25.662162 L81.120378,25.662162 Z" id="Fill-24" fill="#3C2A98"></path>
                    <path d="M56.7722409,8.95861845 L56.6588844,15.4754079 L57.0099216,15.4821522 C58.2494854,15.5034068 58.9305779,14.3801137 58.9668193,12.2771324 C59.0039463,10.1885253 58.3069811,8.98505048 57.0684392,8.96284212 L56.7722409,8.95861845 Z" id="Fill-25" fill="#3C2A98"></path>
                    <polygon id="Fill-26" fill="#3C2A98" points="46.7682606 14.0483509 45.3912248 11.5740268 45.1162809 14.398439"></polygon>
                    <path d="M74.5523111,16.0915876 C73.4025332,18.3397406 73.3672455,19.5190315 74.4345266,20.0582312 C75.4745585,20.5871443 76.4323662,19.8602635 77.518926,17.7372539 C78.6620959,15.501295 78.7026972,14.3111724 77.6495175,13.7760601 C76.5957248,13.240539 75.6396884,13.9680329 74.5523111,16.0915876" id="Fill-27" fill="#3C2A98"></path>
                    <path d="M49.7725475,99.8792798 C50.2530181,97.4159918 49.9628146,96.2595224 48.8022052,96.0347139 C47.6413233,95.8099736 46.9219458,96.7712002 46.4672256,99.111116 C45.9819182,101.588097 46.2758684,102.729715 47.4498981,102.956227 C48.5977685,103.179468 49.3157155,102.217629 49.7725475,99.8792798" id="Fill-28" fill="#3C2A98"></path>
                    <path d="M79.585774,89.5949725 L81.3889865,92.0675253 L81.5720326,91.936387 C82.050119,91.5892282 81.9947351,91.0589526 81.3974337,90.2409222 C80.7615748,89.3686652 80.257193,89.109318 79.8252259,89.4215974 L79.585774,89.5949725 Z" id="Fill-29" fill="#3C2A98"></path>
                    <path d="M54.7346176,54.0340157 C50.5849809,51.8744917 47.692688,46.0862861 48.4444239,39.8340894 C47.3556841,39.9254434 47.1009727,39.8406293 46.0120967,39.5015772 C46.2735523,47.4718558 49.7072857,52.256053 53.1370681,54.2608679 L51.9958056,56.5188989 L53.0786868,58.7210684 L53.6891359,68.9449499 L54.2205624,58.6050536 L53.364871,56.5188989 L54.7346176,54.0340157 Z" id="Fill-30" fill="#3C2A98"></path>
                    <path d="M56.1735771,24.2686899 L55.6852723,28.5357595 C53.7279659,28.6340621 53.0564787,30.7542106 55.564763,31.5984687 L55.522663,35.2130486 C51.1660008,40.2503938 43.0363533,39.4996016 39.7201318,32.9179583 C39.5942407,43.9159985 40.0273659,53.3243021 49.6569429,54.4312455 L46.232951,56.3522681 L49.6569429,58.5949712 L49.6569429,70.7670568 C54.001343,70.0707636 58.3456068,69.034737 62.6902794,67.8683897 L62.6902794,58.5949712 L66.1148162,56.3522681 L62.6902794,54.4312455 C72.3197882,53.3243021 72.7521641,43.9159985 72.6276355,32.9179583 C69.3112777,39.4996016 61.1819708,40.2503938 56.8247636,35.2130486 L56.7818462,31.5984687 C59.2906754,30.7542106 58.6202101,28.6340621 56.6617456,28.5357595 L56.1735771,24.2686899 Z M47.1400071,75.4240669 L47.1400071,75.4240669 L46.5183859,75.8911917 L51.5991261,77.8434832 L61.0890512,77.8193673 L65.8289727,75.8911917 L62.6902794,73.327898 L62.6902794,72.0609319 C57.4766995,73.3631861 52.302086,74.4349777 47.1400071,75.4240669 Z M73.3882274,42.1160318 L73.3882274,42.1160318 C73.4948397,41.2186372 73.5552647,40.2743734 73.5672543,39.2837173 C92.0274633,37.1346163 105.783447,39.4644497 106.07113,45.765968 C106.445738,53.9810835 84.5579945,65.9156895 57.3446093,72.3333589 C30.1310198,78.7489845 7.62948942,77.2833013 7.25454112,69.0677771 C6.95868348,62.6017398 20.926257,53.7059315 39.9557688,47.1352561 C40.1716502,48.0111918 40.4809962,48.7944109 40.8843517,49.4836193 C29.3894341,54.2943167 21.4729431,60.5326161 21.4729431,65.5916247 C21.4729431,72.741216 37.2814691,74.8997863 56.6629037,70.3968721 C76.0444064,65.8947755 91.85266,56.3908943 91.85266,49.241848 C91.85266,44.3220844 84.3691579,41.7662843 73.3882274,42.1160318 Z M46.0122329,39.5013728 L46.0122329,39.5013728 C47.1009727,39.8402887 47.3554798,39.9254434 48.4446283,39.8340894 C47.692688,46.0864904 50.5851852,51.8744917 54.7344132,54.0336069 L53.364871,56.5196482 L54.2207668,58.6048492 L53.6893402,68.9447455 L53.0797086,58.7207278 L51.9963506,56.5196482 L53.1370681,54.2607316 C49.7072857,52.2558486 46.2737566,47.4720601 46.0122329,39.5013728 L46.0122329,39.5013728 Z" id="Fill-31" fill="#FEFEFE"></path>
                    <path d="M14.8045311,42.4900995 L15.5014281,40.4752023 L18.9230357,41.6482939 C19.1358516,41.721527 19.2246838,41.7668974 19.3300699,41.8916321 L20.4257582,38.7237398 C20.2652607,38.7578698 20.1809246,38.7437682 19.9535986,38.6661752 L11.9535207,35.9228985 C11.7399555,35.8502785 11.6514639,35.8051124 11.5460778,35.6795603 L10.4501851,38.8475207 C10.6330269,38.8362803 10.7486996,38.8463626 10.9217317,38.9056303 L14.1568189,40.0142768 L13.4601262,42.0291059 L10.2248347,40.9205275 C10.0520069,40.8611917 9.95486373,40.7979047 9.81793675,40.6765762 L8.72231657,43.8448773 C8.88274594,43.8109516 8.98063851,43.8298219 9.19345436,43.9026462 L17.1947584,46.6451736 C17.4208583,46.7231753 17.4963384,46.7639134 17.6017926,46.888648 L18.6976853,43.7207557 C18.5369834,43.7549539 18.4526473,43.7408523 18.226275,43.6631911 L14.8045311,42.4900995 Z M18.5520386,25.3757696 L18.5520386,25.3757696 L20.1812652,26.5537661 C19.0145248,26.8883901 18.3946747,27.2369795 17.9644788,27.8268634 C17.1698255,28.9154134 17.7147403,30.3150847 19.4123624,31.5428797 C20.4263713,32.2758916 21.2112831,32.5840836 21.9934018,32.5611259 C22.6041915,32.5346257 23.182691,32.2428516 23.5304582,31.7666663 C23.9356531,31.2107081 24.0839566,30.5550848 24.0539825,29.3551524 L25.6260541,30.4923428 C25.3394611,31.5330017 24.9949638,32.2198938 24.3249072,33.138475 C22.3883101,35.7919646 20.1332386,36.1360578 17.4333929,34.1832214 C16.1118091,33.2273084 15.4896429,32.2919007 15.3440643,31.0602908 C15.2005294,29.7780649 15.5824944,28.6340621 16.6341753,27.1937209 C17.2380165,26.3658807 17.7458725,25.8842455 18.5520386,25.3757696 Z M29.2683798,26.1785403 L29.2683798,26.1785403 C30.5797451,25.9657216 31.339792,25.6778305 32.28561,25.0189372 C33.1159597,24.4400213 33.7236839,23.7395725 33.9739673,23.0687576 C34.3379478,22.0960862 34.1394378,20.9337581 33.4452657,19.946372 C32.6455713,18.8097947 31.6858562,18.519928 30.0782926,18.9225396 C28.26057,19.3684098 28.1587944,19.370726 27.8598712,18.9457017 C27.5932383,18.5670697 27.7112271,18.0741941 28.1491891,17.7681821 C28.6568408,17.4145515 29.3683842,17.2780314 30.5023575,17.3261268 L29.8028719,15.6228959 C28.7649518,15.833194 28.0991188,16.1087548 27.2921352,16.6716616 C26.4963919,17.2266661 25.9058347,17.877657 25.6540526,18.4981284 C25.2541713,19.4447084 25.3930057,20.5459975 25.99855,21.4068778 C26.3215886,21.8661003 26.7358438,22.2106023 27.2286447,22.3976702 C27.7927021,22.6381471 28.4177976,22.6470032 29.3972001,22.4266909 C30.302485,22.2229327 30.6483449,22.1530377 30.7927654,22.1379823 C31.1828369,22.1055554 31.3991271,22.19398 31.6012476,22.4815305 C31.9243544,22.9406849 31.7621539,23.5157859 31.1961209,23.9095413 C30.5156415,24.3840235 30.0684148,24.4565753 28.5778182,24.3660388 L29.2683798,26.1785403 Z M32.3124504,13.3801928 L32.3124504,13.3801928 L39.1958581,10.3289284 L39.8545382,11.8011515 C39.6386568,11.8358947 39.5305458,11.8687303 39.3628954,11.9427128 L37.8196398,12.6274249 L40.8202481,19.3377541 C40.9064235,19.5296588 40.9590825,19.613451 41.0994837,19.7204735 L38.0253028,21.0830173 C38.0453309,20.9208146 38.0181499,20.8250326 37.9263884,20.6203206 L34.9257801,13.9100596 L33.5105274,14.5370709 C33.3178078,14.6226344 33.1945735,14.6925294 32.9711305,14.8532334 L32.3124504,13.3801928 Z M44.928943,15.8851725 L44.928943,15.8851725 L47.5187022,15.3369123 L48.522629,17.0739326 C48.596406,17.2160388 48.646817,17.3199275 48.6641883,17.4022211 C48.6676626,17.4155733 48.6763142,17.4570607 48.6744067,17.5148297 L52.1996973,16.7684655 C52.049827,16.6711166 51.9606542,16.5899812 51.8279508,16.3740969 L47.1073762,8.76031011 C47.0372778,8.6316924 46.9688824,8.51676758 46.9461294,8.40729265 L46.9279406,8.32506724 L44.3248975,8.8759843 C44.3511929,8.927554 44.3563702,8.95493977 44.3595039,8.96904139 C44.3737416,9.0372333 44.3727878,9.166396 44.3526916,9.3431091 L43.2176283,18.1964763 C43.1849974,18.4473081 43.1502547,18.5546712 43.0529071,18.7045435 L44.7217132,18.350981 C44.6960309,18.2994113 44.6736866,18.2609895 44.6705529,18.2474329 C44.6561109,18.178696 44.657269,18.0493289 44.680022,17.8871262 L44.928943,15.8851725 Z M45.1154634,14.398439 L45.1154634,14.398439 L45.3910204,11.5740268 L46.7686693,14.0481465 L45.1154634,14.398439 Z M53.5315677,7.48598657 L53.5315677,7.48598657 C53.6134513,7.6275478 53.6263947,7.71195317 53.6216942,7.95038642 L53.4742082,16.3740969 C53.4709383,16.584395 53.4548613,16.6817439 53.3680046,16.8348862 L58.1540453,16.9182697 C60.603812,16.9603702 62.2273844,15.1098557 62.2777953,12.2229059 C62.3309312,9.19500799 60.7111736,7.61072122 57.5012238,7.55492784 L53.5315677,7.48598657 Z M56.6582713,15.4757485 L56.6582713,15.4757485 L56.7725815,8.95841408 L57.0684392,8.96345524 C58.3069811,8.98505048 59.0042869,10.188934 58.9676368,12.2771324 C58.9305779,14.3799093 58.2488723,15.5036112 57.0103303,15.4819478 L56.6582713,15.4757485 Z M66.0879758,8.52937048 L66.0879758,8.52937048 C66.1410435,8.68421584 66.1345037,8.78326783 66.0870221,9.00262642 L64.3282257,17.2434927 C64.2841502,17.4491584 64.2500207,17.5422155 64.1355061,17.6758743 L67.4265222,18.3721675 C67.3761794,18.2038337 67.3829235,18.1049179 67.4265222,17.8989116 L69.1864766,9.65804536 C69.2330727,9.43889114 69.2672022,9.3459703 69.3791962,9.2262768 L66.0879758,8.52937048 Z M78.2380992,12.5959517 L78.2380992,12.5959517 C76.9709456,11.9533401 75.7130567,11.7238992 74.6282,11.9604931 C73.4303273,12.20206 72.346288,13.1471413 71.6175095,14.570724 C70.8693841,16.0323199 70.7025512,17.2533025 71.0588338,18.4411088 C71.4278554,19.60405 72.2141978,20.4139055 73.7198495,21.17805 C76.7175966,22.6991179 79.0473989,22.0058903 80.4987568,19.1705102 C81.9238192,16.3853373 81.1355694,14.0661312 78.2380992,12.5959517 Z M77.6495175,13.7764688 L77.6495175,13.7764688 C78.7030378,14.3109681 78.6627091,15.5020443 77.5187897,17.737867 C76.4321618,19.8606723 75.4751035,20.5873487 74.4343223,20.0587762 C73.3681993,19.5182821 73.4023288,18.3397406 74.5526517,16.0915876 C75.639484,13.9681692 76.5957248,13.2415609 77.6495175,13.7764688 Z M84.841045,21.5457141 L84.841045,21.5457141 L81.3650072,25.2566211 C81.2114583,25.420595 81.1549163,25.5020711 81.1205142,25.662162 L79.9361981,24.5629847 C80.1034397,24.5069869 80.1813042,24.4447899 80.3257247,24.2911027 L86.0962771,18.1294425 C86.2598401,17.9554543 86.306913,17.8844012 86.3413151,17.7245147 L88.3281868,19.5692387 C88.2630613,19.7007857 88.236834,19.7907773 88.1972546,20.0997186 L87.5480437,26.5695708 L91.0912506,22.7864526 C91.2450039,22.6224787 91.3014097,22.5407982 91.3456214,22.3706931 L92.519651,23.4605375 C92.3808166,23.485062 92.3416459,23.5063167 92.1303969,23.7322833 L86.3598445,29.8938753 C86.2540497,30.0064839 86.1974396,30.1075115 86.1148065,30.2994162 L84.0960533,28.4249221 C84.1611787,28.2939882 84.1882235,28.2039967 84.2070935,27.8956684 L84.841045,21.5457141 Z" id="Fill-32" fill="#FEFEFE"></path>
                    <path d="M56.1253461,20.8078654 C68.8116646,20.8078654 79.938378,27.4543625 86.191036,37.438789 L84.7389288,37.438789 C78.6323944,28.1586262 68.0980094,22.0267362 56.1253461,22.0267362 C38.1338225,22.0267362 23.3837216,35.8732362 22.0410878,53.4444724 L20.7752967,54.0606521 C21.8173042,35.5247149 37.2476802,20.8078654 56.1253461,20.8078654 Z M91.1584879,61.1977086 L91.1584879,61.1977086 C88.6597408,78.230835 73.9258531,91.316188 56.1253461,91.316188 C44.6003182,91.316188 34.3609053,85.8290215 27.8946139,77.3383453 L29.396587,77.2743771 C35.6605534,85.0884478 45.3060712,90.0972491 56.1253461,90.0972491 C72.9957034,90.0972491 87.0131428,77.9232561 89.8031152,61.9202976 L91.1584879,61.1977086 Z" id="Fill-33" fill="#FEFEFE"></path>
                    <path d="M56.7722409,8.95861845 L56.6588844,15.4754079 L57.0099216,15.4821522 C58.2494854,15.5034068 58.9305779,14.3801137 58.9668193,12.2771324 C59.0039463,10.1885253 58.3069811,8.98505048 57.0684392,8.96284212 L56.7722409,8.95861845 Z" id="Fill-34" fill="#3C2A98"></path>
                    <polygon id="Fill-35" fill="#3C2A98" points="46.7682606 14.0483509 45.3912248 11.5740268 45.1162809 14.398439"></polygon>
                    <path d="M74.5523111,16.0915876 C73.4025332,18.3397406 73.3672455,19.5190315 74.4345266,20.0582312 C75.4745585,20.5871443 76.4323662,19.8602635 77.518926,17.7372539 C78.6620959,15.501295 78.7026972,14.3111724 77.6495175,13.7760601 C76.5957248,13.240539 75.6396884,13.9680329 74.5523111,16.0915876" id="Fill-36" fill="#3C2A98"></path>
                    <path d="M79.585774,89.5949725 L81.3889865,92.0675253 L81.5720326,91.936387 C82.050119,91.5892282 81.9947351,91.0589526 81.3974337,90.2409222 C80.7615748,89.3686652 80.257193,89.109318 79.8252259,89.4215974 L79.585774,89.5949725 Z" id="Fill-37" fill="#3C2A98"></path>
                    <path d="M54.7346176,54.0340157 C50.5849809,51.8744917 47.692688,46.0862861 48.4444239,39.8340894 C47.3556841,39.9254434 47.1009727,39.8406293 46.0120967,39.5015772 C46.2735523,47.4718558 49.7072857,52.256053 53.1370681,54.2608679 L51.9958056,56.5188989 L53.0786868,58.7210684 L53.6891359,68.9449499 L54.2205624,58.6050536 L53.364871,56.5188989 L54.7346176,54.0340157 Z" id="Fill-38" fill="#3C2A98"></path>
                    <path d="M55.9993869,1.26042628 C86.2258468,1.26042628 110.737683,25.7743619 110.737683,55.9997956 C110.737683,86.2258425 86.2258468,110.737871 55.9993869,110.737871 C25.7738126,110.737871 1.26211249,86.2258425 1.26211249,55.9997956 C1.26211249,25.7743619 25.7738126,1.26042628 55.9993869,1.26042628 Z M55.9993869,0 L55.9993869,0 C25.0765069,0 0,25.0786136 0,55.9997956 C0,86.9214545 25.0765069,112 55.9993869,112 C86.9198145,112 112,86.9214545 112,55.9997956 C112,25.0786136 86.9198145,0 55.9993869,0 L55.9993869,0 Z" id="Fill-39" fill="#F17E00"></path>
                </g>
            </g>
        </g>
    </g>
</svg>