<?xml version="1.0" encoding="UTF-8"?>
<svg width="58px" height="58px" viewBox="0 0 58 58" version="1.1" xmlns="http://www.w3.org/2000/svg" xmlns:xlink="http://www.w3.org/1999/xlink">
    <title>LTM_1819 2</title>
    <g id="Final" stroke="none" stroke-width="1" fill="none" fill-rule="evenodd">
        <g id="HP" transform="translate(-1007.000000, -1154.000000)">
            <g id="LTM_1819-2" transform="translate(1007.000000, 1154.000000)">
                <g id="Group-16" transform="translate(0.000000, -0.000105)">
                    <path d="M29.040515,0.64344 C44.65671,0.64344 57.316105,13.30287 57.316105,28.91903 C57.316105,44.53519 44.65671,57.19462 29.040515,57.19462 C13.424355,57.19462 0.764925,44.53519 0.764925,28.91903 C0.764925,13.30287 13.424355,0.64344 29.040515,0.64344 Z" id="Fill-1" fill="#FEFEFE"></path>
                    <path d="M29.040515,0.64344 C44.65671,0.64344 57.316105,13.30287 57.316105,28.91903 C57.316105,44.53519 44.65671,57.19462 29.040515,57.19462 C13.424355,57.19462 0.764925,44.53519 0.764925,28.91903 C0.764925,13.30287 13.424355,0.64344 29.040515,0.64344 Z" id="Stroke-3" stroke="#FEFEFE" stroke-width="0.5"></path>
                    <g id="Group-15">
                        <path d="M29.040235,0.79541 C44.569875,0.79541 57.163645,13.38995 57.163645,28.918925 C57.163645,44.44818 44.569875,57.041705 29.040235,57.041705 C13.511085,57.041705 0.917525,44.44818 0.917525,28.918925 C0.917525,13.38995 13.511085,0.79541 29.040235,0.79541 Z M29.040235,0.147875 L29.040235,0.147875 C13.15272,0.147875 0.268975,13.032495 0.268975,28.918925 C0.268975,44.80553 13.15272,57.690185 29.040235,57.690185 C44.926455,57.690185 57.81209,44.80553 57.81209,28.918925 C57.81209,13.032495 44.926455,0.147875 29.040235,0.147875 L29.040235,0.147875 Z" id="Fill-4" fill="#F17E00"></path>
                        <path d="M29.10831,12.90569 L28.86345,15.05861 C27.880055,15.10754 27.5429,16.17763 28.802515,16.60288 L28.781305,18.4268 C26.59314,20.967415 22.51074,20.588715 20.84516,17.26879 C20.78258,22.815765 20.999335,27.56159 25.835775,28.119945 L24.11612,29.089165 L25.835775,30.21998 L25.835775,36.359365 C28.017255,36.00856 30.19954,35.48601 32.38102,34.89808 L32.38102,30.21998 L34.100675,29.089165 L32.38102,28.119945 C37.216445,27.56159 37.43432,22.815765 37.371495,17.26879 C35.705915,20.588715 31.623515,20.967415 29.43549,18.4268 L29.414175,16.60288 C30.673755,16.17763 30.33765,15.10754 29.353065,15.05861 L29.10831,12.90569 Z M24.571995,38.708635 L24.571995,38.708635 L24.259165,38.94394 L26.81091,39.929225 L31.577105,39.91652 L33.95749,38.94394 L32.38102,37.65132 L32.38102,37.0125 C29.762215,37.669065 27.164235,38.20957 24.571995,38.708635 Z M37.75359,21.90776 L37.75359,21.90776 C37.806965,21.45535 37.83752,20.979245 37.84347,20.479515 C47.11469,19.395005 54.022255,20.57097 54.167225,23.748445 C54.355315,27.89276 43.36346,33.912795 29.69624,37.1497 C16.03,40.38601 4.72899,39.64639 4.54069,35.502775 C4.392535,32.241265 11.40699,27.75395 20.963845,24.43987 C21.07217,24.88115 21.227255,25.27693 21.43064,25.624165 C15.657355,28.050505 11.6816,31.19753 11.6816,33.749275 C11.6816,37.355675 19.6203,38.44421 29.35415,36.17306 C39.08779,33.90177 47.02649,29.108625 47.02649,25.502225 C47.02649,23.02083 43.26861,21.73157 37.75359,21.90776 Z M24.005205,20.589415 L24.005205,20.589415 C24.552465,20.75969 24.680145,20.802915 25.226705,20.75731 C24.84881,23.910355 26.301555,26.830685 28.385735,27.91915 L27.697775,29.17299 L28.127365,30.225055 L27.860315,35.440055 L27.55473,30.283575 L27.01006,29.17299 L27.5835,28.03353 C25.86115,27.022765 24.13635,24.61011 24.005205,20.589415 L24.005205,20.589415 Z" id="Fill-5" fill="#FEFEFE"></path>
                        <path d="M8.332765,22.09655 L8.682695,21.081025 L10.40067,21.672245 C10.507315,21.70945 10.55208,21.73227 10.605735,21.794955 L11.15548,20.197345 C11.075015,20.21439 11.032665,20.206655 10.91916,20.16777 L6.901055,18.78436 C6.7935,18.747855 6.74926,18.725035 6.695955,18.66144 L6.14614,20.259925 C6.23749,20.25331 6.295135,20.258245 6.382565,20.2888 L8.00737,20.84789 L7.657545,21.864605 L6.03274,21.304535 C5.94531,21.274785 5.897115,21.243635 5.828655,21.18263 L5.27793,22.77954 C5.358395,22.762495 5.4075,22.77261 5.51495,22.80901 L9.53316,24.192525 C9.64656,24.23232 9.68485,24.25276 9.737315,24.315445 L10.28797,22.71752 C10.20649,22.7346 10.16435,22.727845 10.050845,22.688085 L8.332765,22.09655 Z M10.214925,13.46408 L10.214925,13.46408 L11.032665,14.05887 C10.44729,14.22743 10.13558,14.40271 9.91949,14.70007 C9.52056,15.24999 9.794085,15.955485 10.64623,16.574775 C11.156285,16.945145 11.550245,17.10002 11.94333,17.088225 C12.25,17.07552 12.5405,16.9281 12.71501,16.687405 C12.9185,16.40723 12.99291,16.076725 12.977615,15.471855 L13.767145,16.045295 C13.6234,16.569735 13.450465,16.91627 13.11394,17.37981 C12.141535,18.71828 11.007955,18.891915 9.65251,17.90663 C8.989365,17.424645 8.676745,16.952775 8.60384,16.331805 C8.53181,15.684655 8.72319,15.10754 9.251095,14.380695 C9.5543,13.96402 9.81015,13.720735 10.214925,13.46408 Z M15.596245,13.86917 L15.596245,13.86917 C16.255295,13.761615 16.636585,13.616575 17.11171,13.28369 C17.5287,12.99221 17.833585,12.63892 17.95969,12.30012 C18.142635,11.8097 18.042815,11.223345 17.693795,10.725295 C17.29217,10.152555 16.810115,10.00601 16.00291,10.2095 C15.09046,10.43371 15.03887,10.434725 14.888755,10.221225 C14.75502,10.029845 14.814345,9.781485 15.0346,9.62731 C15.289575,9.44874 15.647135,9.38 16.216305,9.4038 L15.8648,8.54462 C15.34393,8.650495 15.00919,8.78948 14.60431,9.0741 C14.204365,9.35361 13.907845,9.6824 13.781635,9.99502 C13.580735,10.47291 13.650385,11.027625 13.954465,11.462255 C14.116375,11.694515 14.32473,11.86815 14.572075,11.962195 C14.855015,12.083225 15.169315,12.0876 15.660715,11.97637 C16.115505,11.8741 16.289245,11.838295 16.36215,11.83084 C16.5578,11.814775 16.666055,11.859715 16.76794,12.004475 C16.93055,12.23572 16.8483,12.526325 16.564555,12.724635 C16.22306,12.96435 15.998745,13.000855 15.24978,12.9549 L15.596245,13.86917 Z M17.12529,7.413805 L17.12529,7.413805 L20.582555,5.874505 L20.91292,6.61752 C20.8047,6.634285 20.749435,6.65133 20.665505,6.688535 L19.89036,7.033425 L21.3976,10.41866 C21.440755,10.51519 21.467845,10.557435 21.53816,10.61172 L19.993925,11.29877 C20.003935,11.217605 19.990355,11.169305 19.944715,11.06581 L18.437685,7.680575 L17.72673,7.99757 C17.6302,8.040515 17.568495,8.07534 17.455585,8.156785 L17.12529,7.413805 Z M23.461305,8.676885 L23.461305,8.676885 L24.761695,8.40077 L25.2658,9.276505 C25.3029,9.348535 25.32831,9.401105 25.33671,9.442685 C25.338425,9.44944 25.342695,9.46988 25.34189,9.49865 L27.112435,9.12233 C27.03694,9.07333 26.992385,9.032555 26.92592,8.924195 L24.55593,5.08319 C24.52002,5.017915 24.48558,4.96027 24.473365,4.905285 L24.46514,4.86374 L23.157925,5.141535 C23.1707,5.16803 23.174095,5.1814 23.174795,5.188155 C23.18253,5.22298 23.18183,5.288255 23.171505,5.377155 L22.602335,9.842525 C22.58536,9.96961 22.56821,10.023895 22.519175,10.099285 L23.357145,9.92061 C23.34444,9.895095 23.33254,9.87567 23.331525,9.868705 C23.324,9.83409 23.324805,9.768815 23.336005,9.68667 L23.461305,8.676885 Z M23.555175,7.92722 L23.555175,7.92722 L23.69318,6.50223 L24.38457,7.750925 L23.555175,7.92722 Z M27.781635,4.4401 L27.781635,4.4401 C27.82241,4.51213 27.82913,4.55469 27.826575,4.67502 L27.75276,8.92332 C27.75108,9.030175 27.742645,9.079175 27.69949,9.156455 L30.10301,9.19772 C31.332945,9.219875 32.148865,8.28618 32.17417,6.829235 C32.200455,5.302745 31.387405,4.5038 29.775095,4.474925 L27.781635,4.4401 Z M29.35135,8.471085 L29.35135,8.471085 L29.4091,5.183115 L29.557535,5.185775 C30.180185,5.1968 30.530115,5.804085 30.511355,6.857095 C30.49249,7.917805 30.15131,8.48449 29.52866,8.4735 L29.35135,8.471085 Z M34.087165,4.9672 L34.087165,4.9672 C34.11436,5.045005 34.11079,5.094985 34.087165,5.205235 L33.20338,9.36222 C33.18147,9.465505 33.1646,9.513035 33.106955,9.579815 L34.759725,9.931425 C34.73435,9.8469 34.737815,9.796885 34.759725,9.69339 L35.643335,5.536405 C35.667135,5.425385 35.68411,5.378835 35.739865,5.31783 L34.087165,4.9672 Z M40.18896,7.018025 L40.18896,7.018025 C39.5528,6.69361 38.92091,6.57832 38.376345,6.69788 C37.774695,6.81891 37.23013,7.296135 36.86424,8.014335 C36.488725,8.751365 36.40497,9.367295 36.58368,9.96625 C36.76939,10.552395 37.164155,10.961545 37.91956,11.3463 C39.42582,12.11378 40.59573,11.764865 41.32415,10.3348 C42.03997,8.92927 41.6444,7.75936 40.18896,7.018025 Z M39.89349,7.61362 L39.89349,7.61362 C40.4229,7.88298 40.40246,8.483615 39.82811,9.611245 C39.28274,10.68207 38.80156,11.04894 38.278695,10.78294 C37.743475,10.509135 37.76031,9.915255 38.338055,8.78115 C38.884405,7.710325 39.364885,7.343455 39.89349,7.61362 Z M43.50563,11.531695 L43.50563,11.531695 L41.75969,13.404055 C41.68269,13.48711 41.65392,13.527675 41.63677,13.60912 L41.04219,13.054125 C41.126015,13.026055 41.165005,12.9948 41.238015,12.91682 L44.136015,9.80938 C44.217285,9.721495 44.24119,9.684955 44.258865,9.60449 L45.256645,10.53563 C45.22378,10.601605 45.210095,10.647245 45.19165,10.80331 L44.86454,14.066605 L46.644325,12.15774 C46.7215,12.074895 46.74929,12.034015 46.772495,11.94851 L47.36102,12.49843 C47.291685,12.51026 47.272225,12.52125 47.16628,12.63556 L44.26807,15.743 C44.214695,15.79963 44.186835,15.85052 44.144275,15.947085 L43.1312,15.00268 C43.16424,14.9366 43.17782,14.89075 43.18706,14.734895 L43.50563,11.531695 Z" id="Fill-6" fill="#FEFEFE"></path>
                        <path d="M12.27618,47.069085 L12.835445,46.548215 C12.73713,46.504045 12.707345,46.483605 12.572735,46.338775 L11.90175,45.61956 L14.65849,43.04937 C14.7413,42.9723 14.78218,42.943495 14.86254,42.92645 L13.71041,41.69046 C13.68759,41.77012 13.65623,41.808305 13.573385,41.88611 L10.470915,44.77935 C10.387965,44.85642 10.3474,44.88519 10.26088,44.907135 L12.27618,47.069085 Z M16.62815,44.52427 L16.62815,44.52427 L17.9956,45.516975 C17.919195,45.549245 17.88437,45.58575 17.817485,45.677205 L15.32013,49.115045 C15.257515,49.20055 15.23431,49.245385 15.22269,49.332605 L13.855345,48.3399 C13.93581,48.30168 13.97053,48.266155 14.03255,48.17967 L16.53071,44.74183 C16.597595,44.650375 16.620415,44.606415 16.62815,44.52427 Z M18.97889,46.226145 L18.97889,46.226145 L18.635015,46.962405 C18.76966,46.99457 18.83672,47.01739 18.93325,47.06233 L19.63794,47.39112 L18.072565,50.74916 C18.02416,50.851745 17.997175,50.894025 17.928435,50.93984 L19.460175,51.65377 C19.45412,51.565885 19.46938,51.518355 19.513445,51.421825 L21.079905,48.06368 L21.84889,48.422045 C21.932155,48.46093 21.98028,48.49138 22.064105,48.56173 L22.408365,47.82477 L18.97889,46.226145 Z M25.526515,48.450815 L25.526515,48.450815 C24.824975,48.315365 24.18647,48.378085 23.694965,48.643175 C23.150295,48.926045 22.75819,49.53431 22.604715,50.32552 C22.44627,51.137275 22.53594,51.752995 22.873165,52.279115 C23.213085,52.79155 23.705185,53.0754 24.53808,53.23801 C26.1968,53.55994 27.22524,52.901765 27.53191,51.325995 C27.832525,49.77826 27.12941,48.762525 25.526515,48.450815 Z M25.40636,49.10472 L25.40636,49.10472 C25.98925,49.218295 26.13471,49.80108 25.89342,51.043825 C25.664625,52.224165 25.303775,52.708705 24.727745,52.59681 C24.13726,52.48152 23.990715,51.90549 24.233195,50.65599 C24.46276,49.475965 24.8234,48.99132 25.40636,49.10472 Z M29.81657,51.12359 L29.81657,51.12359 L30.91613,53.354175 C30.946615,53.420955 30.969435,53.48196 30.97717,53.537925 L30.98312,53.58038 L32.23696,53.40419 C32.225865,53.376995 32.22415,53.36261 32.222575,53.35589 C32.21743,53.31431 32.221595,53.249035 32.23955,53.16787 L32.695425,50.71871 L33.247655,53.02619 C33.26204,53.08135 33.267185,53.115965 33.272855,53.158455 C33.275515,53.17193 33.28157,53.214385 33.27989,53.257645 L34.960555,53.021115 C34.90291,52.965185 34.881875,52.917865 34.844285,52.801875 L33.699155,48.67107 C33.68547,48.623715 33.682005,48.602295 33.673675,48.53891 L33.66692,48.4407 L32.30899,48.63117 C32.3183,48.65161 32.320715,48.665015 32.321695,48.67275 C32.32754,48.714225 32.322395,48.779605 32.306295,48.8677 L31.7905,51.653105 L30.5417,49.115045 C30.509675,49.0413 30.487555,48.98705 30.483285,48.952225 C30.4815,48.94547 30.485175,48.915895 30.488535,48.887125 L29.0948,49.08288 L29.115135,49.18011 C29.12357,49.236075 29.12616,49.257215 29.12714,49.31416 L29.13043,53.604915 C29.12616,53.726925 29.11951,53.777815 29.07863,53.847955 L29.940295,53.726925 C29.91072,53.66662 29.888705,53.61265 29.88027,53.556685 L29.872535,53.50072 L29.81657,51.12359 Z M35.25711,47.9367 L35.25711,47.9367 C35.32228,47.986575 35.347585,48.029835 35.389935,48.1348 L36.98191,52.074925 C37.0216,52.17317 37.0335,52.22147 37.023385,52.309565 L39.822265,51.17854 L39.54447,50.48981 C39.46985,50.55085 39.46985,50.55085 39.292855,50.62218 L38.27712,51.03301 L37.778965,49.80038 L38.82767,49.37674 C38.94541,49.329245 38.98104,49.32249 39.06735,49.309785 L38.800475,48.64825 C38.73191,48.705895 38.719415,48.71083 38.57427,48.76928 L37.53253,49.190435 L37.024085,47.931415 L38.07979,47.505395 C38.164525,47.47057 38.213525,47.458775 38.31275,47.44103 L38.05599,46.805675 L35.25711,47.9367 Z M37.29173,45.40606 L37.29173,45.40606 L36.88776,46.89615 L36.225315,47.1639 L34.91908,46.36527 L35.732305,46.03648 L36.377005,46.53789 L36.49219,45.728795 L37.29173,45.40606 Z M42.056035,47.483275 L42.056035,47.483275 L43.12882,48.959155 C43.191435,49.044695 43.22605,49.08022 43.305815,49.118405 L41.932415,50.116395 C41.930035,50.03929 41.910505,50.001105 41.835885,49.89761 L39.337795,46.460085 C39.27917,46.38032 39.23521,46.342135 39.1608,46.300555 L41.076805,44.90801 C41.7977,44.384585 42.517965,44.47338 43.004115,45.14265 C43.3447,45.611125 43.380225,45.99658 43.13379,46.559905 L44.970415,47.620685 C45.08728,47.68498 45.140655,47.69849 45.233825,47.717915 L43.74622,48.79903 C43.739465,48.77691 43.735405,48.77187 43.731135,48.765885 C43.710695,48.737045 43.657425,48.68801 43.58025,48.63047 L42.056035,47.483275 Z M41.772395,47.10391 L41.772395,47.10391 L41.86406,47.03783 C42.103565,46.863285 42.07588,46.595535 41.77586,46.182885 C41.456485,45.742515 41.203995,45.611125 40.986225,45.769675 L40.865895,45.85679 L41.772395,47.10391 Z M40.746615,43.18986 L40.746615,43.18986 L40.04847,43.697535 L40.1324,44.510585 L39.38494,44.179485 L38.676155,44.69451 L40.13667,45.153675 L40.714275,44.73441 L40.746615,43.18986 Z M43.260875,43.012165 L43.260875,43.012165 C43.34232,43.02893 43.382815,43.057805 43.46594,43.13491 L46.57338,46.033085 C46.65108,46.105815 46.682615,46.144805 46.710405,46.22884 L47.86264,44.99285 C47.777135,44.97073 47.736255,44.94196 47.658485,44.869825 L44.551045,41.970915 C44.468095,41.893845 44.43684,41.85566 44.41381,41.776175 L43.260875,43.012165 Z M47.31538,37.575895 L47.31538,37.575895 L48.199865,38.06621 C47.639025,38.305225 47.351815,38.517045 47.17293,38.838975 C46.84414,39.43289 47.2017,40.10048 48.12339,40.611235 C48.67401,40.91619 49.083265,41.02217 49.47229,40.962845 C49.77567,40.91192 50.04573,40.730585 50.18979,40.470535 C50.35744,40.16824 50.391285,39.830105 50.30249,39.232165 L51.156315,39.7047 C51.077635,40.24363 50.94796,40.60784 50.670165,41.109285 C49.867825,42.556395 48.7648,42.866425 47.299315,42.05397 C46.581815,41.65651 46.214035,41.226255 46.065705,40.617955 C45.9158,39.98519 46.035255,39.38872 46.470795,38.60346 C46.7215,38.151925 46.945045,37.879905 47.31538,37.575895 Z M47.651625,36.3034 L47.651625,36.3034 C47.732195,36.284955 47.781195,36.293285 47.88875,36.3279 L51.92978,37.641205 C52.030685,37.67414 52.076395,37.696155 52.13642,37.760555 L53.070115,34.889435 L52.363535,34.65987 C52.362625,34.7557 52.362625,34.7557 52.3033,34.937735 L51.964395,35.979965 L50.700615,35.56903 L51.04946,34.49299 C51.08943,34.371925 51.107105,34.340495 51.153025,34.266085 L50.47441,34.04583 C50.47441,34.13473 50.47007,34.1481 50.42282,34.296535 L50.0745,35.365645 L48.78363,34.94638 L49.135065,33.863585 C49.16401,33.77647 49.18585,33.73153 49.23674,33.643435 L48.584515,33.431615 L47.651625,36.3034 Z" id="Fill-7" fill="#FEFEFE"></path>
                        <path d="M29.083985,11.15996 C35.455315,11.15996 41.04289,14.51296 44.183545,19.54918 L43.453935,19.54918 C40.387375,14.86793 35.09695,11.774875 29.083985,11.774875 C20.04891,11.774875 12.6413,18.758845 11.96713,27.622595 L11.330795,27.93266 C11.854535,18.58353 19.603115,11.15996 29.083985,11.15996 Z M46.67726,31.533075 L46.67726,31.533075 C45.422825,40.12498 38.02372,46.72521 29.083985,46.72521 C23.296035,46.72521 18.153835,43.95755 14.906605,39.67425 L15.660715,39.642015 C18.806165,43.582945 23.650025,46.11019 29.083985,46.11019 C37.556155,46.11019 44.595985,39.969125 45.997245,31.89739 L46.67726,31.533075 Z" id="Fill-8" fill="#FEFEFE"></path>
                        <path d="M29.083985,2.27409 C43.810515,2.27409 55.75304,14.216405 55.75304,28.942445 C55.75304,43.66866 43.810515,55.610975 29.083985,55.610975 C14.35854,55.610975 2.41535,43.66866 2.41535,28.942445 C2.41535,14.216405 14.35854,2.27409 29.083985,2.27409 Z M29.083985,1.65907 L29.083985,1.65907 C14.018165,1.65907 1.80131,13.877605 1.80131,28.942445 C1.80131,44.007565 14.018165,56.225995 29.083985,56.225995 C44.149525,56.225995 56.36806,44.007565 56.36806,28.942445 C56.36806,13.877605 44.149525,1.65907 29.083985,1.65907 L29.083985,1.65907 Z" id="Fill-9" fill="#FEFEFE"></path>
                        <path d="M29.10831,12.90569 L28.86345,15.05861 C27.880055,15.10754 27.5429,16.17763 28.802515,16.60288 L28.781305,18.4268 C26.59314,20.967415 22.51074,20.588715 20.84516,17.26879 C20.78258,22.815765 20.999335,27.56159 25.835775,28.119945 L24.11612,29.089165 L25.835775,30.21998 L25.835775,36.359365 C28.017255,36.00856 30.19954,35.48601 32.38102,34.89808 L32.38102,30.21998 L34.100675,29.089165 L32.38102,28.119945 C37.216445,27.56159 37.43432,22.815765 37.371495,17.26879 C35.705915,20.588715 31.623515,20.967415 29.43549,18.4268 L29.414175,16.60288 C30.673755,16.17763 30.33765,15.10754 29.353065,15.05861 L29.10831,12.90569 Z M24.571995,38.708635 L24.571995,38.708635 L24.259165,38.94394 L26.81091,39.929225 L31.577105,39.91652 L33.95749,38.94394 L32.38102,37.65132 L32.38102,37.0125 C29.762215,37.669065 27.164235,38.20957 24.571995,38.708635 Z M37.75359,21.90776 L37.75359,21.90776 C37.806965,21.45535 37.83752,20.979245 37.84347,20.479515 C47.11469,19.395005 54.022255,20.57097 54.167225,23.748445 C54.355315,27.89276 43.36346,33.912795 29.69624,37.1497 C16.03,40.38601 4.72899,39.64639 4.54069,35.502775 C4.392535,32.241265 11.40699,27.75395 20.963845,24.43987 C21.07217,24.88115 21.227255,25.27693 21.43064,25.624165 C15.657355,28.050505 11.6816,31.19753 11.6816,33.749275 C11.6816,37.355675 19.6203,38.44421 29.35415,36.17306 C39.08779,33.90177 47.02649,29.108625 47.02649,25.502225 C47.02649,23.02083 43.26861,21.73157 37.75359,21.90776 Z M24.005205,20.589415 L24.005205,20.589415 C24.552465,20.75969 24.680145,20.802915 25.226705,20.75731 C24.84881,23.910355 26.301555,26.830685 28.385735,27.91915 L27.697775,29.17299 L28.127365,30.225055 L27.860315,35.440055 L27.55473,30.283575 L27.01006,29.17299 L27.5835,28.03353 C25.86115,27.022765 24.13635,24.61011 24.005205,20.589415 L24.005205,20.589415 Z" id="Fill-10" fill="#041E42"></path>
                        <path d="M8.332765,22.09655 L8.682695,21.081025 L10.40067,21.672245 C10.507315,21.70945 10.55208,21.73227 10.605735,21.794955 L11.15548,20.197345 C11.075015,20.21439 11.032665,20.206655 10.91916,20.16777 L6.901055,18.78436 C6.7935,18.747855 6.74926,18.725035 6.695955,18.66144 L6.14614,20.259925 C6.23749,20.25331 6.295135,20.258245 6.382565,20.2888 L8.00737,20.84789 L7.657545,21.864605 L6.03274,21.304535 C5.94531,21.274785 5.897115,21.243635 5.828655,21.18263 L5.27793,22.77954 C5.358395,22.762495 5.4075,22.77261 5.51495,22.80901 L9.53316,24.192525 C9.64656,24.23232 9.68485,24.25276 9.737315,24.315445 L10.28797,22.71752 C10.20649,22.7346 10.16435,22.727845 10.050845,22.688085 L8.332765,22.09655 Z M10.214925,13.46408 L10.214925,13.46408 L11.032665,14.05887 C10.44729,14.22743 10.13558,14.40271 9.91949,14.70007 C9.52056,15.24999 9.794085,15.955485 10.64623,16.574775 C11.156285,16.945145 11.550245,17.10002 11.94333,17.088225 C12.25,17.07552 12.5405,16.9281 12.71501,16.687405 C12.9185,16.40723 12.99291,16.076725 12.977615,15.471855 L13.767145,16.045295 C13.6234,16.569735 13.450465,16.91627 13.11394,17.37981 C12.141535,18.71828 11.007955,18.891915 9.65251,17.90663 C8.989365,17.424645 8.676745,16.952775 8.60384,16.331805 C8.53181,15.684655 8.72319,15.10754 9.251095,14.380695 C9.5543,13.96402 9.81015,13.720735 10.214925,13.46408 Z M15.596245,13.86917 L15.596245,13.86917 C16.255295,13.761615 16.636585,13.616575 17.11171,13.28369 C17.5287,12.99221 17.833585,12.63892 17.95969,12.30012 C18.142635,11.8097 18.042815,11.223345 17.693795,10.725295 C17.29217,10.152555 16.810115,10.00601 16.00291,10.2095 C15.09046,10.43371 15.03887,10.434725 14.888755,10.221225 C14.75502,10.029845 14.814345,9.781485 15.0346,9.62731 C15.289575,9.44874 15.647135,9.38 16.216305,9.4038 L15.8648,8.54462 C15.34393,8.650495 15.00919,8.78948 14.60431,9.0741 C14.204365,9.35361 13.907845,9.6824 13.781635,9.99502 C13.580735,10.47291 13.650385,11.027625 13.954465,11.462255 C14.116375,11.694515 14.32473,11.86815 14.572075,11.962195 C14.855015,12.083225 15.169315,12.0876 15.660715,11.97637 C16.115505,11.8741 16.289245,11.838295 16.36215,11.83084 C16.5578,11.814775 16.666055,11.859715 16.76794,12.004475 C16.93055,12.23572 16.8483,12.526325 16.564555,12.724635 C16.22306,12.96435 15.998745,13.000855 15.24978,12.9549 L15.596245,13.86917 Z M17.12529,7.413805 L17.12529,7.413805 L20.582555,5.874505 L20.91292,6.61752 C20.8047,6.634285 20.749435,6.65133 20.665505,6.688535 L19.89036,7.033425 L21.3976,10.41866 C21.440755,10.51519 21.467845,10.557435 21.53816,10.61172 L19.993925,11.29877 C20.003935,11.217605 19.990355,11.169305 19.944715,11.06581 L18.437685,7.680575 L17.72673,7.99757 C17.6302,8.040515 17.568495,8.07534 17.455585,8.156785 L17.12529,7.413805 Z M23.461305,8.676885 L23.461305,8.676885 L24.761695,8.40077 L25.2658,9.276505 C25.3029,9.348535 25.32831,9.401105 25.33671,9.442685 C25.338425,9.44944 25.342695,9.46988 25.34189,9.49865 L27.112435,9.12233 C27.03694,9.07333 26.992385,9.032555 26.92592,8.924195 L24.55593,5.08319 C24.52002,5.017915 24.48558,4.96027 24.473365,4.905285 L24.46514,4.86374 L23.157925,5.141535 C23.1707,5.16803 23.174095,5.1814 23.174795,5.188155 C23.18253,5.22298 23.18183,5.288255 23.171505,5.377155 L22.602335,9.842525 C22.58536,9.96961 22.56821,10.023895 22.519175,10.099285 L23.357145,9.92061 C23.34444,9.895095 23.33254,9.87567 23.331525,9.868705 C23.324,9.83409 23.324805,9.768815 23.336005,9.68667 L23.461305,8.676885 Z M23.555175,7.92722 L23.555175,7.92722 L23.69318,6.50223 L24.38457,7.750925 L23.555175,7.92722 Z M27.781635,4.4401 L27.781635,4.4401 C27.82241,4.51213 27.82913,4.55469 27.826575,4.67502 L27.75276,8.92332 C27.75108,9.030175 27.742645,9.079175 27.69949,9.156455 L30.10301,9.19772 C31.332945,9.219875 32.148865,8.28618 32.17417,6.829235 C32.200455,5.302745 31.387405,4.5038 29.775095,4.474925 L27.781635,4.4401 Z M29.35135,8.471085 L29.35135,8.471085 L29.4091,5.183115 L29.557535,5.185775 C30.180185,5.1968 30.530115,5.804085 30.511355,6.857095 C30.49249,7.917805 30.15131,8.48449 29.52866,8.4735 L29.35135,8.471085 Z M34.087165,4.9672 L34.087165,4.9672 C34.11436,5.045005 34.11079,5.094985 34.087165,5.205235 L33.20338,9.36222 C33.18147,9.465505 33.1646,9.513035 33.106955,9.579815 L34.759725,9.931425 C34.73435,9.8469 34.737815,9.796885 34.759725,9.69339 L35.643335,5.536405 C35.667135,5.425385 35.68411,5.378835 35.739865,5.31783 L34.087165,4.9672 Z M40.18896,7.018025 L40.18896,7.018025 C39.5528,6.69361 38.92091,6.57832 38.376345,6.69788 C37.774695,6.81891 37.23013,7.296135 36.86424,8.014335 C36.488725,8.751365 36.40497,9.367295 36.58368,9.96625 C36.76939,10.552395 37.164155,10.961545 37.91956,11.3463 C39.42582,12.11378 40.59573,11.764865 41.32415,10.3348 C42.03997,8.92927 41.6444,7.75936 40.18896,7.018025 Z M39.89349,7.61362 L39.89349,7.61362 C40.4229,7.88298 40.40246,8.483615 39.82811,9.611245 C39.28274,10.68207 38.80156,11.04894 38.278695,10.78294 C37.743475,10.509135 37.76031,9.915255 38.338055,8.78115 C38.884405,7.710325 39.364885,7.343455 39.89349,7.61362 Z M43.50563,11.531695 L43.50563,11.531695 L41.75969,13.404055 C41.68269,13.48711 41.65392,13.527675 41.63677,13.60912 L41.04219,13.054125 C41.126015,13.026055 41.165005,12.9948 41.238015,12.91682 L44.136015,9.80938 C44.217285,9.721495 44.24119,9.684955 44.258865,9.60449 L45.256645,10.53563 C45.22378,10.601605 45.210095,10.647245 45.19165,10.80331 L44.86454,14.066605 L46.644325,12.15774 C46.7215,12.074895 46.74929,12.034015 46.772495,11.94851 L47.36102,12.49843 C47.291685,12.51026 47.272225,12.52125 47.16628,12.63556 L44.26807,15.743 C44.214695,15.79963 44.186835,15.85052 44.144275,15.947085 L43.1312,15.00268 C43.16424,14.9366 43.17782,14.89075 43.18706,14.734895 L43.50563,11.531695 Z" id="Fill-11" fill="#041E42"></path>
                        <path d="M12.27618,47.069085 L12.835445,46.548215 C12.73713,46.504045 12.707345,46.483605 12.572735,46.338775 L11.90175,45.61956 L14.65849,43.04937 C14.7413,42.9723 14.78218,42.943495 14.86254,42.92645 L13.71041,41.69046 C13.68759,41.77012 13.65623,41.808305 13.573385,41.88611 L10.470915,44.77935 C10.387965,44.85642 10.3474,44.88519 10.26088,44.907135 L12.27618,47.069085 Z M16.62815,44.52427 L16.62815,44.52427 L17.9956,45.516975 C17.919195,45.549245 17.88437,45.58575 17.817485,45.677205 L15.32013,49.115045 C15.257515,49.20055 15.23431,49.245385 15.22269,49.332605 L13.855345,48.3399 C13.93581,48.30168 13.97053,48.266155 14.03255,48.17967 L16.53071,44.74183 C16.597595,44.650375 16.620415,44.606415 16.62815,44.52427 Z M18.97889,46.226145 L18.97889,46.226145 L18.635015,46.962405 C18.76966,46.99457 18.83672,47.01739 18.93325,47.06233 L19.63794,47.39112 L18.072565,50.74916 C18.02416,50.851745 17.997175,50.894025 17.928435,50.93984 L19.460175,51.65377 C19.45412,51.565885 19.46938,51.518355 19.513445,51.421825 L21.079905,48.06368 L21.84889,48.422045 C21.932155,48.46093 21.98028,48.49138 22.064105,48.56173 L22.408365,47.82477 L18.97889,46.226145 Z M25.526515,48.450815 L25.526515,48.450815 C24.824975,48.315365 24.18647,48.378085 23.694965,48.643175 C23.150295,48.926045 22.75819,49.53431 22.604715,50.32552 C22.44627,51.137275 22.53594,51.752995 22.873165,52.279115 C23.213085,52.79155 23.705185,53.0754 24.53808,53.23801 C26.1968,53.55994 27.22524,52.901765 27.53191,51.325995 C27.832525,49.77826 27.12941,48.762525 25.526515,48.450815 Z M25.40636,49.10472 L25.40636,49.10472 C25.98925,49.218295 26.13471,49.80108 25.89342,51.043825 C25.664625,52.224165 25.303775,52.708705 24.727745,52.59681 C24.13726,52.48152 23.990715,51.90549 24.233195,50.65599 C24.46276,49.475965 24.8234,48.99132 25.40636,49.10472 Z M29.81657,51.12359 L29.81657,51.12359 L30.91613,53.354175 C30.946615,53.420955 30.969435,53.48196 30.97717,53.537925 L30.98312,53.58038 L32.23696,53.40419 C32.225865,53.376995 32.22415,53.36261 32.222575,53.35589 C32.21743,53.31431 32.221595,53.249035 32.23955,53.16787 L32.695425,50.71871 L33.247655,53.02619 C33.26204,53.08135 33.267185,53.115965 33.272855,53.158455 C33.275515,53.17193 33.28157,53.214385 33.27989,53.257645 L34.960555,53.021115 C34.90291,52.965185 34.881875,52.917865 34.844285,52.801875 L33.699155,48.67107 C33.68547,48.623715 33.682005,48.602295 33.673675,48.53891 L33.66692,48.4407 L32.30899,48.63117 C32.3183,48.65161 32.320715,48.665015 32.321695,48.67275 C32.32754,48.714225 32.322395,48.779605 32.306295,48.8677 L31.7905,51.653105 L30.5417,49.115045 C30.509675,49.0413 30.487555,48.98705 30.483285,48.952225 C30.4815,48.94547 30.485175,48.915895 30.488535,48.887125 L29.0948,49.08288 L29.115135,49.18011 C29.12357,49.236075 29.12616,49.257215 29.12714,49.31416 L29.13043,53.604915 C29.12616,53.726925 29.11951,53.777815 29.07863,53.847955 L29.940295,53.726925 C29.91072,53.66662 29.888705,53.61265 29.88027,53.556685 L29.872535,53.50072 L29.81657,51.12359 Z M35.25711,47.9367 L35.25711,47.9367 C35.32228,47.986575 35.347585,48.029835 35.389935,48.1348 L36.98191,52.074925 C37.0216,52.17317 37.0335,52.22147 37.023385,52.309565 L39.822265,51.17854 L39.54447,50.48981 C39.46985,50.55085 39.46985,50.55085 39.292855,50.62218 L38.27712,51.03301 L37.778965,49.80038 L38.82767,49.37674 C38.94541,49.329245 38.98104,49.32249 39.06735,49.309785 L38.800475,48.64825 C38.73191,48.705895 38.719415,48.71083 38.57427,48.76928 L37.53253,49.190435 L37.024085,47.931415 L38.07979,47.505395 C38.164525,47.47057 38.213525,47.458775 38.31275,47.44103 L38.05599,46.805675 L35.25711,47.9367 Z M37.29173,45.40606 L37.29173,45.40606 L36.88776,46.89615 L36.225315,47.1639 L34.91908,46.36527 L35.732305,46.03648 L36.377005,46.53789 L36.49219,45.728795 L37.29173,45.40606 Z M42.056035,47.483275 L42.056035,47.483275 L43.12882,48.959155 C43.191435,49.044695 43.22605,49.08022 43.305815,49.118405 L41.932415,50.116395 C41.930035,50.03929 41.910505,50.001105 41.835885,49.89761 L39.337795,46.460085 C39.27917,46.38032 39.23521,46.342135 39.1608,46.300555 L41.076805,44.90801 C41.7977,44.384585 42.517965,44.47338 43.004115,45.14265 C43.3447,45.611125 43.380225,45.99658 43.13379,46.559905 L44.970415,47.620685 C45.08728,47.68498 45.140655,47.69849 45.233825,47.717915 L43.74622,48.79903 C43.739465,48.77691 43.735405,48.77187 43.731135,48.765885 C43.710695,48.737045 43.657425,48.68801 43.58025,48.63047 L42.056035,47.483275 Z M41.772395,47.10391 L41.772395,47.10391 L41.86406,47.03783 C42.103565,46.863285 42.07588,46.595535 41.77586,46.182885 C41.456485,45.742515 41.203995,45.611125 40.986225,45.769675 L40.865895,45.85679 L41.772395,47.10391 Z M40.746615,43.18986 L40.746615,43.18986 L40.04847,43.697535 L40.1324,44.510585 L39.38494,44.179485 L38.676155,44.69451 L40.13667,45.153675 L40.714275,44.73441 L40.746615,43.18986 Z M43.260875,43.012165 L43.260875,43.012165 C43.34232,43.02893 43.382815,43.057805 43.46594,43.13491 L46.57338,46.033085 C46.65108,46.105815 46.682615,46.144805 46.710405,46.22884 L47.86264,44.99285 C47.777135,44.97073 47.736255,44.94196 47.658485,44.869825 L44.551045,41.970915 C44.468095,41.893845 44.43684,41.85566 44.41381,41.776175 L43.260875,43.012165 Z M47.31538,37.575895 L47.31538,37.575895 L48.199865,38.06621 C47.639025,38.305225 47.351815,38.517045 47.17293,38.838975 C46.84414,39.43289 47.2017,40.10048 48.12339,40.611235 C48.67401,40.91619 49.083265,41.02217 49.47229,40.962845 C49.77567,40.91192 50.04573,40.730585 50.18979,40.470535 C50.35744,40.16824 50.391285,39.830105 50.30249,39.232165 L51.156315,39.7047 C51.077635,40.24363 50.94796,40.60784 50.670165,41.109285 C49.867825,42.556395 48.7648,42.866425 47.299315,42.05397 C46.581815,41.65651 46.214035,41.226255 46.065705,40.617955 C45.9158,39.98519 46.035255,39.38872 46.470795,38.60346 C46.7215,38.151925 46.945045,37.879905 47.31538,37.575895 Z M47.651625,36.3034 L47.651625,36.3034 C47.732195,36.284955 47.781195,36.293285 47.88875,36.3279 L51.92978,37.641205 C52.030685,37.67414 52.076395,37.696155 52.13642,37.760555 L53.070115,34.889435 L52.363535,34.65987 C52.362625,34.7557 52.362625,34.7557 52.3033,34.937735 L51.964395,35.979965 L50.700615,35.56903 L51.04946,34.49299 C51.08943,34.371925 51.107105,34.340495 51.153025,34.266085 L50.47441,34.04583 C50.47441,34.13473 50.47007,34.1481 50.42282,34.296535 L50.0745,35.365645 L48.78363,34.94638 L49.135065,33.863585 C49.16401,33.77647 49.18585,33.73153 49.23674,33.643435 L48.584515,33.431615 L47.651625,36.3034 Z" id="Fill-12" fill="#041E42"></path>
                        <path d="M29.083985,11.15996 C35.455315,11.15996 41.04289,14.51296 44.183545,19.54918 L43.453935,19.54918 C40.387375,14.86793 35.09695,11.774875 29.083985,11.774875 C20.04891,11.774875 12.6413,18.758845 11.96713,27.622595 L11.330795,27.93266 C11.854535,18.58353 19.603115,11.15996 29.083985,11.15996 Z M46.67726,31.533075 L46.67726,31.533075 C45.422825,40.12498 38.02372,46.72521 29.083985,46.72521 C23.296035,46.72521 18.153835,43.95755 14.906605,39.67425 L15.660715,39.642015 C18.806165,43.582945 23.650025,46.11019 29.083985,46.11019 C37.556155,46.11019 44.595985,39.969125 45.997245,31.89739 L46.67726,31.533075 Z" id="Fill-13" fill="#041E42"></path>
                        <path d="M29.083985,2.27409 C43.810515,2.27409 55.75304,14.216405 55.75304,28.942445 C55.75304,43.66866 43.810515,55.610975 29.083985,55.610975 C14.35854,55.610975 2.41535,43.66866 2.41535,28.942445 C2.41535,14.216405 14.35854,2.27409 29.083985,2.27409 Z M29.083985,1.65907 L29.083985,1.65907 C14.018165,1.65907 1.80131,13.877605 1.80131,28.942445 C1.80131,44.007565 14.018165,56.225995 29.083985,56.225995 C44.149525,56.225995 56.36806,44.007565 56.36806,28.942445 C56.36806,13.877605 44.149525,1.65907 29.083985,1.65907 L29.083985,1.65907 Z" id="Fill-14" fill="#041E42"></path>
                    </g>
                </g>
            </g>
        </g>
    </g>
</svg>