<svg xmlns="http://www.w3.org/2000/svg" width="95" height="64" viewBox="0 0 95 64">
    <g fill="none" fill-rule="evenodd">
        <g fill="#46878C">
            <path d="M354.534 3425.702l9.594-5.702h-3.037l-8.814 3.966-8.97-3.966h-2.863l9.665 5.702h4.425zm4.66 30.833c4.202-1.349 7.324-3.708 7.744-7.013 0-4.669-5.463-6.536-10.842-7.645-7.81-1.554-13.361-2.844-14.23-6.222-.158-.47-.172-.711-.172-1.067.172-3.645 5.292-5.911 9.976-5.911 4.771 0 7.809.623 10.845 3.468l2.601-.846c-3.382-3.021-7.98-3.821-13.446-3.821-4.542 0-8.418.76-11.226 2.124V3420h-6.92l-17.632 22.866h-.168L297.75 3420H291v28.01h3.292v-24.467l19.761 24.948h-6.081v28.008h2.788v-24.465l19.998 25.245h.084l20.166-25.59v24.81h5.907v-18.62h10.438V3484h6.074v-26.121H386v-1.344h-26.805zm-2.28-1.614v-6.43h-6.92l-5.659 7.337c-2.35-.608-4.431-1.68-6.024-3.286l-2.863 1.067c1.836 1.773 4.592 2.96 7.806 3.621l-10.891 14.126h-.17l-17.779-22.62 20.124-25.538v24.811h5.906v-6.814c3.121 1.25 7.395 2.05 11.747 3.038 6.422 1.377 8.33 3.82 8.33 6.177 0 1.816-1.306 3.415-3.606 4.51z" transform="translate(-291 -3420)"/>
        </g>
    </g>
</svg>
