<svg xmlns="http://www.w3.org/2000/svg" width="171" height="48" viewBox="0 0 171 48">
    <g fill="none" fill-rule="evenodd">
        <g>
            <g>
                <path fill="#C6C6C6" d="M65.559 8.098h3.501l-3.334 3.68h-2.358l2.191-3.68zm5.518 23.561c0 2.83-1.107 5.699-5.688 5.699-4.613 0-5.724-2.868-5.724-5.699V12.791h3.367v19.44c0 1.65.606 2.493 2.357 2.493 1.718 0 2.325-.843 2.325-2.493V12.79h3.363v18.868zM78.352 25.682v-1.62c0-1.317-.27-1.822-1.112-1.822-.841 0-1.077.372-1.077 1.552 0 1.72.134 1.822 2.256 3.679 2.457 2.16 2.93 2.87 2.93 5.33 0 3.31-1.144 4.557-4.514 4.557-2.424 0-3.771-1.011-3.771-3.476V31.49h2.964v2.324c0 1.048.437 1.319 1.179 1.319 1.043 0 1.178-.542 1.178-1.891 0-1.82-.1-2.09-1.92-3.645l-.709-.607c-2.525-2.16-2.557-2.43-2.557-4.76 0-3.205 1.55-4.217 4.377-4.217 2.358 0 3.604 1.045 3.604 3.07v2.6h-2.828zM83.938 22.442h-1.58v-2.227h1.58v-3.207l3.165-1.114v4.321h1.953v2.227h-1.953V33.41c0 1.284.572 1.52 1.515 1.52.372 0 .607-.035.808-.101v2.229c-.37.034-1.18.099-2.054.099-2.526 0-3.434-.743-3.434-2.262V22.442zM93.232 27.47h3.059v-3.307c0-1.517-.436-2.126-1.51-2.126-1.179 0-1.55.641-1.55 1.855v3.579zm-3.166-2.902c0-2.868 1.651-4.557 4.581-4.557 2.521 0 4.61 1.08 4.61 4.219v5.47h-6.025v3.608c0 1.586.539 2.025 1.55 2.025 1.174 0 1.509-.843 1.509-2.195v-1.549h2.967v2.393c0 1.72-1.213 3.376-4.712 3.376-2.391 0-4.48-1.08-4.48-4.22v-8.57zM100.974 24.568c0-2.867 1.65-4.557 4.444-4.557 2.86 0 4.105 1.419 4.105 3.376v2.53h-2.96v-1.855c0-1.281-.47-1.822-1.212-1.822-.74 0-1.21.677-1.21 1.99v9.314c0 1.013.368 1.587 1.21 1.587s1.213-.608 1.213-1.655v-2.022h2.96v2.564c0 2.566-2.12 3.34-4.071 3.34-2.392 0-4.479-1.08-4.479-4.22v-8.57zM111.374 12.791L114.542 12.791 114.542 27.405 114.607 27.405 117.47 20.215 120.433 20.215 117.369 27.808 120.837 37.155 117.47 37.155 114.607 28.45 114.542 28.45 114.542 37.155 111.374 37.155zM126.661 12.79h3.367l-3.535 4.894h-2.02l2.188-4.893zm-6.025 7.425H124l2.087 12.253h.069l2.12-12.253h3.165l-5.488 23.087h-2.966l1.486-6.381-3.837-16.706zM139.049 12.791L142.214 12.791 142.214 27.405 142.284 27.405 145.145 20.215 148.105 20.215 145.044 27.808 148.509 37.155 145.145 37.155 142.284 28.45 142.214 28.45 142.214 37.155 139.049 37.155zM149.652 20.215h2.965v1.755h.067c.741-1.587 1.282-1.959 2.83-1.959v3.173c-1.583 0-2.695.438-2.695 2.193v11.779h-3.167V20.215zM161.267 28.821c-1.48 0-1.885.811-1.885 3.476 0 2.497.235 2.834 1.247 2.834 1.076 0 1.65-.81 1.65-1.958V28.82h-1.012zm-4.811-5.13c0-2.498 1.516-3.68 4.509-3.68 2.896 0 4.477 1.147 4.477 4.116v13.028h-2.963v-1.753c-.37.369-.57.71-.908 1.046-.571.575-1.447.91-2.257.91-1.882 0-3.094-.573-3.094-4.625 0-3.405.27-4.182 1.146-5.093.74-.777 1.28-1.046 4.913-1.046v-2.735c0-.979-.237-1.62-1.314-1.62-.877 0-1.348.373-1.348 1.418v1.55h-3.161V23.69zM167.834 12.79H171v3.375h-3.166V12.79zm0 7.425H171V40.26c0 2.33-.808 3.21-4.815 3.241v-2.426c1.311-.036 1.65-.238 1.65-1.423V20.215z" transform="translate(-426 -3428) translate(426 3428)"/>
                <path fill="#1D1D1B" d="M4.191 22.27l-.023.16c.05.04.046-.04.023-.16M3.234 19.143c.052.134.11.297.19.522-.08-.238-.126-.37-.19-.522M4.933 24.105l.18.439c-.053-.144-.119-.303-.18-.439M3.234 19.143c-.007-.019-.02-.052-.025-.069v.004l.025.065zM7.602 11.13c-.142.071-.192.103-.2.12.106-.051.183-.092.2-.12M5.609 11.858L5.669 11.843 5.738 11.815zM4.296 19.145c.006 0 .012.002.018 0-.006-.008-.012-.006-.018 0M1.477 18.306c.006.04.016.09.03.152l-.03-.152zM1.756 13.977c.01-.02.02-.045.03-.07-.002-.003-.006-.009-.008-.015-.012.01-.026.018-.041.023-.016.01-.037.019-.055.03.01.02.018.041.027.064l.047-.032M4.191 23.057l-.023.158c.05.043.046-.039.023-.158M3.234 19.93c.052.134.11.296.19.521-.08-.238-.126-.37-.19-.521M4.933 24.892l.18.44c-.053-.146-.119-.304-.18-.44M6.028 27.467l-.12-.373-.014-.022c.006.075.048.203.134.395M3.234 19.93l-.025-.069v.004l.025.065zM7.602 11.916c-.142.072-.192.104-.2.12.106-.05.183-.091.2-.12M5.609 12.645L5.669 12.629 5.738 12.601zM32.505 41.956c-.16.068-.758.323-1.118.41.62-.149.656-.08 1.686-.466-.15.011-2.112.727-.568.056M32.505 41.956l.041-.02-.041.02M29.202 43.199c.145-.054.291-.112.45-.19-.125.057-.287.126-.45.19M12.706 44.713l.38.956c.031-.022-.094-.34-.14-.473-.082-.187-.372-.874-.24-.483M11.365 40.875c.132.398.067-.036.361.728l-.223-.731-.138.003zM8.536 34.143L9.051 35.564 8.915 35.097zM7.516 31.45L7.594 31.564 7.172 30.474zM19.68 46.768c-.069.017-.174.053-.26.077.236-.104.352-.148.26-.077M16.286 47.98c.865-.345 2.235-.889 3.135-1.136-.758.333-2.765 1.305-3.135 1.137M20.008 47.148l-1.108.345c.597-.32.535-.149 1.108-.345M19.517 47.049L19.533 46.927 20.146 46.797zM37.873 9.824c0 .129-.02.216-.101.186l.1-.186zM37.337 7.145c-.072-.228-.128-.39-.177-.525.068.15.11.283.177.525M38.81 12.075l-.189-.435c.069.133.137.288.188.435M44.372 36.528c-.44.09-.858.18-1.171.254.77-.396.903-.26 1.17-.254M29.32 2.257l-.074.121c-.135.012-.206 0 .073-.12M38.432 6.017c-.042.029-.085.02-.128-.018l-.031-.135.159.153zM39.667 13.772l.018.019.092.381c-.091-.187-.126-.316-.11-.4M25.777 3.535c-.171.018-.343.02-.503-.003.35-.097.539-.081.503.003M37.136 6.557l.003-.004c.005.017.015.049.022.067l-.025-.063zM39.77 9.66c-.061-.194-.122-.378-.183-.583.112.23.169.442.183.584M44.372 36.528l.372-.077c-.166.063-.276.08-.372.077M22.503 45.44c.346-.14.452-.115.54-.084-.2.049-.387.08-.54.084M14.432 46.122l.054.142c-.027-.056-.043-.103-.054-.142M9.371 32.68c-.006-.068-.011-.14-.003-.201.064.106.052.186.003.2M4.296 19.932c.006 0 .012.002.018 0-.006-.007-.012-.006-.018 0M1.477 19.093c.006.04.016.09.03.152l-.03-.152z" transform="translate(-426 -3428) translate(426 3428)"/>
                <path fill="#009641" d="M48.93 35.509h-.002l-.002.001-.049.012-.089.024c-.476.127-.779.24-.423.434-.345.057-1.491.335-1.156.085.436-.153 1.055-.408 1.638-.669l.029-.012.001-.001h.004c.222-.517.06-.144.11-.258v-.002l-.002-.007-.006-.014-.025-.054-.05-.11-.098-.21c-.063-.141-.128-.275-.189-.4-.122-.25-.233-.465-.326-.617-.044-.022-.1-.09-.162-.234.04.036.097.124.162.234.053.025.09-.017.103-.097-.036-.133-.055-.251-.04-.317.044.112.055.23.04.317.092.341.307.824.446 1.027.032-.166-.183-.667-.205-.885.125.168.223.413.304.678l.113.401.05.197.006.023.004.012v.007c.042-.094-.353.822-.186.435zm-.547-.144v-.006c.034-.077.062-.147.088-.207l.002.005c-.062.144-.109.251-.09.21v-.002zm.253-.593h.003c.128-.295.018-.039-.096.225l-.006.003c.05-.112.08-.183.099-.228zm-.39.043c-.07-.214-.164-.447-.263-.681-.198-.47-.418-.948-.536-1.304-.214-.498.362 1.028.08.861-.665-1.716-.638-2.177-.703-3.127-.003-.589.498.671.623.988.07.603.226 1.316.466 2.084.12.383.263.78.423 1.185l.095.228-.1.046c-.022-.088-.051-.181-.085-.28zm-5.343 3.537c-.134.037-.453.165-.351.058l.89-.323c-.174.086-.839.27-.539.265zm2.455-14.108l-.083-.451c.155.415.137.478.083.45l.066.377c-.446-.873-.179-.439-.066-.376zm-1.005-1.816c.175.068.625 1.283.684 1.632-.216-.5-.773-1.813-.684-1.632zm-.702-.262c-.062-.285-.078-.512.033-.466.186.678-.044.29-.033.466.038.174.088.357.15.528-.109-.317-.145-.46-.15-.528zm-.87-1.617l-.04-.113-.015.06-.595-1.742.61 1.682.055-.263-.015.376zm-.992-5.285c.067.102.134.231.196.403l-.196-.403c-.295-.45-.61-.443-.607-1.24l.607 1.24zm.47 1.253l.454 1.218c-.183-.375-.54-1.103-.453-1.218zm-7.324-14.35c.077-.027.151-.05.224-.073-.074.013-.154.03-.238.046l-.032-.063c.01.022.019.044.031.063-.454.09-.986.183-1.001.022.617-.132 1.248-.385 1.274-.627-2.182.446-.475.719-2.418 1.217-.547-.046-1.075.1-2.054.41.381-.301.169-.282.285-.508.677.006 1.44-.282 2.237-.62.398-.17.803-.349 1.212-.51.202-.08.407-.158.613-.225l.274-.085c-.048.038.048.178.039.247.114.699-.376.333.148 1.813l-.594-1.107zm-6.663 1.828l-1.03.364 1.075-.415-.045.05zm-2.635-.259c.105-.053.215-.102.349-.127l-.35.127c-.267.139-.438.312-.546.2l.547-.2zM8.973 10.61c-.634.132-.768.48-1.344.422.503-.446.971-.376 1.344-.422.05-.011.097-.023.159-.032l-.16.032zm-2.441 1.275l.365-.178c.243-.265-.62.13-.734.046.417-.235 1.48-.529 1.114-.348-.918.45.546.045-.048.365l.49-.212c-.74.476-.641.058-1.187.327zm-4.448 3.776c-.09-.201-.179-.408-.262-.606l.114-.038c.106.256.175.502.148.644zm.54 1.395c-.137.07.329 1.198.366 1.331-.117.268-.205-.17-.487-.551.107.113.038-.485-.211-.995l.332.215zm-1.106-2.144l-.004.002h-.003c-.083.195-.018.043.056-.127l.115-.056-.03-.068-.016-.037.05-.116h.002l.005.007.008.017.07.132.008.013.017-.008c-.004.008-.008.015-.01.023.005.012.011.025.018.037l-.048.033-.03.068-.017-.037-.1.064-.061.035-.03.018zm4.58 10.936c-.05.248-.141-.231-.302-.385l-.38-1.243c.346.13.413 1.079.682 1.628zm.452 4.064c-.107-.1-.322-.597-.432-.997.34.518.324.601.432.997zm.175 1.345c-.426-.696-.113-.694-.349-1.412.515.88.15.834.349 1.412zm2.297 1.39l-.153-.84c.092.19.362 1.034.153.84zm.404 1.753c.136.128.173.27.192.403.088.157.186.347.283.54.193.068-.019-.76-.022-1.001.107.392.097.774.379 1.24.017-.082.072-.03-.055-.344l.304.677c.11.87-.25.14-.606-.572-.04-.011-.095-.055-.187-.179-.067-.11-.075-.233-.096-.36-.08-.147-.156-.27-.207-.317l.015-.087zm1.816 3.193c.565 1.114.326 1.148.21 1.331.027.172.02.288-.033.31-.034-.159-.008-.245.033-.31-.043-.292-.198-.74-.434-1.149-.084.118.108.393.184.667-.09-.186-.286-.468-.395-.866.37.351.244.035.435.017zm.577 1.533l.215.495-.26.048.045-.543zM1.146 13.333l-.198.056-.025.006-.01.003H.912l-.739 1.713h.001l.002.012.015.05.026.099.11.399-.053-.05-.11-.399-.013-.05-.006-.025-.003-.012-.002-.006-.001-.004v-.002c0 .006.42-.975.76-1.76l.099-.028.199-.055-.051.053zm48.572 21.5l-.002-.004-.006-.015-.009-.03-.043-.117-.084-.232-.165-.444c-.196-.281.02.218-.083.124-.12-1-1.362-2.964-1.155-3.063-.231-.413-.46-.532-.565-.628-.125-.62-.349-1.333-.61-2.08l.154.56-.052-.047-.22-.795.027.023c-.666-1.855-1.549-3.95-1.978-5.702.208.88-.21.127-.262.23-.05-1.014-.806-2.95-1.466-4.519-.067.036-.173-.068-.155.146l-.236-1.007-.035.16c-.735-1.677-1.092-3.684-1.696-4.745.235.711.165.741.08.858-.475-1.226-.924-2.378-1.386-3.845.009.085.006.146-.02.158-.178-.365-.269-.843-.382-1.245l-.19.016c-.21-.763-.668-1.67-.875-2.591-.32-.262-.656-2.17-1.13-3.138-.11-.4.134.913-.281-.166.311-.3-.54-1.4-.176-1.642l-.13-.22-.063-.109-.017-.027V.694h-.002C36.524.724 34.91 0 34.91 0h-.001l-.002.004-.008.003-.013.008-.055.033-.44.257-.284-.116c-.651.69-1.28.315-2.418.903.08.018.213-.019.165.034-.402.11-1.295.436-.65.061-.63.254-2.815 1.014-1.769.842-.114-.088.807-.34 1.206-.45.017.19-.959.499-1.122.778-.037-.006-.174.015-.273.022l-.097.16c-1.26.282-2.412.897-3.372.997-.028.071-.22.195-.632.345l-.103-.207-1.26.505.715.077c-1.361.61-2.473.644-3.628 1.042-.154.474-2.274.747-3.134 1.452l.926-.255c-1.924.689-2.14 1.024-3.96 1.605 1.456-.716 1.492-.648 3.565-1.808-2.14 1.02-3.874 1.304-5.803 2.308.166.032.694-.112.234.17-.463-.029-1.89.759-1.679.425-.594.32-.624.564-.994.745l-2.2.569.081.017c-1.683.955-3.378 1.531-5.088 2.072l-1.288.405-.644.209-.04.013L0 15.18v.003l.002.005.003.01.008.02.025.08.054.162.11.327c.296.864.625 1.735 1.031 2.609l.086-.115.158.811c-.066-.43.303.402.414.418l.659 2.394c.12.01.294-.214.025-.762.461.826.58 1.825.867 2.588l-.003-.297.22.797.138-.065c.434 1.293 1.201 2.805 1.158 3.358l.169-.237.35 1.414-.15-.832c.643 1.492 1.372 3.853 1.5 4.176l.03-.174c.141.231.162.45.237.718l.049-.248C8 34.625 8.534 35.133 9.4 37.723c.305.68-.11-.401-.043-.438.25.336.505 1.264.524 1.477.12-.277-.363-1.323.116-.575.132.616.028-.466.39.565l-.098.496c.268.55.243.036.571.938.293 1.066-.78-1.132-.169.525.34.812 1.272 1.497 1.764 3.146.676 1.322.111-.882.795 1.048l-.313-1.285c.195.288.246.038.516.881.005.303.08.863.244 1.312-.511-1.858.907 1.45.501-.31l.233.62c-.018-.077-.003-.11.033-.074l.342.814c-.144-.528-.597-1.742-.189-1.256l.518 1.171c.014-.375.246.04.332-.075l-1.11-3.61c-.032.17.114.697-.048.544-.443-.907-.146-.824-.61-1.657l.04.434c.015-.087-.02-.216.07-.034.194.282.161.45.091.479-.262-.249-.518-1.174-.522-1.475-.467-1.13-.35-.131-.492-.366.007-.683-.755-1.896-.923-2.647l.024.517c-.53-.793-.681-1.629-.826-2.158l-.05.247c-.451-1.214-1.115-1.641-1.026-2.738l-.035.16c-.234-.477-.626-1.19-.68-1.72-.056.012-.156-.046-.25-.24.068-.34-.266-.797-.585-1.513.145.5-.141.437.005.968-.675-1.033-.154-1.13-.53-2.075-.342-.522.074.557.044.729-.455-1.508-1.707-2.79-1.618-3.889l.39.567c-.13-.618-.254-.93-.27-.844.089.181.07.26.055.344-.924-1.658-.75-2.87-1.54-4.601-.031.165.04.429-.027.466-.408-.777.126-.965-.57-2.209l.006.296c-.205-.365-.22-.7-.185-.747-.4.031-1.074-2.8-1.923-3.507-.02-.326-.146-.889-.306-1.456.024-.01.049-.018.073-.027.262-.103.477-.2.606-.285.716-.551-.814.028-.599-.304.632-.253 1.045-.172 1.956-.62.104.207-1.686 1.172.131.591l.202-.213c-.177.088-.412.231-.675.304-.564.077.246-.264.341-.369l1.925-.688c.23.172-.928.57-1.023.674 1.487-.645 3.162-1.696 4.62-2.1L9.46 11.9c1.857-.513.872-.83 2.436-1.026.726-.357-.366-.135.76-.601.317-.128.164.033.12.083 1.42-.47.527-.46 1.89-.758l-.369-.13c1.593-.442 3.358-.656 4.639-1.283-.15-.156-.962.187-1.342.173 1.92-.373 4.308-1.66 6.035-2.138-.434.357.926.058-.082.61-.368-.132-.803.223-1.38.422 1.123.16 3.732-1.777 4.191-1.431l.169-.284c.265-.074.964-.188.542.046l1.777-.843c-.695.114-2.173.325-2.516.693-.598.01.695-.425.144-.468 1.345-.177.7-.43 1.99-.864-.466.495 1.402-.135 1.397.018.394-.216 1.361-.455 1.754-.503.696-.25 2.14-1.043 3.316-1.448.599 1.19-.047.32.339 1.45l-.023-.513c.305.685.38.954.418 1.38l.007-.684c.178.363.482 1.046.344 1.11.097.076.157.089.196.073-.008.09.036.277.216.714-.073-.269-.161-.446-.093-.482.605 1.698.415.288.802 1.337-.01-.187.177.081.352.442-.387.124.375 2.201.383 2.83l.001-.01.403 1.46c-.082-.294.142-.03.344.366l-.03-.069c.234.422.201-.69.62.689l.166.746c-.034-.127.069-.035.123.022l.185.761c.79.968.625 2.167 1.312 3.402-.178-.364-.377-.946-.166-.749.143.237.251.633.274.855l.016-.085.745 2.572c.048-.252-.49-1.642-.103-1.08.318.299.417 1.083.58 1.532-.122-.017-.534-.801-.261.048.09.082.505.83.429.43.234.89.658 2.148.782 2.978.139.224.03-.169-.006-.301l-.05-.05c-.147-.53.223-.18-.277-1.146.293-.214.662 1.411 1.056 2.277l-.333-1.495c1.384 2.192 2.159 5.578 3.079 7.927-.374-.65-.503-1.26-.727-1.079.453 1.506.433 1.294.956 2.767l-.036-.131c.427.7.58 1.826 1.005 2.23.011-.383-.554-1.016-.277-1.148l.35.921.176.461.074.193-.323.151-.848.587c-.913.136-.71-.392-2.203.257l.513-.024c-.308.193-.519.3-.678.361.697-.14 1.45-.286 2.086-.398-.73.672-2.54.82-3.83 1.255.082.016.526-.145.696-.114-1.858.827-3.991 1.22-5.474 1.748-.558.389 1.253-.386 1.036-.052-.8.222-1.592.753-1.877.637.446.15-1.752.72-.184.404-2.713 1.218-5.86 2.166-8.718 3.114.172.03.199.102.104.207.944-.38 2.365-.85 2.965-.86-.562.39-1.544.388-1.688.545.347-.056.972-.307 1.04-.17-.746.48-1.287.435-1.867.635l.28-.196c-1.853.512-1.179-.105-3.033.722-.614.443.064.137.158.347-.476.093-1.814.893-2.367.85l1.133-.47c-.821.257-1.577.558-2.16.703.074.022.139.052.314.004-.66.181-1.467.523-1.848.508l-.089.301c.337-.251 1.464-.719 1.705-.668-.03.243-1.225.575-1.72.79 2.236-.815 2.406-.47 4.219-1.362l-.345.056c1.098-.637 2.412-.827 3.428-1.239-.268.16-.295.268-.147.253 2.192-1.076 4.466-1.822 6.998-2.951l.862-.083-.02-.19c1.228-.575.368.133 1.173-.206-.307.123-.264.073-.343.055 1.537-.384.749-.483 1.59-.754-.466-.026-1.606.562-1.337.175 1.536-.386 3.76-1.393 4.135-1.064 1.323-.62 2.848-1.2 4.328-1.73.74-.267 1.47-.521 2.158-.763.344-.12.677-.239.995-.354l.06-.021.007-.002c-.007.002.552-1.278.552-1.278l-.001-.001z" transform="translate(-426 -3428) translate(426 3428)"/>
                <path fill="#1D1D1B" d="M1.756 14.764c.01-.02.02-.046.03-.07l-.008-.014c-.012.008-.026.016-.041.022-.016.008-.037.019-.055.03.01.02.018.04.027.063l.047-.03M8.33 30.416c.11.224.168.38.207.51-.071-.159-.143-.328-.207-.51M29.68 4.273c.006-.047.077-.1.182-.155-.005.027-.048.072-.182.155M31.545 3.64L31.616 3.612 31.68 3.604zM22.982 45.032c-.466-.026.365-.18.68-.304-.315.125-.382.3-.68.304M25.584 44.353c-.21.02-.492.09-.82.202.2-.086.431-.155.82-.202M23.527 45.078c.468-.229.887-.405 1.235-.523-.314.135-.556.31-1.235.523M32.247 41.65c-.435.042-1.16.399-1.16.399 1.593-.754-.414-.082-.583-.112 1.03-.364 1.095-.227 1.743-.287M34.431 40.85c-.167.067-.324.135-.445.201.15-.092.298-.152.445-.202M34.999 40.498c.575-.198.825-.15 1.121-.153-.648.363-1.164.332-1.69.504.403-.162.8-.304.569-.351M46.581 31.812c.037.136.162.448.095.485l-.378-.947c-.109-.398.193.278.283.462M45.543 28.176c-.289-.762-.316-.297-.426-.699l.258-.052.168.75zM46.932 28.11L46.995 28.343 46.905 28.088zM43.86 24.617l-.06.63c-.184-.663.026-.757.06-.63M42.537 21.796L42.63 22.274 42.16 20.85zM41.29 18.258L41.185 18.157 40.875 17.175zM14.485 10c-.233-.17 1.324-.679 1.74-.912-.192.407-1.25.385-1.74.912M7.704 29.134l-.522-1.473c.535 1.091.124.314.522 1.473" transform="translate(-426 -3428) translate(426 3428)"/>
                <path fill="#C6C6C6" d="M25.476 23.446h-1.175c-2.561 0-4.645 1.952-4.645 4.35v9.071h1.08v-9.07c0-1.803 1.599-3.268 3.565-3.268h1.175c1.967 0 3.566 1.465 3.566 3.267v9.071h1.08v-9.07c0-2.4-2.084-4.35-4.646-4.35zM14.09 37.472h1.08V22.213h-1.08v15.259zm21.548-25.195v2.831h-.974v-2.831H31.53v2.831h-.972v-2.831h-3.133v2.831h-.972v-2.831h-3.13v2.831h-.975v-2.831h-3.131v2.831h-.972v-2.831h-3.133v2.831h-.972v-2.831h-3.132v7.236h1.08V13.36h.972v2.831h3.131V13.36h.974v2.831h3.133V13.36h.97l.002 2.29v.541h3.133V13.36h.972v2.831h3.13V13.36h.973v2.831h3.132V13.36h.973v2.831h3.132V13.36h.973v8.44H26.4v1.083h8.21v14.864l1.079-.275V22.883h3.079V12.277h-3.131z" transform="translate(-426 -3428) translate(426 3428)"/>
                <path fill="#005DA9" d="M3.534 36.478c-.013.002-.025.006-.04.017l.04-.017zM3.534 39.002c-.013.002-.025.008-.04.017l.04-.017zM3.534 41.526c-.013.004-.025.008-.04.02l.04-.02zM3.534 44.052c-.013.002-.025.006-.04.017l.04-.017zM45.785 36.574c-.024-.018-.054-.034-.07-.051-.043.01-.006.027.07.05M45.785 36.574c.248.178.667.377.935.5.015-.234-.68-.432-.935-.5M46.12 36.377l-.326-.206c.176.097.1.176.325.206M45.845 36.415L45.643 36.332 45.796 36.482zM27.558 36.945l.004.129c.031-.043.02-.085-.004-.129M26.701 36.33c.045.01.091.028.16.056-.07-.035-.108-.054-.16-.055M28.097 37.114l.137.043c-.042-.023-.092-.036-.137-.043M38.048 37.555c-.112.016-.257.037-.416.041.108.039.188.146.416-.041M22.797 35.357l.024-.072c-.098.03-.071.052-.024.072M26.766 35.343l.045.023c.02-.018.035-.043.038-.081l-.083.058zM28.918 37.36l-.092-.088-.008.003c.002.04.037.067.1.085M21.356 35.468c.065.042.132.064.199.081.004-.054-.072-.096-.199-.08M26.701 36.331L26.68 36.325 26.681 36.328zM28.13 35.686c-.035-.043-.102-.083-.19-.094l.19.094zM37.5 37.602l.133-.005c-.037-.014-.079-.017-.132.005M44.731 36.365c-.033-.051-.083-.095-.14-.134.008.053.026.105.14.134M3.534 37.265c-.013.002-.025.006-.04.017l.04-.017zM7.77 36.55l-.072-.057c-.008.038.018.07.072.057" transform="translate(-426 -3428) translate(426 3428)"/>
                <path fill="#005DA9" d="M37.97 36.53c-.089.03-.221.087-.301.121.035-.034.3-.099.168-.124.048-.01.153-.056.132.003zm-1.344.985c-.28.074-.788.275-.988.407-.005.027-.027.05-.075.065.011-.019.04-.042.075-.065.006-.032-.01-.068-.038-.094-.046-.003-.085-.013-.108-.037.038-.009.079.009.108.037.115.01.27-.056.33-.115-.06-.053-.219.003-.294-.024.196-.214.875.091.581-.313.114.022.498.022.409.14zm-4.012.006l-.12-.085c.126.025.139.057.12.085l.103.074c-.298.028-.14-.017-.103-.074zm-.638.09c.061-.093.431.008.529.07-.165 0-.59-.073-.529-.07zm-.246.375c-.08-.059-.132-.128-.091-.183.196.114.05.128.09.183.05.033.106.06.16.077-.1-.034-.143-.058-.16-.077zm-.636.007c-.182-.09-.366-.166-.538-.271.172.094.352.161.53.241l-.034-.13.069.145-.035-.015.008.03zm-.468-.99c-.114-.018-.374-.101-.352-.19.122.064.239.137.352.19zm-1.157-.515l.432.123c.043 0 .09.01.141.04l-.141-.04c-.187-.003-.316.182-.432-.123zm-6.938-.18c-.115.023-.23.039-.343.066l.355-.092-.012.026zm-1.012-.64c.035-.023.074-.037.123-.033l-.123.033c-.089.056-.134.15-.19.055l.19-.055zm-5.574 1.724c.186-.167.298.017.408.08-.184-.074-.262.121-.408-.08zm-.406.269l.122-.014c.103-.107-.178-.094-.192-.187.142-.034.454.076.335.092-.303.04.137.194-.065.24l.162-.008c-.27.122-.18-.149-.362-.123zm-1.668-.912l.025-.016.19.14-.023.016-.192-.14zm-.608 1.09c.239.056.485.16.566.105 0 .104-.517.094-.566-.105zm-.445-.199c.04-.1-.314-.261-.348-.289.009-.176.114-.047.295-.076-.092-.008.025.209.22.25l-.167.115zm-2.722-1.193c-.036-.12.09-.01.17-.057.118.067.255.121.356.2-.145.153-.324-.115-.526-.143zM9 35.39c.045-.043.236-.027.371.028-.218.062-.241.02-.37-.028zm-.39-.297c.254-.077.206.138.444.2-.343.077-.26-.157-.445-.2zm-.818 1.172c.089.046.22.093.294.138-.048.012-.416-.053-.294-.138zm-.546.13c-.122-.025-.234-.13-.391-.05.024.032.006.058.107.048l-.219.043c-.273-.124-.036-.219.204-.282.008-.026.023-.053.067-.086.04-.02.078.006.118.024.05-.02.094-.04.113-.065l.025.034c-.051.06-.097.051-.138.031-.053.022-.118.043-.185.062-.031.118.232.18.3.24zm-1.045.166c-.358.152-.373-.025-.437-.146-.042-.021-.094-.048-.099-.09.05.01.09.042.099.09.097.032.244.023.378-.053-.038-.087-.13-.012-.22-.018.061-.023.155-.1.286-.088-.115.185-.011.166-.007.305zm-.64.121l-.03-.194.188.143-.157.051zm39.656-.483c-.71-.249-.692-.549-1.373-.519l.104.07c-.37.085-.88-.188-1.147-.184.083-.035.1-.101.069-.134-.87.101-1.64.08-2.536.367l-.313-.112.019.139c-.415.178-.145-.162-.423-.07.107-.032.093-.005.126.022-.552-.002-.242.21-.534.253.179.097.55-.118.483.108-.519-.028-1.287.391-1.451.114-.886.575-1.83.807-2.572.937-.079.081.07.03.047.082-.315-.102-.915.328-.95.154-.129.07-.173.2-.206.249-.195-.064-.417-.08-.65-.1l.173.04-.018.024-.245-.058.01-.01c-.577-.032-1.254-.06-1.715-.354.235.15-.035.18-.017.252-.23-.29-.782-.46-1.238-.63-.02.053-.075.08-.04.147-.075-.075-.153-.148-.22-.22 0 .025.01.057.003.078-.526-.199-.968-.767-1.397-.816.212.134.19.187.172.28-.398-.193-.73-.358-1.248-.623.021.025.034.05.026.068-.135-.016-.272-.13-.396-.202l-.057.128c-.225-.127-.573-.151-.893-.313-.187.125-.68-.243-1.124-.204-.173-.042.37.177-.116.145-.062-.151-.102-.158-.183-.163-.231-.02-.281-.018-.32-.181l-.359.115-.086-.155c-.285.322-.48-.112-.917.046.028.03.076.037.056.061-.15-.017-.475.018-.238-.105-.205.025-1.059.13-.667.221-.05-.089.341-.083.46-.068-.003.145-.329.136-.418.317-.013-.011-.062-.024-.101-.039l-.028.095c-.457-.053-.852.184-1.215.098-.006.045-.065.102-.211.144l-.063-.16-.22.082c-.272.114-.172.077-.278.122.125.036.1.135.354.119-.484.273-.888.129-1.298.294.046.305-.649.2-.835.531l.286-.026c-.565.162-.603.362-1.164.409.419-.217.454-.154.99-.612-.584.359-1.122.214-1.674.48.051.062.212.082.075.174-.142-.125-.571.09-.501-.098-.18.075-.2.241-.315.275-.22-.064-.434-.117-.64-.198l.018.033c-1.137.377-1.918-.497-2.89-.786l-.02.093-.177-.217c.09.128-.18.026-.228.086-.208-.177-.412-.355-.634-.534-.055.067-.082.252.11.306-.32-.046-.527-.362-.788-.48l.058.112-.236-.172-.04.108c-.486-.275-1.04-.271-1.163-.5l.004.19c-.135-.089-.293-.176-.473-.26.094.062.194.123.28.187-.65-.119-1.373-.314-1.512-.328l.063.072c-.128.027-.22-.024-.35-.05l.096.106c-.789-.062-1.087.16-2 .177-.247.056.145.013.157.07-.128.094-.453.072-.528.04.1.145.464.032.2.208-.213-.042.16.123-.195.153l-.175-.178c-.218.08-.013.166-.331.219-.377-.003.38-.329-.2-.224-.29.092-.473.614-1.028.697-.415.27.344.204-.29.402.14-.021.295-.023.437-.028-.073.09.002.168-.241.214-.12-.033-.323-.052-.464 0 .617-.108-.39.433.204.388l-.19.076c.026-.003.04.013.034.032l-.234.122c.168-.028.524-.167.423.045l-.323.187c.14.061.04.158.099.231.192-.045.316-.061.553-.129l.335-.09c-.104.066.128-.006.177 0-.064-.05-.229-.04-.197-.124.259-.156.266.03.494-.141l-.141-.048c.031.026.07.024.017.054-.072.083-.133.035-.154-.02.054-.144.348-.152.449-.101.338-.11.013-.22.078-.275.22.136.605-.165.811-.11-.07-.028-.09-.07-.15-.098.215-.194.515-.126.67-.095l-.076-.094c.378-.036.552-.388.859-.044l-.042-.065c.127-.04.452-.106.482-.008.01-.042.054-.093.139-.101.147.15.285.045.497.037-.163-.053-.069-.223-.23-.28.354-.173.32.234.627.262.198-.071-.157-.12-.198-.196.473.144 1.07-.28 1.293.172l-.232.058c.166.127.268.153.254.113-.063-.005-.074-.043-.088-.081.645-.03.77.506 1.323.674-.012-.08-.08-.137-.06-.191.279.053.093.43.55.49l-.045-.108c.154.022.203.173.175.186.146-.28.836.444 1.319.199.128.258.73.596.952.553.323-.103-.188-.266-.037-.404.206.058.276.259.61.265-.018.171-.73.203-.12.432l.107-.072c-.067-.001-.164.012-.251-.028-.16-.137.135-.09.184-.126.217.07.44.113.663.164.029.19-.379.087-.428.126.562.062 1.221-.172 1.718-.065l-.051-.066c.648.131.342-.353.867-.102.256-.083-.115-.178.27-.251.11-.017.057.062.04.087.493-.011.176-.208.648-.13l-.134-.17c.528.02 1.184.179 1.595-.084-.083-.13-.345-.008-.49-.081.683.08 1.412-.606 1.936-.668-.1.186.359.162.08.404-.153-.141-.26.04-.41.093.43.26 1.054-.706 1.258-.367l.025-.168c.085-.002.319.042.198.13.172-.092.352-.176.532-.258-.225-.061-.732-.176-.812.025-.214-.096.202-.179 0-.303.465.113.205-.183.634-.245-.126.255.481.177.486.29.124-.078.416-.023.553.027.235-.026.748-.26 1.125-.198-.14-.064-.372-.134-.368-.273.196.063.398.049.432-.106-.699-.256-.195.364-.813.239-.17-.164-.346-.185-.675-.18.126-.129.056-.163.094-.298.452.31 1.046-.117 1.578.088.261.119-.035.342.543.414-.092.04-.441.049-.431.1.388-.097.152.12.472.177-.042-.043-.042-.087-.124-.132.207-.013.235.002.381.113-.052-.07-.138-.147-.17-.209.112-.022.37-.009.356.102.04-.041.054-.08.058-.111.022.035.076.062.223.074-.083-.031-.145-.027-.14-.085.544.115.154-.192.494-.126-.047-.052.06-.096.185-.091-.073.289.575.489.693.711v-.005c.155.095.23.147.357.25-.075-.057.046-.097.181-.078l-.02-.005c.152.01-.038-.374.336-.124l.178.177c-.033-.027.022-.052.051-.065l.186.176c.458-.1.56.452 1.025.524-.127-.036-.294-.14-.177-.187.093.007.195.096.237.165l-.007-.04c.218.181.489.365.745.532-.038-.114-.492-.329-.242-.346.172-.07.353.156.504.218-.045.069-.353.034-.082.178.05-.024.345-.008.237-.108.265.173.686.332.936.522.096-.016-.036-.076-.079-.096l-.025.017c-.176-.085.015-.203-.362-.208.034-.258.522.055.847.058-.158-.08-.31-.172-.459-.267.861-.166 1.914.257 2.759.156-.231.106-.441.045-.397.25.532.051.459.014.985-.026l-.045-.004c.245-.153.654-.03.78-.26-.137-.078-.347.195-.405-.03.215-.034.423-.094.632-.142-.23-.073-.628.148-.88.162-.172.049.357-.044.307.12-.605.124-.772-.017-1.084-.196-.19-.142.236-.186.34-.21.401.19.988.174 1.519-.109l.252-.27c.32.042.323.393.807.14l-.197-.05c.088-.093.15-.14.203-.162-.247.012-.512.001-.736-.02.177-.347.828-.192 1.25-.359-.036-.02-.177.04-.25.001.56-.354 1.294-.34 1.765-.439.159-.179-.411.055-.372-.137.265-.03.504-.255.616-.126-.176-.188.574-.175.033-.249.884-.37 2.016-.32 2.91-.159-.039-.07-.02-.124.017-.17-.328-.01-.801-.056-1.002-.194.21-.132.525.12.581.058-.111-.062-.331-.04-.343-.156.283-.155.454.046.652.062l-.11.057c.623.174.323.397.96.388.251-.112.012-.114.028-.287.138.083.664-.042.791.17l-.392-.045c.267.082.523.133.691.235-.01-.041-.016-.082-.068-.107.198.104.471.164.546.305l.11-.16c-.148.037-.525-.04-.565-.16.077-.146.436.047.604.089zM12.99 36.208l-.032-.038.032.038z" transform="translate(-426 -3428) translate(426 3428)"/>
                <path fill="#005DA9" d="M8.512 36.446c-.062-.013-.12-.017-.178-.017.045.014.095.023.178.017M23.036 36.78c.042-.03.055-.054.055-.072-.032.018-.055.041-.055.073M23.665 36.743L23.645 36.736 23.623 36.74zM44.291 36.441c.096.018.31.196.223.022-.063-.095-.127-.001-.223-.022M43.795 36.124c.08.056.14.073.196.079-.076-.021-.142-.047-.196-.079M43.795 36.124l-.057-.04c.018.015.037.027.057.04M43.992 36.203c.112.03.252.045.416.052-.208-.09-.31-.04-.416-.052M41.86 36.109c0-.002-.246.064-.388-.004.21.11.226.223.559.232-.044-.067-.71-.1-.17-.228M40.886 36.129c-.04.02-.094.033-.148.044.048-.002.098-.012.148-.044M40.165 36.183c.107.058.197.142.39.118-.085-.078.048-.106.183-.129-.176.003-.36-.113-.573.011M34.991 38.728c-.065.024-.313.083-.172.097l.347-.056c-.013-.056-.127-.038-.175-.041M33.443 38.65c.139.037 0-.114.27-.1l-.25-.094-.02.195zM33.839 37.558L33.83 37.57 33.91 37.575zM32.552 38.893l-.162-.242c-.044-.017-.068.154.162.242M30.978 38.475c.157.076.32.138.483.207l-.144-.109c-.115-.033-.23-.059-.34-.098M30.081 38.056l.06-.024c-.131-.059-.225-.115-.341-.172.094.065.175.129.281.196M18.142 38.358c.158-.262.542-.06.585-.306-.134.09-.672.145-.585.306M9.41 36.536c-.142-.047-.295-.085-.446-.12.352.1.09.12.446.12M45.785 39.099c-.024-.02-.053-.035-.07-.053-.043.01-.007.027.07.053M45.785 39.099c.248.176.667.376.937.5.013-.236-.682-.432-.937-.5M46.12 38.902l-.326-.207c.176.097.1.177.325.207M45.845 38.939L45.643 38.857 45.796 39.006zM27.558 39.47l.004.128c.031-.041.02-.084-.004-.129M26.702 38.856c.043.008.09.027.158.054-.07-.034-.107-.053-.158-.054M28.097 39.638l.137.044c-.042-.024-.092-.037-.137-.044M38.048 40.08c-.112.014-.257.035-.416.041.108.038.188.145.416-.041M22.798 37.88l.023-.071c-.1.03-.071.052-.023.072M26.766 37.867l.045.023c.02-.017.035-.043.038-.08l-.083.057zM28.918 39.884l-.092-.086-.008.003c.002.04.037.065.1.083M21.356 37.993c.065.04.132.062.199.08.003-.054-.072-.095-.199-.08M26.702 38.856L26.68 38.849 26.682 38.853zM28.13 38.21c-.035-.042-.102-.082-.19-.094l.19.094z" transform="translate(-426 -3428) translate(426 3428)"/>
                <path fill="#005DA9" d="M37.5 40.127l.133-.006c-.037-.015-.079-.016-.132.006M44.731 38.89c-.033-.053-.083-.096-.14-.133.008.051.026.104.14.132M3.534 39.79c-.013 0-.025.006-.04.017l.04-.018zM7.77 39.075l-.072-.057c-.008.038.018.07.072.057M12.99 38.733l-.032-.038.032.038z" transform="translate(-426 -3428) translate(426 3428)"/>
                <path fill="#005DA9" d="M37.97 39.053c-.089.031-.221.089-.301.123.035-.034.3-.1.168-.124.048-.01.153-.058.132.001zm-1.344.987c-.28.073-.788.274-.988.406-.005.028-.027.052-.075.066.011-.02.04-.042.075-.066.006-.032-.01-.066-.038-.093-.046-.002-.085-.014-.108-.038.038-.008.079.01.108.038.115.007.27-.056.33-.116-.06-.053-.219.003-.294-.025.196-.213.875.093.581-.312.114.023.498.023.409.14zm-4.012.006l-.12-.085c.126.025.139.057.12.085l.103.073c-.298.028-.14-.016-.103-.073zm-.637.09c.06-.093.43.006.528.07-.165-.001-.59-.073-.528-.07zm-.247.375c-.08-.059-.132-.128-.091-.183.196.114.05.127.09.183.05.033.106.06.16.076-.1-.033-.142-.057-.16-.076zm-.636.006c-.182-.09-.366-.166-.538-.271.172.094.352.162.53.241l-.034-.13.069.146-.035-.016.008.03zm-.468-.99c-.114-.018-.374-.1-.352-.19.122.064.239.137.352.19zm-1.157-.513l.432.121c.043 0 .09.01.141.04l-.141-.04c-.187 0-.316.183-.432-.121zm-6.938-.18c-.115.022-.23.038-.343.065.116-.037.236-.062.355-.093l-.012.027zm-1.012-.642c.035-.022.074-.037.123-.033l-.123.033c-.089.056-.134.15-.19.056l.19-.056zm-5.574 1.725c.186-.168.298.015.408.079-.184-.073-.262.121-.408-.079zm-.406.267l.122-.013c.103-.107-.178-.094-.192-.186.142-.034.454.076.335.09-.303.04.137.195-.065.24l.162-.007c-.27.123-.18-.148-.362-.124zm-1.668-.91l.025-.016.19.138-.023.017-.192-.14zm-.608 1.089c.239.057.485.16.566.106 0 .104-.517.094-.566-.106zm-.445-.199c.04-.1-.314-.261-.348-.29.009-.173.114-.046.295-.075-.092-.007.025.208.22.25l-.167.115zm-2.722-1.193c-.036-.118.09-.01.17-.057.118.068.255.121.356.199-.145.155-.324-.114-.526-.142zM9 37.915c.045-.043.236-.026.371.027-.218.062-.241.022-.37-.027zm-.39-.297c.254-.078.206.137.445.199-.344.078-.261-.157-.446-.199zm-.818 1.171c.089.046.22.094.294.139-.048.011-.416-.053-.294-.139zm-.546.13c-.122-.024-.234-.13-.391-.049.024.032.006.057.107.05l-.219.04c-.273-.124-.036-.218.204-.281.008-.027.023-.054.067-.087.04-.019.078.006.118.025.05-.021.094-.04.113-.065l.025.034c-.051.06-.097.051-.138.031-.053.022-.118.041-.185.062-.031.12.232.18.3.24zm-1.045.167c-.358.15-.373-.026-.437-.147-.042-.02-.094-.047-.099-.088.05.01.09.041.099.088.097.032.244.023.376-.053-.036-.086-.128-.011-.217-.018.06-.023.154-.098.285-.087-.117.184-.011.166-.007.305zm-.64.121l-.03-.194.188.142-.157.052zm39.656-.484c-.71-.249-.692-.548-1.373-.52l.104.07c-.369.087-.88-.186-1.148-.182.084-.035.102-.101.07-.134-.87.1-1.64.08-2.536.367l-.313-.113.019.14c-.415.177-.145-.163-.423-.073.107-.03.093-.003.126.025-.552-.003-.242.208-.534.253.179.096.55-.12.483.108-.519-.028-1.288.39-1.451.112-.886.577-1.83.807-2.572.938-.079.082.07.03.047.083-.315-.103-.915.327-.95.154-.129.07-.173.2-.206.249-.195-.064-.415-.081-.65-.1l.173.04-.018.024-.245-.057.01-.01c-.577-.034-1.254-.061-1.715-.355.235.15-.035.18-.017.251-.23-.289-.782-.46-1.238-.629-.02.053-.075.08-.04.147-.075-.076-.153-.148-.22-.22 0 .024.01.056.004.078-.527-.198-.969-.767-1.398-.816.212.134.19.186.172.28-.398-.193-.73-.359-1.248-.623.021.024.034.048.026.067-.135-.015-.272-.13-.396-.201l-.057.127c-.224-.127-.573-.15-.893-.313-.187.125-.68-.242-1.124-.204-.172-.042.372.178-.116.146-.062-.151-.1-.16-.18-.164-.234-.02-.284-.017-.322-.18l-.36.115-.086-.156c-.285.323-.48-.11-.917.047.026.03.076.037.056.062-.15-.019-.475.017-.238-.107-.207.025-1.058.13-.666.222-.05-.089.339-.083.46-.068-.004.143-.33.136-.419.317-.013-.012-.062-.024-.101-.04l-.028.094c-.457-.051-.852.186-1.215.099-.006.045-.065.103-.211.145l-.063-.161-.22.083c-.27.113-.172.076-.277.122.124.036.101.134.352.118-.483.273-.885.13-1.297.295.046.305-.649.199-.835.531l.286-.027c-.565.163-.603.362-1.164.409.419-.216.454-.154.99-.61-.584.356-1.122.212-1.674.478.051.062.212.082.075.175-.142-.126-.571.089-.501-.1-.18.077-.2.241-.315.277-.22-.066-.434-.117-.64-.2l.018.035c-1.137.376-1.918-.497-2.89-.786l-.02.093-.177-.217c.09.127-.18.026-.228.085-.208-.176-.412-.356-.634-.533-.055.066-.082.252.11.306-.32-.047-.527-.362-.788-.48l.058.11-.236-.17-.04.106c-.486-.274-1.04-.269-1.164-.5l.005.193c-.135-.09-.291-.177-.473-.262.095.063.195.124.28.188-.65-.12-1.373-.315-1.512-.33l.063.074c-.128.027-.22-.024-.35-.052l.096.108c-.789-.063-1.087.16-2 .175-.247.057.145.014.157.072-.128.094-.453.072-.528.04.1.144.464.032.2.208-.213-.044.16.122-.195.152l-.175-.177c-.218.08-.013.165-.331.218-.377-.002.38-.329-.2-.223-.29.09-.473.614-1.028.697-.415.27.344.203-.29.401.14-.021.295-.023.437-.027-.073.088.002.168-.241.214-.12-.032-.323-.054-.464 0 .617-.11-.39.433.204.386-.07.029-.126.05-.19.078.026-.003.04.012.034.032l-.234.121c.168-.027.524-.167.423.045l-.323.187c.14.061.04.159.099.232.192-.046.316-.062.553-.13l.335-.09c-.104.067.128-.005.177 0-.064-.05-.229-.04-.197-.124.259-.155.266.031.494-.14l-.141-.049c.031.026.07.024.017.054-.072.084-.133.034-.154-.018.054-.144.348-.154.449-.103.338-.11.013-.22.078-.275.22.137.605-.166.811-.11-.072-.029-.09-.07-.15-.098.215-.193.515-.124.67-.094l-.076-.094c.378-.035.552-.39.859-.045l-.042-.065c.128-.04.452-.105.482-.008.01-.042.054-.092.139-.1.147.15.285.044.497.035-.163-.052-.069-.222-.23-.277.354-.175.32.232.627.26.198-.07-.157-.12-.198-.195.473.145 1.07-.28 1.293.172l-.232.058c.166.125.268.15.254.112-.063-.004-.074-.043-.088-.081.645-.03.77.506 1.323.674-.012-.08-.08-.136-.06-.19.28.052.093.43.55.49l-.045-.109c.155.023.203.173.175.186.146-.28.836.444 1.319.2.128.258.73.596.952.552.323-.103-.188-.265-.037-.403.206.057.276.259.61.264-.018.172-.73.202-.12.433l.107-.073c-.067 0-.164.014-.251-.028-.16-.137.135-.088.184-.126.217.07.44.114.663.165.029.19-.379.086-.428.126.562.06 1.221-.174 1.718-.065l-.05-.067c.647.132.341-.353.866-.102.256-.082-.115-.177.27-.25.11-.017.057.061.04.087.493-.012.176-.21.648-.13l-.134-.17c.528.02 1.185.177 1.595-.085-.083-.129-.345-.009-.49-.082.683.081 1.412-.605 1.936-.666-.1.186.36.162.08.404-.153-.142-.26.04-.41.094.427.259 1.054-.706 1.258-.368l.026-.169c.084-.002.318.042.197.13.172-.091.352-.176.532-.258-.225-.06-.73-.174-.812.025-.214-.095.202-.18 0-.303.465.114.205-.182.634-.244-.126.255.481.176.486.29.124-.08.416-.024.553.026.235-.026.748-.26 1.125-.198-.14-.064-.372-.133-.368-.273.196.064.398.05.432-.107-.699-.255-.195.365-.811.24-.172-.163-.348-.186-.677-.18.126-.127.056-.162.094-.298.452.31 1.046-.116 1.578.088.261.12-.035.342.543.414-.091.04-.443.048-.431.101.387-.096.152.121.47.176-.04-.042-.04-.087-.122-.132.206-.012.235.003.383.115-.053-.071-.141-.149-.172-.211.113-.02.37-.008.356.105.04-.045.054-.08.058-.113.022.035.076.062.223.073-.082-.032-.145-.027-.14-.084.544.113.154-.194.494-.127-.047-.05.06-.095.185-.09-.073.288.575.488.693.71v-.004c.155.094.23.147.357.25-.075-.058.046-.099.181-.078l-.02-.005c.152.01-.038-.375.336-.124l.178.176c-.033-.026.022-.051.051-.065l.186.177c.458-.1.56.452 1.025.524-.127-.034-.294-.142-.177-.187.093.006.195.094.237.165l-.007-.041c.218.182.489.364.745.533-.038-.115-.492-.33-.242-.345.172-.073.353.155.504.217-.045.068-.353.035-.082.176.05-.022.345-.007.237-.107.265.174.686.333.936.524.096-.017-.036-.078-.079-.099l-.025.018c-.176-.084.015-.202-.36-.207.032-.259.52.054.845.057-.158-.08-.31-.17-.459-.266.861-.167 1.914.255 2.759.156-.231.105-.441.045-.397.25.532.05.459.013.985-.027l-.045-.004c.245-.152.654-.03.78-.26-.137-.077-.347.196-.404-.03.214-.033.422-.093.631-.141-.23-.073-.628.148-.88.16-.172.05.357-.042.307.122-.605.123-.772-.019-1.084-.197-.19-.141.236-.185.34-.21.401.19.988.174 1.519-.108l.252-.268c.32.039.323.39.807.136l-.197-.048c.088-.094.15-.14.203-.162-.247.012-.512.001-.736-.02.177-.347.828-.193 1.25-.36-.036-.02-.177.042-.25.001.56-.353 1.294-.339 1.765-.44.159-.177-.411.056-.372-.135.265-.03.504-.255.616-.126-.176-.19.574-.176.033-.249.884-.37 2.016-.319 2.91-.159-.016-.068-.036-.126.017-.17-.328-.01-.801-.056-1.002-.194.21-.132.525.12.581.057-.111-.062-.33-.04-.343-.155.283-.155.454.044.652.062l-.11.057c.622.174.323.396.96.388.251-.112.012-.115.028-.287.138.083.663-.043.791.17l-.392-.045c.267.083.523.133.691.235-.01-.042-.014-.082-.068-.108.198.105.471.164.546.306l.11-.16c-.148.037-.525-.042-.565-.16.077-.146.436.046.604.088z" transform="translate(-426 -3428) translate(426 3428)"/>
                <path fill="#005DA9" d="M8.512 38.97c-.062-.013-.12-.016-.178-.017.045.014.095.023.178.017M23.036 39.305c.042-.032.055-.054.055-.072-.032.018-.055.039-.055.072M23.665 39.267L23.645 39.26 23.624 39.263zM44.291 38.965c.096.018.31.196.223.022-.063-.095-.127-.001-.223-.022M43.795 38.648c.08.056.14.074.196.08-.076-.022-.142-.047-.196-.08M43.795 38.648c-.018-.012-.035-.023-.057-.04.018.015.037.028.057.04M43.992 38.728c.112.03.252.043.416.05-.208-.087-.31-.04-.416-.05M41.86 38.634c0-.002-.246.064-.388-.004.21.109.226.222.559.232-.044-.067-.71-.1-.17-.228M40.886 38.653c-.04.02-.094.033-.148.044.048-.001.098-.012.148-.044M40.165 38.708c.107.058.197.14.39.117-.085-.077.048-.106.183-.128-.176.003-.36-.113-.573.011M34.991 41.253c-.065.023-.313.081-.172.097l.347-.056c-.013-.057-.127-.037-.175-.041M33.443 41.175c.139.037 0-.113.27-.099l-.25-.095-.02.194zM33.839 40.083L33.83 40.095 33.91 40.099zM32.552 41.418l-.162-.243c-.044-.017-.068.154.162.243M30.978 40.999c.157.076.32.139.483.208l-.144-.11c-.113-.034-.23-.059-.34-.098M30.081 40.58l.06-.023c-.131-.058-.225-.116-.341-.173.094.065.175.129.281.196M18.142 40.883c.158-.263.542-.06.585-.306-.134.09-.672.145-.585.306M9.41 39.061c-.142-.048-.293-.084-.447-.121.353.1.092.12.447.121M45.785 41.623c-.024-.018-.054-.035-.07-.051-.043.008-.006.027.07.05M45.785 41.623c.248.177.667.377.935.5.015-.235-.68-.432-.935-.5M46.12 41.426l-.326-.206c.176.096.1.176.325.206M45.845 41.463L45.643 41.382 45.796 41.53zM27.558 41.994l.004.13c.031-.043.02-.085-.004-.13M26.701 41.38c.045.01.091.027.16.054-.07-.034-.108-.053-.16-.054M28.097 42.162l.137.045c-.042-.024-.092-.038-.137-.045M38.048 42.603c-.112.016-.257.037-.416.043.108.038.188.145.416-.043M22.797 40.406l.024-.072c-.098.03-.071.052-.024.072M26.766 40.392l.045.021c.02-.016.035-.04.038-.08l-.083.06zM28.918 42.408l-.092-.086-.008.003c.002.04.037.067.1.083M21.356 40.517c.065.04.132.063.199.081.004-.054-.072-.096-.199-.08M26.701 41.38L26.68 41.374 26.681 41.377zM28.13 40.734c-.035-.041-.102-.083-.19-.093l.19.093z" transform="translate(-426 -3428) translate(426 3428)"/>
                <path fill="#005DA9" d="M37.5 42.651l.133-.005c-.037-.013-.079-.016-.132.005M44.731 41.413c-.033-.051-.083-.095-.14-.131.008.05.026.103.14.131M3.534 42.313c-.013.003-.025.007-.04.019l.04-.019zM7.77 41.6l-.072-.057c-.008.037.018.07.072.056M12.99 41.257l-.032-.038.032.038z" transform="translate(-426 -3428) translate(426 3428)"/>
                <path fill="#005DA9" d="M37.97 41.579c-.089.03-.221.087-.301.122.035-.035.3-.1.168-.124.048-.01.153-.058.132.002zm-1.344.985c-.28.075-.788.275-.988.407-.005.027-.027.05-.075.065.011-.02.04-.043.075-.065.006-.032-.01-.067-.038-.093-.046-.003-.085-.014-.108-.039.038-.007.079.01.108.039.115.008.27-.056.33-.116-.06-.053-.219.002-.294-.025.196-.213.875.092.581-.313.114.023.498.023.409.14zm-4.012.006l-.12-.084c.126.025.139.056.12.084l.103.073c-.298.03-.14-.016-.103-.073zm-.638.09c.061-.093.431.007.529.07-.165 0-.59-.072-.529-.07zm-.246.375c-.08-.058-.132-.128-.091-.183.196.114.05.128.09.183.05.033.106.061.16.076-.1-.034-.143-.056-.16-.076zm-.636.006c-.182-.088-.366-.165-.538-.271.172.095.352.162.53.242l-.034-.13.069.146-.035-.016.008.029zm-.468-.99c-.114-.017-.374-.1-.352-.189.122.064.239.136.352.19zm-1.157-.514l.432.123c.043 0 .09.01.141.04l-.141-.04c-.187-.003-.316.18-.432-.123zm-6.938-.179c-.115.023-.23.038-.343.065l.355-.092-.012.027zm-1.012-.641c.035-.022.074-.037.123-.033l-.123.033c-.089.055-.134.15-.19.055l.19-.055zm-5.574 1.725c.186-.169.298.015.408.079-.184-.074-.262.121-.408-.079zm-.406.267l.122-.013c.103-.108-.178-.094-.192-.188.142-.032.454.077.335.093-.303.04.137.193-.065.238l.162-.007c-.27.124-.18-.147-.362-.123zm-1.668-.91l.025-.017.19.139-.023.016-.192-.138zm-.608 1.088c.239.057.485.16.566.106 0 .105-.517.094-.566-.106zm-.445-.198c.04-.1-.314-.262-.348-.29.009-.175.114-.046.295-.075-.092-.007.025.208.22.25l-.167.115zm-2.722-1.194c-.036-.119.09-.01.17-.057.118.069.255.123.356.2-.145.155-.324-.114-.526-.143zM9 40.44c.045-.042.236-.027.371.027-.218.062-.241.022-.37-.027zm-.39-.297c.254-.077.206.137.444.2-.343.078-.26-.157-.445-.2zm-.818 1.172c.089.046.22.092.294.139-.048.01-.416-.053-.294-.14zm-.546.13c-.122-.025-.234-.132-.391-.05.024.033.006.057.107.049l-.219.043c-.273-.126-.036-.22.204-.283.008-.026.023-.054.067-.087.04-.02.078.006.118.026.05-.02.094-.041.113-.065l.025.034c-.051.06-.097.05-.138.031-.053.022-.118.041-.185.06-.031.12.232.182.3.242zm-1.045.165c-.358.153-.373-.024-.437-.146-.042-.02-.094-.046-.099-.089.05.01.09.043.099.09.097.031.244.023.378-.053-.038-.086-.13-.011-.22-.018.061-.023.155-.098.286-.087-.115.184-.011.165-.007.303zm-.64.122l-.03-.194.188.143-.157.051zm39.656-.484c-.71-.249-.692-.547-1.373-.518l.104.07c-.37.085-.88-.187-1.147-.184.083-.035.1-.1.069-.134-.87.101-1.64.08-2.536.367l-.313-.112.019.138c-.415.179-.145-.162-.423-.07.107-.032.093-.004.126.024-.552-.003-.242.208-.534.252.179.097.55-.118.483.108-.519-.029-1.287.39-1.451.114-.886.576-1.83.806-2.572.937-.079.082.07.028.047.083-.315-.103-.915.327-.95.154-.129.069-.173.2-.206.248-.195-.063-.417-.08-.65-.1l.173.041-.018.023-.245-.057.01-.011c-.577-.032-1.254-.06-1.715-.354.235.151-.035.181-.017.252-.23-.289-.782-.46-1.238-.63-.02.054-.075.08-.04.147-.075-.076-.153-.148-.22-.22 0 .025.01.057.003.079-.526-.2-.968-.768-1.397-.817.212.133.19.187.172.28-.398-.193-.73-.359-1.248-.623.021.025.034.049.026.068-.135-.016-.272-.13-.396-.203l-.057.13c-.225-.128-.573-.152-.893-.314-.187.125-.68-.243-1.124-.205-.173-.041.37.178-.116.146-.062-.152-.102-.158-.183-.164-.231-.02-.281-.017-.32-.18l-.359.116-.086-.156c-.285.323-.48-.111-.917.046.028.032.076.036.056.062-.15-.018-.475.016-.238-.106-.205.024-1.059.13-.667.22-.05-.087.341-.08.46-.066-.003.144-.329.135-.418.316-.013-.01-.062-.024-.101-.04l-.028.095c-.457-.052-.852.185-1.215.099-.006.045-.065.103-.211.144l-.063-.16-.22.082c-.272.115-.172.076-.278.122.125.036.1.136.354.118-.484.274-.888.13-1.298.296.046.305-.649.199-.835.53l.286-.026c-.565.162-.603.362-1.164.409.419-.216.454-.154.99-.611-.584.357-1.122.213-1.674.48.051.06.212.08.075.173-.142-.126-.571.088-.501-.098-.18.075-.2.24-.315.275-.22-.066-.434-.117-.64-.198l.018.034c-1.137.376-1.918-.497-2.89-.786l-.02.093-.177-.218c.09.128-.18.025-.228.085-.208-.175-.412-.355-.634-.533-.055.066-.082.252.11.307-.32-.046-.527-.363-.788-.48l.058.11-.236-.17-.04.106c-.486-.275-1.04-.27-1.163-.5l.004.191c-.135-.089-.293-.175-.473-.26.094.062.194.124.28.188-.65-.12-1.373-.315-1.512-.33l.063.073c-.128.026-.22-.023-.35-.05l.096.106c-.789-.063-1.087.161-2 .176-.247.057.145.014.157.072-.128.093-.453.072-.528.04.1.143.464.031.2.208-.213-.044.16.122-.195.152l-.175-.179c-.218.081-.013.167-.331.22-.377-.003.38-.33-.2-.224-.29.091-.473.615-1.028.698-.415.269.344.203-.29.401.14-.022.295-.023.437-.028-.073.09.002.169-.241.215-.12-.032-.323-.054-.464 0 .617-.11-.39.432.204.386-.07.029-.126.05-.19.078.026-.004.04.011.034.032l-.234.121c.168-.027.524-.168.423.045l-.323.186c.14.061.04.16.099.231.192-.044.316-.061.553-.127l.335-.091c-.104.066.128-.006.177 0-.064-.05-.229-.04-.197-.124.259-.156.266.031.494-.14l-.141-.05c.031.026.07.025.017.055-.072.084-.133.034-.154-.02.054-.143.348-.152.449-.101.338-.11.013-.22.078-.275.22.137.605-.166.811-.11-.07-.029-.09-.072-.15-.099.215-.193.515-.124.67-.094l-.076-.093c.378-.036.552-.39.859-.045l-.042-.065c.127-.04.452-.105.482-.008.01-.043.054-.093.139-.1.147.15.285.044.497.035-.163-.051-.069-.222-.23-.277.354-.176.32.232.627.26.198-.07-.157-.122-.198-.195.473.145 1.07-.28 1.293.17l-.232.06c.166.125.268.15.254.112-.063-.004-.074-.044-.088-.082.645-.03.77.507 1.323.675-.012-.082-.08-.137-.06-.19.279.05.093.43.55.49l-.045-.11c.154.023.203.174.175.186.146-.28.836.445 1.319.2.128.258.73.595.952.552.323-.102-.188-.265-.037-.402.206.056.276.258.61.264-.018.17-.73.202-.12.432l.107-.072c-.067-.002-.164.013-.251-.029-.16-.137.135-.088.184-.126.217.07.44.114.663.165.029.19-.379.086-.428.127.562.06 1.221-.174 1.718-.065l-.051-.068c.648.133.342-.352.867-.102.256-.082-.115-.176.27-.25.11-.017.057.06.04.087.493-.01.176-.208.648-.13l-.134-.169c.528.018 1.184.178 1.595-.084-.083-.131-.345-.01-.49-.083.683.08 1.412-.605 1.936-.667-.1.185.359.163.08.405-.153-.142-.26.04-.41.094.43.258 1.054-.706 1.258-.368l.025-.169c.085-.003.319.042.198.13.172-.092.352-.176.532-.259-.225-.06-.732-.174-.812.025-.214-.095.202-.179 0-.303.465.115.205-.183.634-.245-.126.257.481.178.486.29.124-.078.416-.023.553.028.235-.026.748-.261 1.125-.198-.14-.064-.372-.134-.368-.273.196.062.398.05.432-.107-.699-.255-.195.366-.813.24-.17-.165-.346-.186-.675-.18.126-.127.056-.162.094-.299.452.31 1.046-.116 1.578.089.261.118-.035.342.543.413-.092.04-.441.05-.431.103.388-.097.152.118.472.175-.042-.044-.042-.087-.124-.132.207-.013.235.002.381.114-.052-.07-.138-.148-.17-.21.112-.021.37-.008.356.103.04-.043.054-.08.058-.111.022.034.076.062.223.073-.083-.032-.145-.027-.14-.086.544.115.154-.191.494-.125-.047-.052.06-.095.185-.092-.073.29.575.49.693.713v-.006c.155.094.23.147.357.25-.075-.057.046-.098.181-.077l-.02-.006c.152.01-.038-.375.336-.125l.178.178c-.033-.027.022-.052.051-.065l.186.177c.458-.1.56.452 1.025.524-.127-.037-.294-.142-.177-.189.093.008.195.096.237.167l-.007-.042c.218.181.489.365.745.533-.038-.114-.492-.329-.242-.345.172-.071.353.156.504.217-.045.07-.353.035-.082.177.05-.023.345-.008.237-.107.265.173.686.333.936.524.096-.017-.036-.078-.079-.099l-.025.017c-.176-.085.015-.202-.362-.208.034-.258.522.056.847.058-.158-.079-.31-.17-.459-.265.861-.167 1.914.255 2.759.156-.231.105-.441.045-.397.25.532.05.459.013.985-.028l-.045-.003c.245-.152.654-.03.78-.26-.137-.077-.347.196-.405-.03.215-.034.423-.095.632-.141-.23-.073-.628.147-.88.16-.172.05.357-.042.307.122-.605.123-.772-.02-1.084-.197-.19-.141.236-.185.34-.21.401.19.988.173 1.519-.11l.252-.268c.32.041.323.392.807.138l-.197-.049c.088-.093.15-.14.203-.162-.247.012-.512 0-.736-.018.177-.348.828-.194 1.25-.361-.036-.02-.177.04-.25.001.56-.353 1.294-.34 1.765-.44.159-.178-.411.056-.372-.135.265-.03.504-.255.616-.127-.176-.189.574-.176.033-.25.884-.368 2.016-.318 2.91-.157-.039-.07-.02-.126.017-.172-.328-.01-.801-.056-1.002-.193.21-.13.525.12.581.058-.111-.061-.331-.041-.343-.156.283-.154.454.045.652.062l-.11.058c.623.174.323.396.96.386.251-.111.012-.114.028-.286.138.083.664-.043.791.17l-.392-.044c.267.082.523.132.691.235-.01-.042-.016-.082-.068-.108.198.105.471.164.546.304l.11-.16c-.148.039-.525-.04-.565-.16.077-.144.436.047.604.089z" transform="translate(-426 -3428) translate(426 3428)"/>
                <path fill="#005DA9" d="M8.512 41.495c-.062-.013-.12-.016-.178-.017.045.014.095.023.178.017M23.036 41.829c.042-.03.055-.054.055-.072-.032.018-.055.04-.055.072M23.665 41.792L23.645 41.785 23.623 41.789zM44.291 41.49c.096.017.31.196.223.022-.063-.095-.127-.002-.223-.023M43.795 41.172c.08.056.14.074.196.081-.076-.022-.142-.05-.196-.08M43.795 41.172c-.02-.011-.035-.023-.057-.04.018.015.037.029.057.04M43.992 41.253c.112.03.252.043.416.05-.208-.088-.31-.04-.416-.05M41.86 41.158c0-.002-.246.064-.388-.003.21.108.226.222.559.232-.044-.068-.71-.101-.17-.229M40.886 41.178c-.04.02-.094.033-.148.043.048 0 .098-.011.148-.043M40.165 41.233c.107.057.197.14.39.118-.085-.078.048-.107.183-.13-.176.004-.36-.112-.573.012M34.991 43.777c-.065.023-.313.082-.172.098l.347-.056c-.013-.056-.127-.038-.175-.042M33.443 43.7c.139.037 0-.114.27-.1l-.25-.094-.02.194zM33.839 42.607L33.83 42.62 33.91 42.623zM32.552 43.943l-.162-.243c-.044-.017-.068.154.162.243M30.978 43.524c.157.076.32.138.483.207l-.144-.11c-.115-.033-.23-.058-.34-.097M30.081 43.104l.06-.023c-.131-.058-.225-.115-.341-.173.094.066.175.13.281.196M18.142 43.407c.158-.262.542-.06.585-.306-.134.09-.672.146-.585.306M9.41 41.586c-.142-.05-.295-.085-.446-.121.352.1.09.12.446.121M45.785 44.147c-.024-.018-.053-.034-.07-.051-.043.01-.007.025.07.05M45.785 44.147c.248.178.667.377.937.5.013-.235-.682-.432-.937-.5M46.12 43.95l-.326-.206c.176.097.1.177.325.207M45.845 43.988L45.643 43.905 45.796 44.055zM27.558 44.52l.004.127c.031-.042.02-.085-.004-.128M26.702 43.905c.043.008.09.027.158.054-.07-.034-.107-.054-.158-.054M28.097 44.687l.137.044c-.042-.024-.092-.037-.137-.044M38.048 45.128c-.112.016-.257.037-.416.041.108.04.188.146.416-.04M22.798 42.93l.023-.072c-.1.03-.071.052-.023.072M26.766 42.917l.045.022c.02-.018.035-.043.038-.081l-.083.059zM28.918 44.933l-.092-.088-.008.005c.002.039.037.066.1.083M21.356 43.041c.065.042.132.064.199.081.003-.054-.072-.096-.199-.08M26.702 43.905L26.68 43.898 26.682 43.901zM28.13 43.259c-.035-.042-.102-.083-.19-.094l.19.094zM37.5 45.176l.133-.006c-.037-.014-.079-.016-.132.006M44.731 43.938c-.033-.052-.083-.095-.14-.132.008.05.026.104.14.132M3.534 44.838c-.013.002-.025.006-.04.018l.04-.018zM7.77 44.123l-.072-.056c-.008.037.018.07.072.056M12.99 43.78l-.032-.036.032.037z" transform="translate(-426 -3428) translate(426 3428)"/>
                <path fill="#005DA9" d="M37.97 44.103c-.089.03-.221.087-.301.121.035-.034.3-.099.168-.123.048-.01.153-.058.132.002zm-1.344.985c-.28.075-.788.275-.988.407-.005.028-.027.052-.075.065.011-.02.04-.041.075-.065.006-.032-.01-.067-.038-.093-.046-.003-.085-.014-.108-.039.038-.007.079.01.108.039.115.008.27-.056.33-.116-.06-.053-.219.003-.294-.024.196-.214.875.092.581-.313.114.023.498.022.409.14zm-4.012.006l-.12-.084c.126.025.139.056.12.084l.103.074c-.298.028-.14-.017-.103-.074zm-.637.09c.06-.092.43.007.528.071-.165-.001-.59-.073-.528-.07zm-.247.375c-.08-.058-.132-.128-.091-.184.196.115.05.13.09.184.05.033.106.061.16.077-.1-.033-.142-.057-.16-.077zm-.636.007c-.182-.09-.366-.166-.538-.271.172.094.352.163.53.241l-.034-.13.069.146-.035-.016.008.03zm-.468-.991c-.114-.017-.374-.1-.352-.188.122.063.239.136.352.188zm-1.157-.513l.432.122c.043 0 .09.01.141.04l-.141-.04c-.187-.002-.316.182-.432-.122zm-6.938-.18c-.115.023-.23.039-.343.065.116-.036.236-.06.355-.093l-.012.027zm-1.012-.64c.035-.023.074-.038.123-.034l-.123.034c-.089.055-.134.15-.19.055l.19-.055zm-5.574 1.724c.186-.168.298.017.408.079-.184-.074-.262.121-.408-.079zm-.406.268l.122-.014c.103-.107-.178-.094-.192-.188.142-.032.454.078.335.093-.303.04.137.194-.065.239l.162-.007c-.27.123-.18-.148-.362-.123zm-1.668-.911l.025-.017.19.138-.023.018-.192-.14zm-.608 1.089c.239.056.485.16.566.105 0 .105-.517.094-.566-.105zm-.445-.199c.04-.1-.314-.26-.348-.29.009-.174.114-.046.295-.075-.092-.007.025.208.22.25l-.167.115zm-2.722-1.193c-.036-.12.09-.009.17-.058.118.069.255.122.356.2-.145.155-.324-.114-.526-.142zM9 42.964c.045-.043.236-.027.371.028-.218.061-.241.02-.37-.028zm-.39-.298c.254-.076.206.139.445.2-.344.077-.261-.157-.446-.2zm-.818 1.172c.089.046.22.094.294.137-.048.013-.416-.051-.294-.137zm-.546.13c-.122-.025-.234-.13-.391-.049.024.032.006.056.107.048l-.219.041c-.273-.124-.036-.218.204-.281.008-.025.023-.053.067-.086.04-.02.078.006.118.024.05-.019.094-.04.113-.064l.025.033c-.051.06-.097.051-.138.031-.053.023-.118.044-.185.062-.031.119.232.18.3.241zm-1.045.167c-.358.151-.373-.025-.437-.147-.042-.021-.094-.048-.099-.09.05.01.09.042.099.09.097.032.244.024.376-.053-.036-.086-.128-.011-.217-.017.06-.024.154-.099.285-.088-.117.185-.011.166-.007.305zm-.64.12l-.03-.194.188.143-.157.051zm39.656-.483c-.71-.249-.692-.548-1.373-.519l.104.07c-.369.085-.88-.187-1.148-.183.084-.036.102-.101.07-.135-.87.101-1.64.082-2.536.367l-.313-.112.019.14c-.415.177-.145-.163-.423-.072.107-.03.093-.004.126.024-.552-.002-.242.209-.534.252.179.098.55-.118.483.108-.519-.027-1.288.392-1.451.114-.886.575-1.83.806-2.572.938-.079.081.07.029.047.081-.315-.102-.915.328-.95.155-.129.07-.173.2-.206.248-.195-.063-.415-.08-.65-.1l.173.04-.018.024-.245-.057.01-.011c-.577-.032-1.254-.06-1.715-.354.235.15-.035.181-.017.252-.23-.289-.782-.46-1.238-.63-.02.054-.075.08-.04.147-.075-.075-.153-.148-.22-.22 0 .026.01.057.004.079-.527-.2-.969-.768-1.398-.817.212.135.19.187.172.28-.398-.193-.73-.357-1.248-.623.021.025.034.049.026.068-.135-.016-.272-.13-.396-.201l-.057.127c-.224-.127-.573-.15-.893-.313-.187.125-.68-.243-1.124-.204-.172-.042.372.178-.116.145-.062-.152-.1-.158-.18-.163-.234-.02-.284-.018-.322-.182l-.36.117-.086-.156c-.285.323-.48-.111-.917.046.026.032.076.036.056.062-.15-.017-.475.018-.238-.105-.207.025-1.058.129-.666.22-.05-.088.339-.083.46-.067-.004.144-.33.136-.419.317-.013-.012-.062-.025-.101-.04l-.028.096c-.457-.054-.852.184-1.215.097-.006.045-.065.102-.211.145l-.063-.16-.22.082c-.27.114-.172.075-.277.12.124.038.101.136.352.12-.483.273-.885.129-1.297.295.046.305-.649.199-.835.53l.286-.026c-.565.163-.603.361-1.164.409.419-.217.454-.154.99-.611-.584.358-1.122.213-1.674.48.051.06.212.081.075.173-.142-.125-.571.09-.501-.098-.18.075-.2.241-.315.276-.22-.066-.434-.118-.64-.2l.018.034c-1.137.377-1.918-.496-2.89-.786l-.02.094-.177-.218c.09.128-.18.025-.228.086-.208-.176-.412-.356-.634-.533-.055.066-.082.252.11.306-.32-.046-.527-.363-.788-.481l.058.111-.236-.17-.04.107c-.486-.275-1.04-.27-1.164-.5l.005.192c-.135-.09-.291-.177-.473-.263.095.063.195.125.28.189-.65-.12-1.373-.315-1.512-.33l.063.073c-.128.027-.22-.023-.35-.05l.096.106c-.789-.062-1.087.161-2 .176-.247.057.145.014.157.072-.128.094-.453.071-.528.04.1.144.464.031.2.208-.213-.044.16.122-.195.152l-.175-.178c-.218.081-.013.166-.331.219-.377-.003.38-.329-.2-.223-.29.091-.473.614-1.028.697-.415.268.344.203-.29.401.14-.021.295-.023.437-.028-.073.09.002.17-.241.214-.12-.031-.323-.051-.464 0 .617-.108-.39.433.204.387-.07.03-.126.05-.19.078.026-.003.04.012.034.03l-.234.123c.168-.028.524-.167.423.045l-.323.187c.14.06.04.159.099.231.192-.044.316-.061.553-.128l.335-.092c-.104.068.128-.004.177 0-.064-.05-.229-.038-.197-.123.259-.155.266.031.494-.14l-.141-.049c.031.026.07.024.017.054-.072.084-.133.036-.154-.02.054-.143.348-.152.449-.101.338-.11.013-.22.078-.275.22.137.605-.166.811-.11-.072-.029-.09-.07-.15-.099.215-.193.515-.124.67-.094l-.076-.093c.378-.036.552-.389.859-.045l-.042-.066c.128-.04.452-.105.482-.007.01-.042.054-.093.139-.101.147.15.285.046.497.036-.163-.051-.069-.223-.23-.278.354-.174.32.233.627.262.198-.072-.157-.121-.198-.196.473.143 1.07-.28 1.293.171l-.232.059c.166.126.268.151.254.113-.063-.005-.074-.044-.088-.081.645-.031.77.505 1.323.672-.012-.08-.08-.136-.06-.19.28.053.093.43.55.492l-.045-.11c.155.022.203.173.175.186.146-.28.836.444 1.319.198.128.26.73.596.952.554.323-.103-.188-.266-.037-.404.206.058.276.26.61.265-.018.172-.73.202-.12.432l.107-.072c-.067 0-.164.013-.251-.028-.16-.137.135-.089.184-.125.217.068.44.113.663.163.029.19-.379.087-.428.127.562.06 1.221-.172 1.718-.066l-.05-.066c.647.132.341-.352.866-.102.256-.083-.115-.178.27-.25.11-.018.057.061.04.087.493-.012.176-.209.648-.13l-.134-.17c.528.018 1.185.178 1.595-.084-.083-.131-.345-.01-.49-.082.683.08 1.412-.606 1.936-.668-.1.185.36.163.08.405-.153-.142-.26.04-.41.093.427.26 1.054-.705 1.258-.367l.026-.169c.084-.003.318.042.197.13.172-.092.352-.176.532-.257-.225-.062-.73-.176-.812.024-.214-.096.202-.18 0-.303.465.113.205-.182.634-.244-.126.253.481.176.486.29.124-.079.416-.025.553.026.235-.026.748-.26 1.125-.198-.14-.063-.372-.134-.368-.273.196.062.398.05.432-.107-.699-.255-.195.366-.811.24-.172-.163-.348-.186-.677-.18.126-.129.056-.162.094-.298.452.31 1.046-.117 1.578.088.261.12-.035.342.543.414-.091.04-.443.048-.431.102.387-.098.152.119.47.175-.04-.042-.04-.087-.122-.132.206-.013.235.003.383.114-.053-.07-.141-.147-.172-.21.113-.02.37-.009.356.103.04-.043.054-.08.058-.112.022.036.076.062.223.074-.082-.032-.145-.027-.14-.084.544.114.154-.192.494-.127-.047-.052.06-.095.185-.092-.073.29.575.49.693.713v-.005c.155.094.23.146.357.25-.075-.058.046-.098.181-.078l-.02-.006c.152.011-.038-.374.336-.124l.178.178c-.033-.027.022-.053.051-.064l.186.175c.458-.1.56.452 1.025.523-.127-.035-.294-.14-.177-.186.093.006.195.094.237.164l-.007-.04c.218.18.489.364.745.532-.038-.114-.492-.329-.242-.345.172-.071.353.156.504.217-.045.07-.353.035-.082.178.05-.024.345-.008.237-.108.265.174.686.333.936.524.096-.017-.036-.078-.079-.1l-.025.02c-.176-.085.015-.204-.36-.208.032-.259.52.054.845.057-.158-.08-.31-.172-.459-.267.861-.166 1.914.256 2.759.157-.231.105-.441.046-.397.249.532.051.459.014.985-.027l-.045-.003c.245-.153.654-.029.78-.26-.137-.077-.347.196-.404-.03.214-.033.422-.093.631-.142-.23-.072-.628.148-.88.162-.172.049.357-.043.307.121-.605.123-.772-.019-1.084-.197-.19-.14.236-.185.34-.21.401.19.988.174 1.519-.11l.252-.267c.32.041.323.39.807.137l-.197-.049c.088-.093.15-.138.203-.161-.247.012-.512 0-.736-.02.177-.347.828-.193 1.25-.36-.036-.02-.177.04-.25.001.56-.353 1.294-.339 1.765-.44.159-.178-.411.056-.372-.135.265-.03.504-.256.616-.127-.176-.189.574-.175.033-.25.884-.368 2.016-.317 2.91-.157-.016-.068-.036-.126.017-.17-.328-.01-.801-.056-1.002-.195.21-.131.525.12.581.058-.111-.061-.33-.04-.343-.156.283-.154.454.045.652.062l-.11.058c.622.174.323.396.96.388.251-.113.012-.115.028-.287.138.082.663-.043.791.17l-.392-.046c.267.083.523.134.691.236-.01-.042-.014-.082-.068-.108.198.105.471.164.546.304l.11-.16c-.148.039-.525-.04-.565-.16.077-.144.436.047.604.09z" transform="translate(-426 -3428) translate(426 3428)"/>
                <path fill="#005DA9" d="M8.512 44.02c-.062-.014-.12-.018-.178-.018.045.014.095.023.178.017M23.036 44.354c.042-.03.055-.054.055-.072-.032.018-.055.04-.055.072M23.665 44.317L23.645 44.31 23.624 44.313zM44.291 44.014c.096.018.31.196.223.023-.063-.096-.127-.002-.223-.023M43.795 43.697l-.057-.04c.018.015.037.028.057.04M43.795 43.697c.08.056.14.073.196.08-.076-.022-.142-.048-.196-.08M43.992 43.777c.112.03.252.043.416.05-.208-.088-.31-.04-.416-.05M41.86 43.682c0-.001-.246.064-.388-.003.21.109.226.222.559.232-.044-.068-.71-.101-.17-.229M40.886 43.702c-.04.02-.094.033-.148.044.048-.002.098-.011.148-.044M40.165 43.757c.107.057.197.14.39.118-.085-.078.048-.107.183-.13-.176.004-.36-.112-.573.012M34.991 46.301c-.065.024-.313.083-.172.098l.347-.056c-.013-.056-.127-.038-.175-.042M33.443 46.225c.139.035 0-.114.27-.1l-.25-.096-.02.196zM33.839 45.131L33.83 45.144 33.91 45.148zM32.552 46.467l-.162-.242c-.044-.018-.068.153.162.242M30.978 46.049c.157.075.32.137.483.206l-.144-.108c-.113-.034-.23-.059-.34-.098M30.081 45.63l.06-.025c-.131-.057-.225-.115-.341-.172.094.066.175.13.281.196M18.142 45.931c.158-.261.542-.059.585-.306-.134.09-.672.146-.585.306M9.41 44.11c-.142-.048-.293-.084-.447-.121.353.1.092.12.447.121" transform="translate(-426 -3428) translate(426 3428)"/>
            </g>
        </g>
    </g>
</svg>
