<svg xmlns="http://www.w3.org/2000/svg" width="135" height="48" viewBox="0 0 135 48">
    <g fill="none" fill-rule="evenodd">
        <g>
            <g>
                <path fill="#E3282C" d="M19.563 47.838c-2.782 0-7.71-1.8-11.743-5.238C4.253 39.559 0 34.115 0 25.452V0h39.126v25.452c0 8.663-4.252 14.107-7.82 17.148-4.033 3.439-8.96 5.238-11.743 5.238" transform="translate(-637 -3428) translate(637 3428)"/>
                <path fill="#FFF" d="M37.574 18.36c.132-.653.057-.933-.001-1.133-.087.144-.502.65-.79.838-.354.231-1.14.812-1.229.82-.021.001-.08-.073-.048-.098.239-.193.476-.423.678-.548.664-.415.782-.622 1.005-.927.573-.784.358-1.358.342-1.632-.348.375-.928.754-1.358 1.067-.436.317-.612.48-.832.803-.033.047-.128.006-.134-.03-.007-.037.065-.178.065-.691 0-1.569-2.162-4.708-2.572-5.037-.414.298-.804.653-1.18 1.03 1.272 1.258 1.888 2.757 2.05 4.992.164 2.244-.218 4.853-1.168 7.968-.031.114-.066.23-.107.346-.018.053-.068.087-.122.087-.013 0-.027-.002-.04-.007-.067-.022-.104-.093-.082-.16l.108-.352c.312-1.326.093-2.315-.176-2.963-.037.688-.214 1.007-.327 1.37-.117.37-.226.72-.226 1.325 0 .047-.038.086-.086.086-.047 0-.086-.039-.086-.086 0-.631.113-.994.233-1.377.132-.419.55-1.47-.099-2.2-.057.435-.235.94-.421 1.47-.138.394-.278.792-.37 1.164l.003.004-.003.002c-.137.559-.165 1.059.09 1.395.043.057.032.138-.025.18-.057.044-.138.033-.181-.024-.298-.394-.289-.932-.157-1.52-1.415-2.626-2.214-4.924-1.549-7.559.639-2.525 2.09-3.992 3.055-4.903.994-.938 1.83-1.097 2.588-.7.44.23.555.695.616 1.005.363-.277.566-.575.604-.888.044-.361-.173-.654-.293-.775-.119-.12-.734-.41-1.185-.257-.097-.155.356-.25.532-.25.266 0 .406.118.546.118.046 0 .117-.034.144-.052.802-.52.832-1.223.832-1.41-.054.097-1.176.905-1.376.905-.122 0-.146-.089-.112-.116.434-.351 1.239-.834 1.507-1.292.344-.586.269-1.135.269-1.558-.116.268-1.25 1.614-1.421 1.614-.08 0-.079-.078-.006-.183.695-1.004 2.08-1.993 1.207-3.783-.098.864-1.254 2.114-1.28 2.114-.34 0 1.108-1.438 1.108-2.694 0-.641-.095-.948-.349-1.211-.115.6-.413 1.112-.702 1.61-.242.416-.472.808-.575 1.224-.103.416-.117.479-.275 1.23-.009.039-.055.086-.077.064-.148-.148.01-.538-.114-.913-.104-.32-.418-.598-.97-.598-.193 0-.371.046-.53.137-.213.121-.38.322-.47.55.299-.07.582-.02.817.145.44.31.636.983.486 1.674-.214.993-1.045 1.806-1.938 2.639-.555.517-1.318 1.498-1.631 1.89-1.263 1.602-2.281 3.634-2.328 4.61-.017.35.022.642.01.683-.012.042-.119.1-.134.037-.122-.497-1.366-.96-1.906-1.485-.25.691-.145.937-.082 1.223.2.908.872.798 1.738 1.474.076.06-.055.153-.098.153-.067 0-1.451-.695-1.555-.89-.116.524-.116.723.037 1.146.256.707 1.506.92 1.634 1.359.029.097-.085.127-.132.089-.23-.191-1.149-.583-1.325-.784-.086.292-.114.644-.037.774.683 1.157 1.86 1.152 1.995 1.846.018.096-.077.136-.123.08-.384-.476-.11-.13-1.366-.94-.079.665-.025.909.134 1.274.36.825 1.376.58 1.867 1.438.024.043-.06.184-.122.11-.39-.462-.62-.428-1.27-.723.05.729.362 1.228.501 1.35.561.494 1.256.378 1.537.951.037.076-.055.116-.122.116-.08 0-.177-.274-.946-.466.184.563.568 1.127 1.452 1.343.318.078 1.407.156 2.488.14 1.14-.017 2.273-.133 2.492-.248.766-.405 1.112-1.092 1.278-1.643-.527.395-.905.252-1.232.618-.066.073-.163.01-.163-.028 0-.088.37-.39.546-.473.279-.132.67-.23 1.059-.56.429-.366.624-.927.683-1.331 0 0-1.01.458-1.522.887-.03.025-.103 0-.103-.059 0-.312.808-.482 1.742-1.306.376-.331.561-1.492.522-1.745 0 0-.338.281-.678.502-.313.203-.627.346-.698.395-.152.106-.246.28-.32.28-.055 0-.083-.027-.083-.07 0-.166.474-.403 1.086-.854.278-.205.791-.747.898-.945.317-.59.346-.795.317-1.37 0 0-.114.326-.5.638-.19.154-.69.395-.934.537-.385.222-.522.317-.771.487-.032.022-.098-.02-.068-.058.502-.639.851-.554 1.48-1.068.486-.397.856-1.164.91-1.433m-7.813-6.44c.384-.468 1.08-1.293 1.462-1.69-1.304-1.147-1.67-3.021-1.268-3.684.159-.261.448-.411.795-.411.044 0 .087.002.13.007-.166-.355-.405-.558-.714-.605-.045-.007-.091-.01-.138-.01-.46 0-1.362.34-1.194 1.841.005.044-.077.066-.085.043-.11-.306-.225-1.12-.275-1.32-.05-.201-.118-.418-.19-.646-.23-.723-.51-1.607-.397-2.686-.773.954-.812 3.186-.021 4.132.028.033-.034.116-.088.116-.044 0-.483-.677-.566-.974-.151-.541-.151-1.15-.22-1.731-1.195 1.648.513 3.47.78 3.836 0 0 .042.132-.072.132-.142 0-1.259-1.516-1.259-1.72-.558 1.635.88 2.369 1.46 2.664.031.017-.045.172-.138.172-.039 0-.99-.492-1.175-.706-.04.614.084.871.323 1.194.496.667 1.24.492 1.24.675 0 .207-.713-.128-1.095.056-.34.163-.355.677-.329.836.052.303.245.606.53.843.044-.443.233-.738.563-.88.125-.052.268-.08.427-.08.594 0 1.3.39 1.514.596m1.428 15.567c-.745 0-1.476-.064-2.019-.14.21.851.784 1.108 1.335 1.464h2.259c.276-.05 1.07-.895 1.288-1.555-.513.145-1.726.231-2.863.231m-.935 3.02c-.185.17-.396.26-.609.26-.077 0-.153-.013-.227-.037-.363-.12-1.077-.63-1.895-1.844-1.16-1.72-2.108-3.636-2.838-5.273-.518-1.16-.85-2.155-1.314-2.915-.22-.357-.74-.565-.8-.565.826 1.234 1.506 2.821 1.409 2.919-.107.106-.747-1.32-1.447-2.464-.436-.714-1.068-1.185-1.163-1.436-.283 1.192-.762 2.141-.086 2.535-.402.402-2.146-1.28-2.146-3.053-.793 1.231-1.988 1.493-2.354 1.48-.305.44-1.524.927-1.67.927-.294 0-.22-.353-.123-.353.482 0 .86-2.127.793-2.681 0 .134-.94.633-1.83.633-.433 0-.684-.06-.863-.112-.315.168-.646.343-.968.512-.797.42-1.55.817-1.793.976-.014.01-.03.014-.047.014-.028 0-.055-.013-.071-.039-.027-.04-.016-.093.024-.119.25-.163 1.006-.562 1.806-.984.268-.14.543-.285.81-.427-.032-.006-.062-.01-.093-.01-.193 0-.22.202-1.396.218l-.17.098c-.432.248-.882.53-1.316.804-1.262.795-2.455 1.545-3.326 1.545-.46 0-.722-.094-.899-.22-.01.057-.04.087-.11.087-.063 0-.06-.134-.063-.243-.04-.045-.075-.09-.11-.134-.117-.149-.212-.27-.522-.334.02.16-.014.313-.104.44-.108.15-.282.237-.462.237-.45 0-.683-.453-.683-.453-.316.146-.49.43-.537.646-.074.343.08.46.38.46.28 0 .647.189.854.189.207 0 .214-.256.366-.256.105 0 .031.17.073.17.078 0 .724-.298.97-.298.06 0 .073.013.073.074 0 .14-.265.184-.57.338-.294.15-.554.307-.86.307-.18 0-.1-.03-.23-.03-.072 0 .02.206-.072.206-.22 0-.098-.377-.714-.377-.37 0-.69.183-.827.492.235-.02.458.062.63.24.223.232.302.573.192.83-.059.138-.225.376-.66.399.048.387.424.476.777.538.042.007.078.014.11.021.06-.4.435-.778.553-.845 0-.06-.104-.036-.104-.146 0-.11.116-.162.138-.162.07 0 .116.162.174.162.015 0 .45-.234.857-.558.48-.383.884-.86 1.02-.86.125 0 .094.07.094.094 0 .056-.316.438-.652.778-.341.345-.499.465-.745.625.055 0 .277.057.277.116 0 .056-.056.054-.114.054-.059 0-.293-.054-.34-.054-.226 0-.853.468-.907.959-.023.208.04.352.108.494.141-.24.358-.385.608-.395.27-.012.517.135.627.372.102.217.073.472-.076.725.006 0 .622.05.889-.154.402-.307.977-1.031.318-1.538.39-.507.352.152.606.144.252-.008.584-.086.813-.194 0 0-.075-.494.342-.494-.12.244-.041.549-.02.579.173.25.385.417.577.463-.04-.27.032-.506.208-.658.177-.152.418-.177.615-.064.105.061.314.236.325.66.343-.183.39-.472.34-.848-.034-.252-.223-.326-.35-.392.066-.354.444.03 1.31-.191.082-.018.16-.027.23-.027.246 0 .438.115.525.316.03.069.046.145.05.226.634-.66.361-1.426.771-1.524.22.663-.107 1.897.413 2.567.004-.33.048-.726.12-.95.243-.744.54-1.363.345-1.7.395.016.435.332.025 1.42.206-.143.436-.339.536-.44.235-.234.371-.95.313-1.267.522-.132-.005 1.033.158 1.35.167.323.331.557.53.694-.166-.577.012-.943.114-1.371.076-.32.227-.843.29-1.216.434-.29-.007 1.245-.03 1.291.607-.557.883-1.044 1.066-1.405-.111-.264.03-.387.09-.417.182.964.946 1.622.87 1.71-.053.061-.298-.139-.5-.412-.172-.232-.303-.526-.367-.677-.26.503-.665 1.133-.665 1.133.444.382 2.874 1.934 4.38 3.269.402.355.641.695.88.99.133.167-.024.354-.18.143-.646-.885-1.478-.9-1.574-.902.369.23 1.436 1.18 1.436 1.978 0 .35-.207.341-.207.956 0 .713.445.87.555.885.071-.4.555-1.95.555-2.579.048-1.45-.074-1.736.048-1.736.232 0 .293.957.293 1.578 0 1.353-.962 3.794-1.147 4.814-.402 2.218-.768 3.436-1.766 3.637-.063.013-.127.019-.19.019-.277 0-.517-.119-.697-.248.033.226.115.409.244.545.27.285.714.328.943.328.564 0 .847-.416.893-.455.046-.039.106.013.071.06-.2.271-.33.255-.547.75-.327.744-.373 1.33-.324 1.849.22-.609.774-1.51.986-1.862.014-.024.048-.04.072-.025.025.015.027.052.012.077-.221.37-1.087 1.832-.977 2.278.068.278.253.659.354.812.036.054.07.102.102.143.003-.972.34-1.46.755-2.063.22-.319.435-.68.68-1.19.243-.51.292-1.444.42-1.634.057-.083.2-.1.201-.005.018.773-.543 1.304.294 2.182.288.301.647.657.647 1.175 0 .702-1.779 3.122-2.465 3.122-.047 0-.113-.008-.22-.023-.032-.004.21.218-.054.198-.077-.038-.224-.242-.466-.242-.33 0-.553.077-.666.227.2.113.263.279.281.382.045.26-.101.57-.348.74-.09.06-.184.1-.276.112-.052.227.002.921 1.031.088.065-.052.045-.249.128-.337.077-.082.103.035.17.025.093-.015.582-.729.659-.81.083-.087.18.003.147.114-.082.286-.552.954-.899 1.305-.031.032.264-.01.132.205-.026.043-.302-.098-.302-.098-1.147.439-1.284 1.082-1.059 1.398.203-.213.457-.311.717-.266.277.048.497.255.548.515.024.122.034.405-.275.69.182.106.473.11.785.009.498-.165 1.142-.693.382-1.299-.063-.05.048-.143.085-.168.036-.024.204.177.212.135.056-.312.34-.65.47-1.233.099-.436.164-1.058.228-1.087.068-.031.166.112.163.263-.001.094-.022.829-.193 1.36.101.018.18-.017.23-.012.061.006.073.05.012.073-.944.357-.413 1.342-.267 1.454.02-.4.25-.575.362-.636.242-.133.552-.1.754.08.082.073.234.256.202.57.564-.168.89-.49.941-.94.045-.394-.122-.701-.176-.752-.055-.051-.223-.124-.414-.093-.084.014-.082-.232-.024-.236.337-.024.573-.349.592-.374.018-.026-.019-.163-.05-.249-.03-.085.051-.259.129-.2.536.399.657.407.84.407.252 0 .394-.06.427-.083.008-.006.017-.01.026-.014l-.081-.052c-.157-.1-.319-.201-.381-.358-.09-.23-.03-.481.15-.626.099-.08.361-.222.798-.001v-.003c-.195-.112-.352-.368-.581-.368-.266 0-.244-.15-.244-.15s.01-.157.116-.157c.735 0 .637-.015 1.253-.253.001-.264-1.072-.122-1.153-.449-.01-.04.032-.078.086-.078 1.625.015 1.597-.097 1.9-.356-.067-.018-.144.109-.406.005-.262-.103-.36-.414-1.08-.406-.07 0-.11-.136.01-.137 1.192-.005 1.46-.34 1.577-.535-.239-.067-.916-.03-1.172-.122-.087-.031-.018-.112.061-.11 1.257.037 1.752-.368 1.852-.505-.528.006-.918-.043-1.248-.05-.323-.005-.262.068-.445.038-.1-.017-.207-.098-.14-.123.2-.073 1.475-.207 1.732-.865 0 0-.928.238-1.238.025-.06-.04.01-.086.048-.11.196-.122 1.397.17 1.705-.752-.147.017-.285.025-.416.025-.907 0-1.31-.424-1.776-.915-.314-.33-.669-.704-1.267-1.061l-.199-.12.097-.21c.1-.234.26-3.377.127-4.072-.517-2.693-.98-2.885-.753-2.997.227-.112.92 2.314 1.227 2.814.477.778 1.256 1.399 2.079 2.053 1.615 1.285 3.282 2.61 3.086 5.343 1.25-1.302.881-2.76.766-3.11-.116-.349-.764-1.204-.645-1.324.12-.12.563 1.174 2.269 1.174.975 0 1.861-.318 2.317-.679-1.085-.02-1.69-.411-2.592-.605-.571-.123-1.177-.027-1.177-.09 0-.165 1.353-.43 1.353-.43.879-.195 1.424-1.066 1.642-1.747-.536.37-1.198.622-1.657.799-1.183.455-1.41.89-1.496.804-.097-.097.316-.35.57-1.164.143-.46.227-.971.222-1.291V29.1h-1.824c.104.582-.157 1.133-.457 1.408m-18.566-9.199c0 .054-.039.112-.122.112-.083 0-.112-.049-.112-.092 0-.034.04-.186.146-.186.108 0 .088.113.088.166m.395-.166c0 .025-.058.122-.151.122s-.131-.092-.131-.146c0-.117.097-.16.141-.16.044 0 .034.024.034.067 0 .044.01.054.054.054s.053.039.053.063m.245-.302c.053 0 .136.064.136.088 0 .024-.015.117-.117.117-.17 0-.264-.063-.264-.117 0-.053.079-.17.137-.17.058 0 .053.082.108.082m.434-.151c0 .04-.015.16-.18.16-.235 0-.216-.126-.216-.16 0-.06.098-.115.115-.115s.036.022.036.042c0 .02.02.034.078.034.06 0 .167 0 .167.039m1.913-.955c0 .15.033.287.033.55 0 .264-.254.36-.605.36s-.287-.07-.449-.07c-.16 0-.073.062-.283.062-.165 0-.024.076-.331.076-.084 0-.142-.028-.142-.076 0-.05.088-.062.166-.062.2 0 .146-.236.634-.236.278 0 .254.127.464.127.21 0 .283-.195.283-.322s-.044-.224-.044-.448c0-.225.136-.23.185-.23.049 0 .122-.01.122.054s-.033.137-.033.215m6.556 4.723c0 .064-.063.117-.132.117-.068 0-.093-.068-.093-.117s.02-.09.112-.09c.093 0 .113.027.113.09m.185.214c0 .098-.093.152-.141.152-.05 0-.059-.098-.059-.152 0-.048.081-.097.122-.097.041 0 .078 0 .078.097m.273.26c0 .099-.102.208-.18.208s-.093-.112-.093-.156c0-.067.137-.16.18-.16.045 0 .093.007.093.107m.147.307c0 .044-.03.127-.124.127-.096 0-.101-.054-.101-.102 0-.042.04-.093.113-.093.072 0 .112.024.112.068m3.337 12.61c-.122 0-.05-.557.37-.557.21 0 .325.097.325-.292 0-.098-.11-.357-.406-.357-.503 0-.553-.347-.553-.38 0-.035.045-.188.183-.188.171 0-.041.297.388.297.488 0 .65.292.65.648 0 .356-.338.566-.557.566-.22 0-.2.263-.4.263m-.152.312c-.065-.07-.14-.118-.14-.141 0-.05.073-.152.121-.152.059 0 .303.205.303.342 0 .073-.093.127-.132.127-.02 0-.08-.1-.152-.176m-.165.302c-.052-.096-.108-.182-.108-.204 0-.035.054-.098.127-.098.127 0 .22.36.22.405 0 .043-.034.126-.093.126-.031 0-.088-.12-.146-.229m-.206.2c0-.025.03-.141.125-.141.096 0 .179.248.179.312 0 .063-.06.102-.103.102-.044 0-.2-.21-.2-.273m-.098.507c0-.088.064-.273.11-.273.139 0 .11.273.11.307 0 .034-.044.108-.117.108-.073 0-.103-.088-.103-.142m-.195-11.67c.275 0 .622 1.731.622 3.047s-.043 1.597-.158 1.597c-.123 0-.031-1.134-.153-2.444-.185-1.989-.543-2.2-.311-2.2m-.03-2.11c0 .088-.097.13-.14.13-.045 0-.079-.064-.079-.11 0-.03.078-.087.122-.087s.098.011.098.067m.07.285c0 .054-.03.15-.113.15-.084 0-.099-.11-.099-.15 0-.027.044-.092.1-.092.054 0 .113.039.113.092m.02.502c-.113 0-.134-.067-.134-.103 0-.017.027-.029.038-.045.01-.019.002-.051.022-.071.023-.024.057-.049.09-.049.033 0 .044.03.044.049 0 .02.033.068.033.098 0 .029.018.121-.094.121m.222.142c0 .122-.107.25-.151.25s-.073-.021-.073-.055-.032-.056-.032-.098c0-.085.09-.08.09-.113 0-.037.054-.09.08-.09.028 0 .086-.016.086.106m-.925-6.223c-.434-.35-.735-1.014-.87-1.71-.33-1.694-.615-2.228-.805-2.596-.208-.402-.58-1.042-.537-1.194.049-.17.485.394.927 1.255.342.667.618 1.507.707 2.169.452-.536.573-1.255.573-1.938 0-1.115-.227-1.58-.436-1.869-.117-.162-.497-.708-.756-.94-.195-.176-.47-.517-.405-.603.086-.112.641.38 1.034.773.332.331.99 1.762 2.41 1.762-.374-.18-.604-.963-.98-2.01-.118-.328-.186-.632-.352-.893-.258-.404-.641-.697-.883-.782-.278.142-.705.19-1.342-.063-.003-.002.124.241.045.723-.058.348-.318 1.068-1.01 1.926-.363.45-.23.829-.84 1.462.337 1.014 1.069.858 1.164.878.038.009-.305 1.052-1.72.848l-.015-.003c-.588 2.402.77 3.497.928 3.69 0-1.072.726-1.925.726-3.826 0-.092.2-.061.201 0 0 .447-.02.577-.02.904 0 1.667 2.105 2.037 2.256 2.037m.971-9.07c.128-.573-.018-.92-.266-1.301-.249-.38-1.172-.79-1.008-.93.293-.251.94.763 1.391.414.336-.259.442-.688.45-1.092-.05.036-.105.067-.162.092-.129.056-.272.085-.427.085-.382 0-.746-.181-1.007-.284-.067-.026-.526-.119-.825-.092.223.717.352 1.451-.085 2.602-.001.004.333.664 1.049.426.024-.008-.024.207-.215.4.39.206.91.697 1.08 1.246.362-1.53-1.474-2.57-1.36-2.767.153-.262 1.19.816 1.385 1.2m-7.84-1.16c.184.005.345.01.49.02-.176-.154-.385-.373-.49-.588-.005.174-.005.357 0 .568m7.101-4.144l-.03-.132c-.053-.234-.121-.516-.246-.507-.948.07-1.441.864-1.489.864-.098 0-.178-.13-.296-.275-.078-.096-.114-.118-.114-.256 0-.19.228.09.331.23.207-.312.394-.452.394-.452-.628.009-4.768-.014-4.815-.014-.13 0-.327.07-.327.07-.454.156-.521.266-.631.449-.048.078-.107.175-.195.279l-.042.049-.06.023c-.395.159-.902.44-1.26.7l-.028.02c-.105.077-.25.182-.262.227 0 0 .006.061.151.215.051-.007.13-.032.23-.11.102-.078.36-.033.244.06-.087.071-.301.227-.376.343.013.242.073.424.185.532.106.102.265.133.486.133.144 0 .523-.053.863-.235.33-.176.832-.255 1.209-.033.217.129.477.409.493 1.017.148.296.276.697.084.974-.122.177-.348.266-.677.266-.077 0-.15-.003-.25-.003-.287.003-.687-.083-.923.14-.119.113-.3.44-.404.683-.079.186-.158.376-.274.562.6-.108.938-.652 1.043-.652.112 0-.125.335-.127.491h.006c.05-.006.08-.076.277-.076.117 0 .426-.497.507-.497.074 0 .074.034.074.073 0 .21-.395.439-.395.678 0 .063.585-.332.649-.356 0-.074.117-.346.233-.346.04 0 .079.204.079.336 0 .131-.103.185-.103.278 0 .122.361.614.361.536 0-.834.312-.717.312-1.219 0-.355.093-.331.137-.331.044 0 .098.02.098.253 0 .322-.088.439-.088.488.766 0 .42-.98.15-1.224-.053-.049.108-.088.133-.088.331 0 .785 1.092 1.263 1.092-.137-.14-.208-.36-.234-.6-.043-.4.044-.74-.346-1.057-.134-.109-.284-.24-.576-.24-.054 0-.097-.052-.097-.082 0-.048.029-.09.263-.09s.494.072.84.496c-.023-.118-.006-.367-.162-.523-.233-.233-.612-.467-1.083-.623 0 0-.02-.093.385-.093.273 0 .503.281.781.281.229 0 .439-.188.439-.272-.03 0-.27-.02-.551-.112-.206-.066-.36-.297-.547-.355-.425-.135-.79-.198-.79-.288 0-.034.074-.102.146-.102.074 0 .098.087.293.087.152 0 .137-.043.24-.043.272 0 .965.58 1.121.58.127 0 .078-.23.215-.23s.137.205.137.264c0 .058-.01.283-.181.39-.034.136-.195.253-.43.273.103.107.454.604.137 1.028.01.215-.034 1.112.565 1.301.109.157-.828.659-1.404-.267-.064.331-.234.77-.795.755-.254.619.039.556.039.804 0 .117-.102.19-.19.19-.088 0-.8-.385-.8-.804-.266.131-.694.488-.998.822-.304.335-.575.55-.809.658-.434.2-.824.188-1.024-.028-.136-.147-.165-.353-.103-.607-1.055.608-.95 2.034.019 2.034.549 0 1.5-.646 1.5-.525 0 .122-.768.78-1.195.78-1.44 0-2.391 2.791-3.196 3.467 1.354 0 2.854-1.906 3.244-1.906.037 0 .068.185-.048.267-.72.512-1.305 1.39-2.019 1.64 2.702.408 3.08-1.969 3.604-1.969.183.183-.509.836-.707 1.62-.244.964.049 1.171-.513 2.5.16 0 .806-.362 1.208-.94.532-.763.61-1.48.957-1.827.055-.055.122.07.122.146 0 .049-.555 1.645-.835 1.926.527 0 1.989-.998 2.108-2.478-.414-.114-.8-.52-1.179-1.13-.7-1.125-.941-1.023-.839-1.165.09-.123.585.364.84.668.243.293.537.814.894 1.113.42.35 1.35.545 1.993-.043-.746 0-1.033-.913-1.17-1.538-.195-.887-.693-1.218-.854-1.608-.187-.453-.237-.683-.112-.683.087 0 .069.2.262.48.308.446.543.5 1.04 1.787.166-.278.727-1.062.727-1.638 0-1.335-.864-1.93-.727-2.076.12-.128 1.127.794 1.03 2.154.941-1.199.687-2.213.4-2.388-.258-.157-.413-.8-.352-.83.176-.082.144.453.815.844.737.43 1.4.043 1.38.043-.932 0-1.097-1.158-1.317-1.676-.218-.514-.578-.861-.56-.92.063-.206.688.269 1.085 1.627.366-.682.189-1.81-.103-2.266-.259-.403-.491-.646-.349-.799.086-.09.464.756 1.19.348.642-.36.759-1.103.596-1.807m-8.355 1.953c.06 0 .186.005.186.083s-.124.16-.224.16-.1-.028-.1-.068c0-.038.024-.175.138-.175m.343-.313c0 .049-.02.155-.12.155-.1 0-.106-.027-.106-.059s.015-.189.106-.189c.056 0 .12.044.12.093m.384.313c0 .06-.029.139-.095.139s-.197-.01-.197-.061 0-.163.102-.163c.059 0 .19.024.19.085m3.815-1.652c.008.059-.034.112-.092.12-.401.053-.713.062-.983.031-.019.438-.259.621-.41.691-.104.048-.22.07-.34.07-.232 0-.474-.086-.643-.245-.12-.112-.187-.247-.2-.39-.135.09-.235.14-.244.145-.016.007-.032.011-.048.011-.04 0-.078-.022-.097-.06-.026-.053-.005-.117.048-.143.005-.003.516-.262.79-.662l.057-.085.088.055c.586.365.987.497 1.953.369.059-.008.113.034.121.093m3.481-.061c0 .058-.015.141-.087.141-.147 0-.055-.32-.17-.32-.073 0-.279.091-.279.598 0 .41.112.497.214.497.103 0 .069-.195.195-.195.03 0 .071.025.071.068 0 .451-.397.497-.461.497-.092 0-.326-.156-.326-.388 0-.186.068-.348.068-.494 0-.146-.037-.263-.037-.397 0-.402.49-.562.642-.562.18 0 .17.496.17.555m-4.768.177c-.291-.062-.54-.178-.816-.344-.1.128-.217.24-.332.333-.06.188.027.324.114.406.192.18.52.24.746.136.185-.085.283-.269.288-.53m-.11.163c0 .068-.166.258-.462.258-.329 0-.329-.253-.329-.341 0-.088.054-.258.171-.258.137 0 .181.117.181.17 0 .054-.044.103-.044.156 0 .054.044.059.092.059.172 0 .308-.117.347-.117.04 0 .044.048.044.073M16.72 8.19c-.19.095-.373.157-.506.195.06.104.278.42.377.51l.053.048c.02-.345.05-.597.076-.752m-2.78 5.11c-.464-.577-1.065-1.188-1.51-1.638-.262-.266-.469-.476-.58-.609-.03-.037-.025-.09.012-.121.036-.03.09-.026.12.01.107.128.312.336.571.6.422.427.986.999 1.442 1.553.035-.104.08-.208.137-.311l-.045-.061c-.74-1.008-1.294-1.517-1.935-2.106-.612-.564-1.305-1.202-2.323-2.402-.697-.822-.672-1.275-.566-1.67.063-.236-.217-.11-.217-.278.085.005.356-.034.419-.16.15-.303.234-.51-.067-1.035-.127.13-.287.202-.457.202-.312 0-.509-.188-.58-.41-.062-.198-.009-.41.145-.603-.112-.047-.231-.072-.359-.072-.753 0-.472.667-.316 1.218.083.034.241.034.3.175.007.024-.132.098-.161.117.053.108.17.263.312.51.183.316.396.626.23.626-.206 0-.313-.21-.615-.634-.313-.439-.469-.794-.583-1.355-.035.054-.144.258-.303.133.705-.947-.185-1.5-.53-1.472.047.157.035.324-.043.48-.115.228-.324.374-.62.374-.134 0-.437-.102-.62-.545-.549.333-.505 1.154-.487 1.479.51-.093 1.073.33 1.071.365 0 0 .161-.127.207-.127.04 0 .134.051.146.079.008.017-.21.232-.195.248.59.641 1.19 1.13 2.098 1.696-.131.376-1.732-.828-2.083-1.184 0 .178-.07.208-.124.208-.184-.926-.976-1.09-1.279-.962-.195.083-.338.182-.422.257.24.06.424.222.506.456.092.261.027.55-.16.72-.08.072-.222.16-.445.16-.088 0-.191-.017-.306-.05.011.39.126.677.343.852.19.154.463.232.808.232.233 0 .49.016.569-.408.422-.127.161.37.161.37.128.14.405.402.587.537.246.183.691.07.48.343-.118 0-.353-.031-.474.065-.497.397-.48.727-.44.92.152-.067.319-.087.482-.045.244.062.426.245.463.468.026.146.006.42-.347.711.111.059.217.09.317.09.213 0 .404-.124.653-.417.155-.183.07-.381.07-.425.214-.195.334.328.436.42.351.314.604.815.571 1.135-.018.183-.1.334-.236.424-.105.067-.213.102-.32.102-.106 0-.2-.034-.277-.078.055.2.75.954 1.741.448.058-.03.094.059.08.082-.11.17-.842.312-1.095.599-.124.14-.312.476-.368.863.089-.088.47-.249.709-.249.565 0 .888-.448 1.347-.448.239 0-.788.6-1.105.736.42.419 1.597.056 1.627.056.038 0 .068.002.068.066 0 .034-.6.377-1.19.377.218.19.397.363.59.363 1.073 0 1.21-.156 1.21 0 0 .166-.678-.087-.876.493-.059.17-.18.478-.18.95.356-.261.617-.275 1.1-.386.484-.111.868-.267.97-.267.096 0 .144.078.11.093-1.266.59-1.154 1.491-1.015 2.17 1.458-.931.982-1.701 3.037-3.676-.272-.136-.537-.752-.392-1.428m-2.896-.6c0 .024-.082.127-.141.127-.059 0-.083-.014-.083-.05 0-.067.097-.116.151-.116.054 0 .073.015.073.039m.225.317c0 .136-.176.156-.195.156-.02 0-.06-.03-.06-.088 0-.112.03-.151.128-.151.053 0 .127-.01.127.083m.337.214c0 .088-.05.064-.05.185 0 .044-.038.118-.116.118-.079 0-.103-.108-.103-.19 0-.122.068-.171.134-.171s.135.014.135.058m.3.317c0 .049-.11.069-.11.157 0 .04.014.038.014.072 0 .034-.03.083-.097.083-.122 0-.127-.078-.127-.136 0-.232.16-.256.224-.256.065 0 .095.031.095.08m1.213 1.613c0 .042-.024.142-.127.142-.103 0-.12-.059-.195-.059-.076 0-.18.076-.358.076-.496 0-.564-.495-.564-.665 0-.171.046-.244.046-.408 0-.163-.08-.21-.08-.262 0-.081.087-.113.124-.113.205 0 .22.205.22.363 0 .159-.04.23-.04.346 0 .279.169.508.361.508.193 0 .162-.095.335-.095.173 0 .278.126.278.167m7.331 12.776c-.661-.098-1.357-.216-2.127-.216-1.072 0-2.2.14-3.26.336-.05.01-.106.014-.164.014-.504 0-1.167-.384-1.301-.85-.031-.11-.052-.293.067-.483-.208.002-.734.048-.277 1.102-.268.286-.513-.766-.445-.914-.62.358-.505 1.339-.505 1.339l-.304-.049c-.155-.024-.313-.037-.467-.037-.565 0-1.105.16-1.598.464.583-.044 1.094.033 1.52.098.348.054.647.118.891.086.048-.007.09.009.097.055.007.048-.027.072-.074.079-.064.008-.131.012-.2.012-.22 0-.466-.02-.74-.062-.227-.035-.562-.101-.962-.101-.41 0-.808.026-.985.175-.225.19-.384.344-.62.655.425-.109.831-.162 1.232-.162.934 0 1.825.226 2.514.226.69 0 2.159-.189 2.159-.158 0 .31-1.536.336-1.842.81-.53.823-.676 1.612-.745 2.08-.058.393-.103.705-.42 1.021-.408.408-1.231.53-1.85.53-.52 0-.967-.096-1.066-.12l-.196-.05v-.201c0-.683-.38-.239-.361-.463.317-.088.246-.333.212-.415-.188-.446-.503-.576-.66-.614.035.292-.045.546-.237.709-.116.1-.26.15-.403.15-.103 0-.206-.026-.298-.08-.088-.051-.243-.176-.311-.438-.143.165-.348.395-.23.576.06.093.922.755 1.073.205.015-.054.127.01.127.068s-.094.205-.074.214c.162.072.703.147.718.234.019.113-.047.129-.122.127-1.127-.073-1.454-.234-1.556-.322.009.142-.11.286-.142.205-.108-.273-.208-.441-.351-.546-.465-.34-.894-.015-.931.053.456.13.551.424.57.553.038.255-.105.52-.348.645-.098.05-.203.074-.312.074-.133 0-.27-.038-.406-.11.029 1.026.704 1.147.92 1.147.463 0 .658-.685.755-.685.196 0-.005.326.088.326.33 0 .622-.065.922-.15.187-.051.33-.123.493-.167.43-.113.781-.14.781-.029 0 .122-.34.192-.708.308-.394.123-.824.262-1.018.314.158.134.14.231.055.231-.116 0-.244-.182-.513-.182-.555 0-.735.743-.724.922.255-.253.556-.346.833-.244.27.098.447.362.428.64-.009.137-.08.431-.496.626.231.135.425.202.589.202.268 0 .444-.18.667-.407.068-.07.184-.245.11-.578-.02-.09.106-.15.133-.145.127.024.1.41.13.388.168-.119.366-.206.611-.206.098 0 .22.018.357-.249.048-.091.16-.006.126.11-.03.107-.269.544.248.999.043-.14.123-.258.244-.343.221-.157.515-.156.713.002.095.075.273.278.193.689.384-.049.642-.803.378-1.18-.024-.035.1-.14.147-.14.046 0 .175.24.254.24.078 0 .097 0 .219-.022 0 0-.068-.171-.057-.21.012-.039.172-.091.198-.08.027.013.383 1.07 1.286 1.438-.466-.82-.698-1.728-.69-1.758.009-.03.063-.085.097-.078.034.007.79 1.297 1.495 1.297.023 0 .046-.001.069-.004-.613-.45-.971-1.663-.97-1.702.003-.04.097-.052.133-.03.28.176.288.742.668.742.033 0 .157.004.322.01-.142-.125-.388-.393-.451-.57-.01-.03.051-.08.107-.08.154 0 .432.676 1.272.676.118 0 .197-.02.225-.04-.204-.162-.645-.813-.64-.85.004-.036.045-.06.07-.06.208 0 .67.772 1.036.772.143 0 .34-.024.57-.09-.944-.714-.597-1.86-.394-2.706.08-.337.189-.685.202-1.013l.008-.236.236-.012c.41-.022 2.653-.217 4.209-.754 0 0 .045-.175.146-.507-.449.253-1.342.684-2.942.684-.052 0-.095-.042-.095-.095 0-.052.043-.094.095-.094 1.703 0 2.783-.641 3.04-.85.059-.2.175-.564.175-.564s-1.291-.305-.645-2.157m-8.688 7.302c0 .064-.195.2-.243.2-.05 0-.078-.01-.078-.054 0-.15.2-.194.229-.194.03 0 .092-.015.092.048m.308-.156c0 .034-.024.249-.137.249-.112 0-.107-.088-.107-.143 0-.11.146-.16.18-.16.035 0 .064.02.064.054m.35-.16c0 .043-.043.391-.228.391-.079 0-.068-.06-.068-.133 0-.298.102-.312.208-.312.054 0 .089.02.089.054m.3-.015c0 .326-.115.317-.153.317-.04 0-.069-.025-.069-.074 0-.462.111-.428.146-.428.036 0 .076.004.076.185m1.656-.883c0 .113.127.283.127.459 0 .175-.239.56-.59.56-.39 0-.244-.175-.615-.175-.18 0-.288.104-.365.104-.079 0-.137 0-.137-.06 0-.176.444-.305.712-.305.244 0 .092.163.454.163.068 0 .234.025.234-.19 0-.229-.107-.372-.107-.515 0-.207.14-.316.224-.316.083 0 .141.027.141.066 0 .039-.078.097-.078.21" transform="translate(-637 -3428) translate(637 3428)"/>
                <path fill="#F9C000" d="M26.194 41.955c-.123-.29-.567-.395-.706-.283-.091.073-.122.208-.07.33.087.209.514.304.723.747.22-.322.147-.574.053-.794m-3.68-37.81c.171-1.114.54-2.046.693-2.33-.282.072-.6.39-.745.535l-.095.094h-.107c-.511 0-.658.345-.658.64 0 .495.756.419.517.658-.203.202-.775-.351-.83-.351-.045 0-.517.414-.717.214-.214-.214.632-.141.632-.8 0-.113-.056-.42-.347-.46-.29-.04-.415-.32-.515-.544-.152-.34-.238-.454-.443-.454-.258 0-.404.286-.532.538-.103.203-.192.422-.388.449-.209.028-.239.033-.275.061-.03.024-.17.177-.17.464 0 .585.793.56.555.798-.211.212-.717-.322-.762-.322-.055 0-.528.538-.714.353-.207-.207.574-.37.574-.823 0-.056-.033-.15-.063-.224-.084-.019-.17-.064-.229-.171-.031-.005-.09-.01-.186-.01-.177 0-.27-.13-.344-.233-.06-.081-.126-.174-.235-.231-.157-.083-.305-.123-.411-.135.585.958.737 2.404.79 2.95.356.022 4.209.104 4.932.026.01-.164.025-.326.045-.484-.406 0-2.242-.03-2.884-.08-.295-.023-.201-.216 0-.207.54.024 1.682.054 2.913.078m-5.883 5.72c-.005-.207-.005-.377-.001-.55l-.172.027c-.104.016-.385.054-.772.054-.57 0-1.594-.088-2.058-.682-.169-.217-.247-.471-.233-.76-.232.224-.343.513-.316.837.044.516.434.968.929 1.074.25.054.544.08.897.08.311 0 .618-.021.821-.037l.182-.015c.179-.015.293-.025.374-.025.09 0 .279-.007.349-.003m-6.31 27.61c-.107-.085-.271-.074-.404.007-.357.218.004.674-.178 1.14.885-.417.729-1.03.582-1.147M9.29 24.112c-.076-.063-.239-.011-.318.036-.181.108-.165.463-.071.653.093.189.04.409-.013.605.456-.19.864-.914.402-1.294m.15-20.425c-.115.216-.364.391-.552.554-.2.173-.342.356-.279.547.04.124.161.223.3.229.547.024.606-1.19.53-1.33m-1.871 28.95c.374-.463.036-1.033-.677-1.355.221.59-.13 1.17.273 1.4.13.073.331.046.404-.044m-.775 4.219c.011-.165-.095-.323-.258-.382-.224-.082-.85.081-.789 1.112.122-.115.255-.203.403-.223.394-.09.629-.275.644-.507M6.451 10.54c-.02-.122-.128-.224-.272-.261-.193-.05-.39.026-.527.2H5.65c-.177.23-.362.343-.546.404.236.175.536.205.714.205.483 0 .66-.388.632-.548m-.244-6.667c.077-.153.058-.323-.07-.46-.391-.414-.81-.556-1.182-.51.055.087.328.534.47.782.14.247.223.42.412.42.145.012.297-.084.37-.232m-1.266 21.56c.022-.383-.248-.473-.41-.468-.198.008-.427.146-.467.494-.041.347.076.655.215.857.2-.534.638-.444.662-.883m-.408-4.872c.067-.094.077-.219.036-.35l-.052-.1c-.059-.114-.313-.319-.672-.397-.059-.013-.149-.028-.25-.028-.044 0-.088.002-.129.009.256.413.434.994.78.994.118 0 .221-.037.287-.128m-.23-13.7c.112-.1.149-.279.09-.443-.03-.087-.22-.327-.555-.303-.335.023-.82.267-.847.368.015.028.146.092.196.116.128.061.422.244.422.244.304.142.551.148.695.018M2.947 22.836c-.072-.076-.29-.262-.573-.12-.33.165-.872.78-.895 1.065.193-.114.419-.17.68-.17.079 0 .148.004.203.008 0 0 .184.013.235.013.163 0 .422-.086.492-.246.07-.161.01-.394-.142-.55m1.078 10.962c.668.004.79.648 1.315.45.148-.056.232-.23.21-.378-.027-.182-.45-.716-1.525-.072M18.27 9.667c-.521-.254-.92-.347-1.172-.377.176.267.517.529.623.607.262.008.44-.043.515-.152.015-.023.026-.05.034-.078m-.397 32.482c.427-.04.675.12.82.266.202.2.656-.278.604-.52-.068-.311-.827-.328-1.424.254m1.126 2.79c-.112.27-.136.728-.018 1.04.217-.227.343-.31.59-.5.247-.192.414-.39.375-.587-.03-.156-.167-.28-.34-.31-.229-.04-.505.112-.607.357m3.303.326c.018.285.227.582.336.65.189-.497.691-.74.337-1.252-.063-.09-.31-.127-.458-.046-.186.102-.234.342-.215.648" transform="translate(-637 -3428) translate(637 3428)"/>
                <path fill="#EDEBEB" d="M50.399 0L48.804 0 48.804 16.556 50.399 15.444z" transform="translate(-637 -3428) translate(637 3428)"/>
                <path fill="#183ECE" d="M48.804 48L50.399 48 50.399 31.444 48.804 32.556z" transform="translate(-637 -3428) translate(637 3428)"/>
                <path fill="#E3282C" d="M48.804 16.556L48.804 32.556 50.399 31.444 50.399 15.444z" transform="translate(-637 -3428) translate(637 3428)"/>
                <path fill="#0A0B0B" d="M66.131 4.034L68.029 4.034 68.029 13.319 65.839 13.319 61.802 6.82 61.975 9.433 61.975 13.319 60.077 13.319 60.077 4.034 62.254 4.034 66.303 10.533 66.131 7.92zM72.529 9.326h2.443L73.75 5.957l-1.222 3.37zm2.867-8.077L72.94 3.106l-.823-.836L74.268.12l1.128 1.128zm1.022 12.07l-.783-2.189h-3.756l-.797 2.189h-2.004l3.477-9.285h2.404l3.477 9.285h-2.018zM81.45 5.838v2.48h1.884c.487 0 .853-.108 1.096-.324.244-.217.365-.52.365-.91 0-.388-.124-.694-.372-.914-.248-.221-.61-.332-1.089-.332H81.45zm3.451 7.48l-2.403-3.342H81.45v3.343H79.55V4.034h3.996c.991 0 1.768.272 2.33.816.562.544.843 1.28.843 2.208 0 .743-.182 1.349-.545 1.818-.363.468-.875.786-1.539.954l2.601 3.489h-2.336zM94.492 6.528c-.553-.566-1.25-.85-2.091-.85-.841 0-1.538.284-2.09.85-.554.566-.83 1.282-.83 2.149 0 .866.276 1.582.83 2.148.552.566 1.249.85 2.09.85.841 0 1.538-.284 2.09-.85.554-.566.83-1.282.83-2.148 0-.867-.276-1.583-.83-2.15m-5.534-1.273c.924-.92 2.072-1.38 3.444-1.38 1.371 0 2.522.46 3.451 1.38.93.92 1.394 2.061 1.394 3.423 0 1.361-.464 2.502-1.394 3.422-.929.919-2.08 1.379-3.451 1.379-1.372 0-2.52-.46-3.444-1.38-.926-.92-1.388-2.06-1.388-3.421 0-1.362.462-2.503 1.388-3.423M101.946 11.515c.84 0 1.526-.266 2.058-.796.53-.53.796-1.211.796-2.043 0-.83-.266-1.512-.796-2.042-.532-.53-1.218-.796-2.058-.796h-1.46v5.677h1.46zm0-7.481c1.354 0 2.484.442 3.391 1.327.907.884 1.36 1.99 1.36 3.315 0 1.327-.453 2.432-1.36 3.316-.907.885-2.037 1.327-3.391 1.327h-3.359V4.034h3.359zM114.039 4.034L115.937 4.034 115.937 13.319 113.747 13.319 109.711 6.82 109.883 9.433 109.883 13.319 107.986 13.319 107.986 4.034 110.163 4.034 114.212 10.533 114.039 7.92zM117.624 4.034h1.898v9.285h-1.898V4.034zm1.46-3.912l1.128 1.127-2.457 1.857-.822-.836 2.15-2.148zM63.476 23.571c.681.142 1.23.283 1.646.425.416.142.797.32 1.142.537.345.216.59.484.736.802.146.319.22.704.22 1.154 0 .513-.11.967-.326 1.36-.217.393-.504.696-.863.908-.358.213-.734.372-1.128.478-.394.106-.799.159-1.215.159-1.266 0-2.228-.299-2.887-.896-.66-.596-1.047-1.346-1.162-2.248h1.912c.133.478.36.827.684 1.048.323.222.802.332 1.44.332.531 0 .936-.093 1.215-.279.278-.185.418-.446.418-.782 0-.213-.078-.383-.232-.511-.155-.128-.344-.223-.564-.285-.222-.062-.616-.154-1.182-.278l-.1-.02-.093-.02-.112-.027c-.479-.097-.881-.204-1.209-.318-.327-.115-.65-.274-.969-.477-.318-.204-.56-.465-.723-.783-.164-.318-.245-.699-.245-1.141 0-.92.345-1.636 1.035-2.149.69-.512 1.513-.769 2.468-.769 1.17 0 2.056.268 2.663.803.606.534.966 1.226 1.08 2.075h-1.923c-.23-.742-.832-1.114-1.806-1.114-.54 0-.942.1-1.208.299-.265.198-.398.457-.398.775 0 .257.113.443.339.557.226.115.674.244 1.347.385M72.33 24.433c.478 0 .84-.12 1.088-.358.248-.238.372-.565.372-.981 0-.425-.124-.754-.372-.988-.248-.234-.61-.352-1.088-.352h-1.925v2.68h1.925zm.08-4.483c1.008 0 1.812.278 2.41.836.596.557.895 1.317.895 2.281 0 .973-.301 1.744-.903 2.314-.602.571-1.403.856-2.402.856h-2.005v2.998h-1.898V19.95h3.903zM83.554 22.444c-.553-.566-1.25-.849-2.091-.849-.84 0-1.538.283-2.09.849-.554.566-.83 1.282-.83 2.149 0 .866.276 1.582.83 2.148.552.566 1.25.85 2.09.85.841 0 1.538-.284 2.09-.85.554-.566.83-1.282.83-2.148 0-.867-.276-1.583-.83-2.15m-5.534-1.272c.924-.92 2.072-1.38 3.444-1.38 1.372 0 2.522.46 3.451 1.38.93.919 1.394 2.06 1.394 3.422 0 1.361-.464 2.502-1.394 3.421-.929.92-2.08 1.38-3.451 1.38-1.372 0-2.52-.46-3.444-1.38-.926-.92-1.388-2.06-1.388-3.421 0-1.362.462-2.503 1.388-3.422M89.547 21.754v2.48h1.885c.487 0 .852-.108 1.096-.324.243-.217.365-.52.365-.91 0-.388-.124-.693-.372-.914-.248-.221-.611-.332-1.089-.332h-1.885zM93 29.234l-2.403-3.342h-1.049v3.343H87.65V19.95h3.996c.99 0 1.767.272 2.33.816.562.544.842 1.28.842 2.208 0 .743-.181 1.349-.543 1.818-.363.468-.877.786-1.54.954l2.601 3.489h-2.336zM102.756 19.95L102.756 21.754 100.074 21.754 100.074 29.234 98.175 29.234 98.175 21.754 95.508 21.754 95.508 19.95zM110.302 22.444c-.553-.566-1.25-.849-2.09-.849-.841 0-1.539.283-2.091.849-.553.566-.83 1.282-.83 2.149 0 .866.277 1.582.83 2.148.552.566 1.25.85 2.09.85.841 0 1.538-.284 2.091-.85.554-.566.83-1.282.83-2.148 0-.867-.276-1.583-.83-2.15m-5.535-1.272c.924-.92 2.072-1.38 3.444-1.38 1.371 0 2.523.46 3.452 1.38.929.919 1.393 2.06 1.393 3.422 0 1.361-.464 2.502-1.393 3.421-.929.92-2.08 1.38-3.452 1.38-1.372 0-2.52-.46-3.444-1.38-.926-.92-1.387-2.06-1.387-3.421 0-1.362.461-2.503 1.387-3.422M119.721 19.95L121.725 19.95 118.659 29.234 116.27 29.234 113.229 19.95 115.234 19.95 117.464 26.993zM128.827 19.95L130.725 19.95 130.725 29.234 128.535 29.234 124.499 22.736 124.672 25.349 124.672 29.234 122.774 29.234 122.774 19.95 124.951 19.95 129 26.449 128.827 23.836zM132.411 19.95h1.899v9.284h-1.899V19.95zm1.461-3.912L135 17.165l-2.456 1.857-.823-.836 2.151-2.148zM62.958 41.159h2.443l-1.221-3.37-1.222 3.37zm3.89 3.992l-.783-2.188h-3.758l-.796 2.188h-2.004l3.478-9.284h2.402l3.479 9.284h-2.018zM73.326 40.111h5.084v5.04h-1.62v-1.565c-.22.513-.608.929-1.161 1.247-.553.318-1.21.477-1.971.477-1.31 0-2.407-.452-3.293-1.36-.885-.905-1.327-2.049-1.327-3.428 0-1.388.454-2.537 1.36-3.448.908-.91 2.056-1.367 3.446-1.367 1.097 0 2.05.3 2.86.896.81.597 1.352 1.377 1.626 2.34H76.3c-.22-.45-.547-.802-.976-1.053-.43-.253-.927-.378-1.492-.378-.86 0-1.553.283-2.085.848-.53.566-.797 1.296-.797 2.189 0 .866.255 1.585.764 2.155.509.57 1.206.856 2.09.856.647 0 1.209-.164 1.686-.491.478-.327.797-.782.956-1.366h-3.12V40.11zM86.335 37.671L81.994 37.671 81.994 39.541 85.977 39.541 85.977 41.344 81.994 41.344 81.994 43.347 86.335 43.347 86.335 45.151 80.095 45.151 80.095 35.867 86.335 35.867zM93.57 35.867L95.468 35.867 95.468 45.151 93.278 45.151 89.242 38.652 89.415 41.265 89.415 45.151 87.516 45.151 87.516 35.867 89.694 35.867 93.742 42.366 93.57 39.752zM103.765 35.867L103.765 37.671 101.083 37.671 101.083 45.151 99.184 45.151 99.184 37.671 96.517 37.671 96.517 35.867zM110.628 35.867h1.925v5.53c0 1.265-.354 2.234-1.062 2.905-.708.673-1.633 1.008-2.775 1.008-1.141 0-2.066-.335-2.774-1.008-.709-.671-1.062-1.64-1.062-2.905v-5.53h1.925v5.424c0 1.478.637 2.215 1.911 2.215 1.275 0 1.912-.737 1.912-2.215v-5.424zM116.136 37.67v2.48h1.885c.487 0 .852-.108 1.096-.324.243-.217.365-.52.365-.909s-.124-.694-.372-.915c-.248-.22-.61-.331-1.089-.331h-1.885zm3.452 7.481l-2.403-3.342h-1.049v3.342h-1.898v-9.284h3.996c.99 0 1.767.272 2.33.815.562.544.842 1.28.842 2.209 0 .742-.181 1.348-.543 1.817-.363.469-.877.787-1.54.955l2.601 3.488h-2.336zM125.84 41.159h2.443l-1.22-3.37-1.222 3.37zm3.89 3.992l-.783-2.188h-3.757l-.797 2.188h-2.003l3.478-9.284h2.402l3.478 9.284h-2.018z" transform="translate(-637 -3428) translate(637 3428)"/>
            </g>
        </g>
    </g>
</svg>
