<svg xmlns="http://www.w3.org/2000/svg" width="98" height="56" viewBox="0 0 98 56">
    <g fill="none" fill-rule="evenodd">
        <g>
            <g>
                <path fill="#DE9D1C" d="M97.991 34.662l.009-.38c0-7.08-3.486-13.348-8.842-17.197-.8-.575-3.882-2.338-4.57-2.605-.6-.233-1.195-.48-1.792-.719-.427-.17-2.872-1.109-2.872-1.109h4.173V2.255H73.97c-2.346.011-4.537.908-6.197 2.318V0H57.151v29.02c0 4.507-3.67 8.161-8.196 8.161s-8.195-3.654-8.195-8.16L40.756 0H29.942v2.32H9.5l5.044 6.536C5.97 12.693 0 21.272 0 31.24c0 13.546 11.028 24.527 24.631 24.527 7.486 0 14.2-3.334 18.718-8.583 0 0 .252.081.328.101.49.127.976.265 1.467.381.56.133 1.129.209 1.7.274.421.048.843.108 1.267.125.516.02 1.033.042 1.55.005.482-.034.966-.036 1.446-.088.513-.056 1.024-.143 1.533-.235.554-.099 1.06-.23 1.599-.397l.187.215C58.825 52.682 65.89 56 73.853 56 87.19 56 98 46.697 98 35.221c0-.179-.003-.358-.008-.536v-.023zM24.553 45.083c-7.655 0-13.86-6.178-13.86-13.8 0-7.627 6.205-13.806 13.86-13.806 1.89 0 3.7.377 5.343 1.06 0 0-.009 6.788 0 9.962.002.984.051 1.967.171 2.946.103.841.264 1.67.483 2.488.186.698.388 1.39.659 2.059.278.69.58 1.372.933 2.027.364.674.745 1.34 1.213 1.955.291.383.593.792.9 1.164-2.5 2.44-5.925 3.945-9.702 3.945zM87.367 34.32c-.007 2.438-.839 4.683-2.233 6.471l-.017.031-.033.042c-.428.532-.909 1.017-1.413 1.48-1.1 1.013-2.377 1.721-3.802 2.167-.494.155-.987.312-1.49.433-.738.176-1.49.278-2.25.324-.184.01-.366.038-.548.058-.495.056-.989.007-1.482-.023-.826-.051-1.644-.185-2.46-.311-.647-.1-1.295-.211-1.93-.368-.556-.136-1.049-.3-1.629-.512-1.716-.681-3.214-1.641-4.42-2.78.702-.82 2.853-4.501 3.02-4.903.36-.856.745-1.609.942-3.81.085-3.958.065-13.515.065-13.515 1.034.898 2.372 1.466 3.707 1.97l.174.063s5.122 1.58 9.51 3.487l.02.01c.356.162.586.269.586.27 3.38 1.777 5.683 5.314 5.683 9.387v.029z" transform="translate(-812 -3424) translate(812 3424)"/>
                <path fill="#006EB7" d="M85.523 17.583c6 3.154 10.095 9.457 10.095 16.684 0 .282-.018.938-.018.938 0 10.108-9.592 18.303-21.34 18.303-10.24 0-19.28-6.219-21.305-14.513l.094-.031c.9-.358 1.743-.732 2.506-1.342.388-.31.724-.67 1.08-1.01.23-.224.813-.896.922-1.006.039.08.56 1.508.85 2.18.345.794 1.183 2.3 1.183 2.3 2.264 4.347 8.277 7.548 14.883 7.548 8.832 0 14.139-4.306 15.17-11.783.006-.049.04-1.585.04-1.585 0-4.982-2.784-9.306-6.925-11.473-4.639-2.188-10.803-4.08-10.803-4.08-2.892-.972-4.974-3.66-4.974-6.867 0-4.024 3.276-7.279 7.318-7.279h7.38l-.01 5.795h-7.436c-.751 0-1.389.621-1.389 1.37 0 .473.244.89.614 1.132 0 0 .237.156.356.202.816.31 8.878 3.18 9.205 3.32.465.197.934.389 1.386.614.371.184 1.118.583 1.118.583z" transform="translate(-812 -3424) translate(812 3424)"/>
                <path fill="#FFF" d="M35.908 42.92c-2.92 2.81-6.867 4.51-11.248 4.51-8.964 0-16.23-7.236-16.23-16.163 0-8.928 7.266-16.164 16.23-16.164 5.747 0 10.796 2.974 13.68 7.461l-.003-8.686v-.006c-3.162-2.482-7.013-4.127-11.226-4.6l.001-.004 3.297-4.63H14.13l4.165 5.399h-.001C9.083 12.739 2.37 21.217 2.37 31.264c0 12.223 9.95 22.132 22.225 22.132 6.44 0 12.25-2.723 16.31-7.082-.075-.044-.114-.058-.174-.09-.131-.072-.262-.144-.396-.21-1.025-.5-1.986-1.105-2.885-1.803-.462-.359-.897-.752-1.344-1.128l-.196-.16-.003-.002z" transform="translate(-812 -3424) translate(812 3424)"/>
                <path fill="#ED1C24" d="M32.283 19.783s-.083 10.684.012 11.316c.118.78.31 1.402.495 2.09.152.564.321 1.122.546 1.662.441 1.058.936 2.091 1.552 3.06.363.57.72 1.145 1.175 1.65.2.22.389.451.594.668.314.332.63.665.96.982.381.366.793.696 1.21 1.02.501.386 1.02.746 1.56 1.068.86.51 1.746.974 2.692 1.308.51.179 1.017.369 1.54.501.621.158 1.25.29 1.888.389.833.129 1.668.188 2.507.197.956.01 1.905-.093 2.85-.23.337-.05.547-.076.874-.167l-.055-.089c-1.483-2.32-2.097-4.272-2.415-5.525 0 0-.669.07-.885.078-.693.026-1.379-.053-2.063-.139-.216-.027-.431-.072-.643-.125-.603-.148-1.197-.321-1.77-.562-.68-.286-1.327-.633-1.938-1.042-.515-.345-.98-.755-1.421-1.19-.212-.209-.434-.411-.622-.64-.239-.293-.455-.605-.67-.917-.528-.77-.937-1.6-1.237-2.484-.374-1.098-.576-2.13-.728-3.265 0 0-.613-5.994-6.001-9.609l-.007-.005zM65.411 2.344s-.003 19.256 0 28.596c0 .692-.05 1.326-.166 2.123-.438 3.206-3.397 6.533-3.234 6.371 0 0-.558-.8-.752-1.125-.17-.285-.315-.584-.476-.875-.312-.565-1.01-2.53-1.11-2.906-.114-.435-.24-.6-.238-1.328.003-1.57-.002-30.856-.002-30.856h5.978zM32.244 7.943c2.175.708 4.232 1.709 6.093 2.956V2.344h-6.093v5.585" transform="translate(-812 -3424) translate(812 3424)"/>
            </g>
        </g>
    </g>
</svg>
