<svg xmlns="http://www.w3.org/2000/svg" width="164" height="48" viewBox="0 0 164 48">
    <g fill="none" fill-rule="evenodd">
        <g fill="#173271">
            <g>
                <path d="M78.914 45.002c-2.16 0-3.57-.99-5.4-2.421-1.84-1.433-4.035-3.127-7.35-3.127-3.651 0-6.626 2.152-8.214 5.762l2.723 1.36c1.2-2.593 3.116-4.124 5.278-4.124 2.16 0 3.57.99 5.397 2.42C73.19 46.308 75.385 48 78.7 48c3.65 0 6.622-2.149 8.211-5.756l-2.72-1.366c-1.201 2.593-3.117 4.124-5.277 4.124M3.402 17.597L0 17.597 0 41.634 15.193 41.634 15.193 38.689 3.402 38.689zM18.856 41.635L22.143 41.635 22.143 24.063 18.856 24.063zM20.482 16.55c-1.167 0-2.144.97-2.144 2.138 0 1.188.977 2.158 2.144 2.158 1.204 0 2.18-.97 2.18-2.158 0-1.168-.976-2.138-2.18-2.138M34.267 39.032c-1.55 0-2.271-.991-2.271-3.256v-8.883h5.228v-2.83h-5.228v-5.206l-3.287.457v4.75h-3.296v2.829h3.296v8.971c0 3.66 1.475 6.113 5.012 6.113 1.133 0 2.535-.24 4.194-.832l-.639-2.692c-1.296.393-2.14.58-3.009.58M48.063 23.72c-4.278 0-8.25 3.426-8.25 9.146 0 5.685 3.972 9.111 8.25 9.111 4.312 0 8.286-3.426 8.286-9.111 0-5.72-3.974-9.146-8.286-9.146m0 15.427c-2.494 0-4.91-2.023-4.91-6.281 0-4.265 2.416-6.316 4.91-6.316 2.53 0 4.947 2.051 4.947 6.316 0 4.258-2.417 6.281-4.947 6.281M98.378 21.713L102.433 15.825 99.608 15.34 96.779 19.33 93.977 15.34 91.111 15.825 95.165 21.713zM96.779 23.669c-4.286 0-8.198 3.392-8.198 9.146 0 5.685 3.912 9.111 8.198 9.111 3.39 0 6.331-1.99 7.538-5.23l-3.13-.726c-.74 2.158-2.475 3.24-4.355 3.24-2.336 0-4.685-1.79-4.965-5.497H104.8c.254-6.996-3.984-10.044-8.022-10.044zm-4.843 7.53c.44-3.095 2.502-4.814 4.896-4.814 2.375 0 4.294 1.746 4.656 4.815h-9.552zM114.485 21.712L118.539 15.824 115.714 15.34 112.886 19.33 110.082 15.34 107.216 15.824 111.271 21.712zM111.893 28.706v-4.693h-3.137v17.57h3.286v-10.32c1.59-1.991 4.147-3.725 6.996-4.5l-.654-3.289c-2.956.947-5.344 3.255-6.491 5.232M123.701 16.499c-1.167 0-2.144.97-2.144 2.138 0 1.188.977 2.158 2.144 2.158 1.203 0 2.18-.97 2.18-2.158 0-1.168-.977-2.138-2.18-2.138M122.076 41.583L125.362 41.583 125.362 24.012 122.076 24.012zM137.557 26.499c1.93 0 3.795 1.228 4.267 3.795l3.252-.753c-1.006-3.804-3.982-5.872-7.573-5.872-4.285 0-8.198 3.392-8.198 9.146 0 5.72 3.913 9.111 8.198 9.111 3.591 0 6.574-2.068 7.573-5.873l-3.252-.752c-.472 2.566-2.337 3.795-4.267 3.795-2.494 0-4.912-2.016-4.912-6.281 0-4.272 2.418-6.316 4.912-6.316M155.967 23.669c-4.286 0-8.198 3.392-8.198 9.146 0 5.685 3.912 9.111 8.198 9.111 3.39 0 6.331-1.99 7.538-5.23l-3.128-.726c-.742 2.158-2.476 3.24-4.356 3.24-2.337 0-4.686-1.79-4.966-5.497h12.934c.254-6.996-3.984-10.044-8.022-10.044zm-4.842 7.53c.44-3.095 2.501-4.814 4.896-4.814 2.375 0 4.295 1.746 4.655 4.815h-9.551zM63.538 30.317c0-2.114 1.521-3.817 3.65-3.817 2.13 0 3.645 1.701 3.647 3.816l.009 6.928h3.244v-6.928c.002-2.115 1.518-3.816 3.648-3.816 2.129 0 3.65 1.703 3.65 3.817l.005 6.927h3.247V21.401l-7.421-6.983c2.553-1.596 4.252-4.42 4.252-7.641l-.001-2.134-7.39-1.95V0h-3.24v2.699l-7.372 1.944-.007 2.134c0 3.218 1.705 6.042 4.255 7.64l-7.425 6.984v15.843h3.247l.002-6.927zm3.194-23.54V6.51l5.704-1.505 5.753 1.518v.254c0 3.46-2.226 6.273-5.726 6.347-3.487-.074-5.73-2.886-5.73-6.347zm-3.196 15.342l6.961-6.514c.589.14 1.38.256 1.966.256.584 0 1.377-.116 1.964-.255l6.965 6.513v3.286c-.97-.994-2.286-1.671-3.927-1.671-2.01 0-3.798 1.017-5.002 2.48-1.205-1.463-2.995-2.48-5.003-2.48-1.64 0-2.955.675-3.924 1.666V22.12z" transform="translate(-950 -3428) translate(950 3428)"/>
            </g>
        </g>
    </g>
</svg>
