<svg xmlns="http://www.w3.org/2000/svg" width="97" height="65" viewBox="0 0 97 65">
    <g fill="none" fill-rule="evenodd">
        <g>
            <g>
                <path d="M3.007 0H94.01V49.125H3.007z" transform="translate(-1154 -3420) translate(1154 3420)"/>
                <path fill="#283782" d="M54.048 43.799v1.167l2.879 2.354-4.354 1.77-8.743.017-4.674-1.787.569-.425c4.762-.92 9.525-1.893 14.323-3.096zM64.053 13.75c17.006-1.964 29.659.16 29.925 5.946.338 7.539-19.796 18.475-44.853 24.368-25.074 5.875-45.777 4.53-46.114-3.008-.267-5.911 12.581-14.069 30.103-20.103.196.796.48 1.521.853 2.14C23.376 27.519 16.09 33.234 16.09 37.87c0 6.566 14.572 8.53 32.396 4.407 17.841-4.124 32.413-12.83 32.413-19.396 0-4.512-6.895-6.848-17.006-6.53.089-.831.142-1.698.16-2.6zM48.04 0l.445 3.893c1.767.104 2.386 1.94.29 2.753l-.166.06.036 3.31c3.998 4.619 11.48 3.929 14.536-2.106.123 9.971-.275 18.524-8.832 19.694l-.302.038 3.145 1.77-3.145 2.052v8.494c-3.554.96-7.108 1.808-10.662 2.432l-1.333.223V31.464l-3.163-2.053 3.163-1.77c-8.052-.915-9.13-8.12-9.167-16.99V9.634c.002-.57.008-1.144.015-1.724 3.01 5.942 10.309 6.702 14.35 2.316l.186-.21.036-3.31c-2.235-.758-1.717-2.61-.01-2.801l.134-.012L48.041 0zm-9.365 13.962c.231 7.309 3.412 11.698 6.575 13.538l-1.066 2.07 1.013 2.018.569 9.38.497-9.486-.8-1.911 1.262-2.283c-3.838-1.982-6.504-7.309-5.81-13.025-1.013.071-1.244 0-2.24-.3z" transform="translate(-1154 -3420) translate(1154 3420)"/>
                <path fill="#FFF" d="M44.242 14.115c.23 7.309 3.394 11.715 6.557 13.556l-1.049 2.07.996 2.018.55 9.36.498-9.467-.782-1.91 1.244-2.284c-3.803-1.982-6.468-7.308-5.775-13.024-1.013.07-1.244 0-2.24-.319z" transform="translate(-1154 -3420) translate(1154 3420)"/>
                <path d="M44.242 14.115H52.309999999999995V41.137H44.242z" transform="translate(-1154 -3420) translate(1154 3420)"/>
                <path fill="#102A83" d="M52.292 27.44c-3.839-1.981-6.504-7.308-5.811-13.024-1.013.07-1.244 0-2.24-.3.232 7.308 3.413 11.697 6.576 13.537l-1.067 2.07 1.013 2.018.57 9.379.497-9.485-.8-1.912 1.262-2.282z" transform="translate(-1154 -3420) translate(1154 3420)"/>
                <path fill="#FFF" d="M44.242 14.115c.23 7.309 3.394 11.715 6.557 13.556l-1.049 2.07.996 2.018.55 9.36.498-9.467-.782-1.91 1.244-2.284c-3.803-1.982-6.468-7.308-5.775-13.024-1.013.07-1.244 0-2.24-.319z" transform="translate(-1154 -3420) translate(1154 3420)"/>
                <text fill="#283782" font-family="DIN2014-Bold, DIN 2014" font-size="6.013" font-weight="bold" transform="translate(-1154 -3420) translate(1154 3420)">
                    <tspan x="0" y="62.017">Městská sportovní zařízení Litoměřice</tspan>
                </text>
            </g>
        </g>
    </g>
</svg>
