<svg xmlns="http://www.w3.org/2000/svg" width="140" height="56" viewBox="0 0 140 56">
    <g fill="none" fill-rule="evenodd">
        <g>
            <g>
                <path fill="#004188" d="M0 .012h12.687c5.807 0 11.734 1.584 11.734 9.457 0 2.987-1.313 5.928-3.938 6.879v.272c3.262 1.312 5.33 4.027 5.33 8.101 0 7.015-5.727 9.412-10.977 9.412H0V.012zm11.097 13.123c1.59 0 3.381-.18 3.381-2.535 0-2.532-2.028-2.352-3.62-2.352h-.756v4.887h.995zm-.995 12.852h1.233c1.79 0 4.376-.044 4.376-2.851 0-2.85-2.784-2.805-4.535-2.805h-1.074v5.656zM27.217 11.247h8.341v22.886h-8.34V11.247zm9.023-5.942c0 3.375-2.318 4.849-4.841 4.849s-4.84-1.474-4.84-4.849c0-2.987 2.079-4.809 4.84-4.809 2.761 0 4.841 1.822 4.841 4.81zM47.687 36.878s1.61.18 2.863-1.076c1.297-1.3.18-3.272.18-3.272-1.26 1.419-3.271 2.119-5.004 2.119-5.492 0-8.637-6.29-8.637-11.98s3.107-11.939 8.676-11.939c2.576 0 4.546 1.379 5.87 3.792h.266l-.266-3.274h8.397v21.548c0 1.694.024 2.97-.09 4.086-.158 1.572-.588 2.827-1.74 4.48-2.09 2.998-5.056 3.766-10.543 3.766h-4.402v-8.25h4.43zm1.827-10.935c1.667 0 2.463-1.464 2.463-3.19 0-1.723-.91-3.318-2.538-3.318-1.592 0-2.69 1.466-2.69 3.277 0 1.852 1.06 3.231 2.765 3.231z" transform="translate(-1291 -3424) translate(1291 3424)"/>
                <path fill="#004188" d="M0 45.128L41.764 45.128 41.764 36.877 0 36.877zM61.583 36.878H136.7v8.25H56.815s2.11-1.298 3.509-3.944c1.424-2.689 1.259-4.306 1.259-4.306" transform="translate(-1291 -3424) translate(1291 3424)"/>
                <path fill="#E3000F" d="M83.181 34.133L75.633 34.133 71.073 22.565 71.073 34.133 61.524 34.133 61.524 0 74.115 0 79.406 16.046 84.698 0 97.291 0 97.291 34.133 87.741 34.133 87.741 23.704zM113.597 31.116h-.226c-1.782 2.155-3.372 3.533-6.137 3.533-5.455 0-8.486-6.29-8.486-11.852 0-5.775 3.07-12.067 8.75-12.067 2.425 0 4.434.992 5.873 3.232h.226l-.302-2.715h9.584v22.886h-9.584l.302-3.017zm-2.612-5.172c1.856 0 2.612-1.68 2.612-3.449 0-1.767-1.06-3.06-2.612-3.06-1.553 0-2.54 1.466-2.54 3.147 0 1.81.758 3.362 2.54 3.362zM140 11.385L136.704 11.385 136.704 6.602 127.665 6.602 127.665 11.385 124.369 11.385 124.369 19.665 127.665 19.665 127.665 34.133 136.704 34.133 136.704 19.665 140 19.665z" transform="translate(-1291 -3424) translate(1291 3424)"/>
                <path fill="#494948" d="M5.129 48.79L5.129 50.207 1.588 50.207 1.588 51.676 4.773 51.676 4.773 53.032 1.588 53.032 1.588 54.511 5.242 54.511 5.242 55.918 0 55.918 0 48.79zM9.189 53.328L11.001 48.79 12.721 48.79 9.861 55.918 8.518 55.918 5.658 48.79 7.378 48.79zM17.238 52.002c.196-.176.295-.457.295-.841 0-.384-.102-.648-.306-.79-.203-.143-.56-.215-1.068-.215h-1.19v2.111h1.16c.542 0 .913-.089 1.109-.265zm1.913-.847c0 1.143-.451 1.88-1.353 2.215l1.8 2.548h-1.954l-1.577-2.275H14.97v2.275H13.38V48.79h2.697c1.106 0 1.894.187 2.366.562.471.373.707.974.707 1.803zM25.876 52.314c0-.637-.203-1.18-.61-1.627-.407-.449-.907-.673-1.502-.673-.593 0-1.093.224-1.5.673-.408.448-.61.99-.61 1.627 0 .636.202 1.176.61 1.62.407.446.907.67 1.5.67.595 0 1.095-.224 1.502-.67.407-.444.61-.984.61-1.62zm.54 2.62c-.72.704-1.605 1.056-2.657 1.056-1.05 0-1.936-.352-2.656-1.056-.719-.704-1.078-1.58-1.078-2.626 0-1.047.36-1.923 1.078-2.626.72-.704 1.605-1.056 2.656-1.056 1.052 0 1.938.352 2.657 1.056.719.703 1.078 1.58 1.078 2.626 0 1.047-.36 1.922-1.078 2.626zM32.388 52.231c.19-.214.285-.526.285-.938 0-.411-.123-.704-.37-.876-.249-.175-.634-.26-1.156-.26h-.906v2.396h1.069c.529 0 .889-.107 1.078-.322zm1.165-2.804c.5.426.748 1.078.748 1.958 0 .88-.255 1.525-.767 1.933-.513.407-1.295.612-2.347.612h-.946v1.988h-1.587V48.79h2.513c1.093 0 1.887.212 2.386.637zM37.207 50.212c-.153.126-.229.293-.229.501 0 .206.093.372.28.493.186.123.617.267 1.292.434.674.167 1.199.417 1.572.75.374.333.56.82.56 1.458 0 .639-.239 1.158-.717 1.556-.48.396-1.108.596-1.889.596-1.126 0-2.14-.418-3.042-1.255l.947-1.161c.766.672 1.476 1.009 2.127 1.009.292 0 .52-.063.686-.19.166-.125.25-.295.25-.51 0-.213-.089-.383-.265-.508-.176-.126-.526-.254-1.048-.383-.828-.198-1.433-.455-1.817-.77-.383-.317-.574-.813-.574-1.49 0-.675.242-1.197.727-1.564s1.09-.552 1.816-.552c.475 0 .95.082 1.425.246.475.162.89.393 1.242.693l-.804 1.162c-.618-.47-1.255-.704-1.913-.704-.265 0-.474.064-.626.19M42.035 48.79h1.588v2.926l2.687-2.926h1.964l-2.829 3.15c.244.34.694.975 1.353 1.903.658.928 1.15 1.619 1.476 2.075h-1.852l-2.087-2.815-.712.795v2.02h-1.588V48.79zM52.792 48.056h-1.455l1.293-1.805 1.577.662-1.415 1.143zm-.671 2.855l-.896 2.07h1.781l-.885-2.07zm2.147 5.007l-.662-1.54h-2.981l-.661 1.54h-1.69l3.074-7.128h1.536l3.073 7.128h-1.689zM62.033 50.212c-.153.126-.23.293-.23.501 0 .206.093.372.28.493.187.123.618.267 1.293.434.675.167 1.199.417 1.573.75.373.333.559.82.559 1.458 0 .639-.239 1.158-.718 1.556-.478.396-1.107.596-1.887.596-1.127 0-2.141-.418-3.043-1.255l.946-1.161c.767.672 1.477 1.009 2.127 1.009.292 0 .521-.063.687-.19.166-.125.25-.295.25-.51 0-.213-.089-.383-.265-.508-.177-.126-.526-.254-1.049-.383-.827-.198-1.432-.455-1.817-.77-.382-.317-.574-.813-.574-1.49 0-.675.243-1.197.728-1.564.484-.367 1.09-.552 1.817-.552.474 0 .949.082 1.424.246.474.162.889.393 1.242.693l-.804 1.162c-.617-.47-1.255-.704-1.913-.704-.265 0-.474.064-.626.19M72.859 46.769L73.927 46.769 72.904 48.093 71.671 48.093 70.649 46.769 71.717 46.769 72.291 47.405zM73.006 50.166L73.006 55.917 71.419 55.917 71.419 50.166 69.404 50.166 69.404 48.791 75.022 48.791 75.022 50.166zM80.111 50.212c-.151.126-.228.293-.228.501 0 .206.093.372.28.493.186.123.617.267 1.292.434.674.167 1.2.417 1.572.75.374.333.56.82.56 1.458 0 .639-.24 1.158-.718 1.556-.478.396-1.107.596-1.887.596-1.126 0-2.14-.418-3.043-1.255l.946-1.161c.768.672 1.476 1.009 2.128 1.009.291 0 .52-.063.687-.19.165-.125.249-.295.249-.51 0-.213-.09-.383-.265-.508-.177-.126-.526-.254-1.048-.383-.828-.198-1.433-.455-1.817-.77-.384-.317-.575-.813-.575-1.49 0-.675.243-1.197.728-1.564s1.09-.552 1.817-.552c.474 0 .95.082 1.425.246.474.162.889.393 1.241.693l-.804 1.162c-.618-.47-1.255-.704-1.914-.704-.264 0-.472.064-.626.19M87.892 50.166L87.892 55.917 86.305 55.917 86.305 50.166 84.289 50.166 84.289 48.791 89.906 48.791 89.906 50.166zM93.469 50.911l-.896 2.07h1.78l-.884-2.07zm2.147 5.006l-.662-1.54h-2.982l-.662 1.54h-1.689l3.074-7.126h1.536l3.074 7.126h-1.69zM100.316 53.328L102.129 48.79 103.849 48.79 100.989 55.918 99.645 55.918 96.786 48.79 98.506 48.79zM109.822 48.79L109.822 50.207 106.28 50.207 106.28 51.676 109.467 51.676 109.467 53.032 106.28 53.032 106.28 54.511 109.934 54.511 109.934 55.918 104.693 55.918 104.693 48.79zM112.937 54.572h1.088c.455 0 .795-.056 1.022-.168.229-.112.342-.333.342-.664 0-.329-.12-.546-.361-.651-.242-.106-.626-.159-1.156-.159h-.935v1.642zm0-2.897h.753c.44 0 .768-.047.98-.143.214-.094.322-.299.322-.616 0-.316-.098-.525-.296-.627-.196-.102-.528-.154-.996-.154h-.763v1.54zm1.526 4.242h-3.114v-7.126h2.768c.48 0 .897.056 1.246.173.35.115.612.271.79.468.318.367.478.782.478 1.244 0 .559-.18.973-.54 1.244-.122.095-.207.156-.255.179-.047.024-.131.063-.254.117.44.096.792.295 1.054.597.26.303.39.678.39 1.127 0 .496-.169.934-.508 1.315-.393.443-1.078.662-2.055.662zM123.337 48.79L124.924 48.79 124.924 55.918 123.337 55.918 119.948 51.451 119.948 55.918 118.36 55.918 118.36 48.79 119.846 48.79 123.337 53.379zM126.674 55.918L128.261 55.918 128.261 48.79 126.674 48.79z" transform="translate(-1291 -3424) translate(1291 3424)"/>
                <path fill="#494948" d="M126.674 55.918L128.261 55.918 128.261 48.79 126.674 48.79zM134.988 48.79L136.576 48.79 136.576 55.918 134.988 55.918 131.6 51.451 131.6 55.918 130.012 55.918 130.012 48.79 131.497 48.79 134.988 53.379zM66.948 55.999L68.535 55.999 68.535 48.872 66.948 48.872zM67.1 48.056L68.393 46.251 69.97 46.913 68.556 48.056z" transform="translate(-1291 -3424) translate(1291 3424)"/>
            </g>
        </g>
    </g>
</svg>
