<svg xmlns="http://www.w3.org/2000/svg" width="158" height="64" viewBox="0 0 158 64">
    <g fill="none" fill-rule="evenodd">
        <g>
            <g>
                <path fill="#003D76" fill-rule="nonzero" d="M10 52.073l.266.057-.955 3.022H.713v-.305h.418c.468 0 .804-.152 1.004-.456.114-.174.171-.578.171-1.208v-7.214c0-.695-.075-1.131-.229-1.304-.212-.24-.528-.362-.946-.362H.713V44h5.029v.304c-.59-.006-1.004.046-1.244.162-.236.113-.4.258-.485.43-.086.172-.131.587-.131 1.24v7.029c0 .457.045.769.13.939.065.118.17.202.305.26.134.052.562.08 1.279.08h.81c.855 0 1.453-.062 1.797-.188.343-.126.659-.35.943-.67.283-.319.568-.824.854-1.513zM14.252 50.827l1.921-4.498 1.87 4.498h-3.791zm4.045.607l.655 1.585c.22.522.328.904.328 1.144 0 .182-.075.337-.234.464-.155.125-.454.199-.896.22v.304h4.38v-.304c-.455-.026-.807-.152-1.06-.374-.255-.222-.536-.705-.847-1.45L16.76 43.75h-.277l-3.909 9.175c-.337.806-.643 1.34-.924 1.604-.137.132-.435.238-.9.319v.304h3.504v-.304c-.534-.039-.882-.124-1.042-.248-.162-.13-.243-.281-.243-.448 0-.215.094-.539.28-.972l.741-1.745h4.307zM26.174 44.861c.626-.159 1.184-.239 1.675-.239 1.305 0 2.374.444 3.21 1.332.834.885 1.25 2.1 1.25 3.638 0 1.527-.416 2.739-1.25 3.63-.836.895-1.882 1.34-3.145 1.34-.469 0-1.048-.075-1.74-.23v-9.47zm-3.168 10.29h4.96c2.154 0 3.758-.58 4.811-1.743.939-1.043 1.409-2.338 1.409-3.89 0-1.157-.263-2.177-.791-3.06-.526-.881-1.222-1.513-2.086-1.891-.865-.379-2.127-.567-3.787-.567h-4.516v.304h.417c.419 0 .735.121.946.361.155.172.228.61.228 1.304v7.214c0 .627-.057 1.034-.177 1.214-.196.298-.529.45-.997.45h-.417v.304zM40.004 54.847v.304h-4.76v-.304h.395c.46 0 .793-.134 1-.4.132-.177.198-.598.198-1.264v-7.214c0-.563-.037-.938-.105-1.118-.071-.152-.191-.275-.34-.351-.23-.13-.49-.197-.753-.197h-.394V44h4.76v.304h-.4c-.452 0-.782.134-.989.4-.136.178-.205.598-.205 1.265v7.214c0 .563.037.935.107 1.115.055.137.169.255.343.354.235.131.481.195.744.195h.4zM48.1 43.748v3.851h-.302c-.098-.74-.273-1.328-.528-1.766-.26-.442-.637-.803-1.09-1.042-.444-.251-.946-.384-1.457-.386-.57 0-1.039.174-1.412.52-.37.35-.557.746-.557 1.19 0 .337.117.65.353.93.34.408 1.144.957 2.417 1.641 1.039.562 1.75.991 2.13 1.289.379.298.673.647.877 1.054.203.407.307.83.307 1.275 0 .846-.326 1.57-.979 2.183-.651.61-1.493.916-2.519.916-.324 0-.625-.025-.91-.076-.171-.028-.519-.129-1.054-.303-.531-.174-.867-.262-1.011-.262-.121-.005-.238.04-.324.125-.078.083-.137.255-.176.517h-.302v-3.818h.302c.141.798.333 1.398.573 1.793.24.398.609.73 1.103.99.494.262 1.037.394 1.626.394.682 0 1.224-.182 1.618-.543.395-.365.594-.793.594-1.287 0-.274-.076-.553-.222-.832-.175-.308-.414-.576-.7-.784-.212-.166-.797-.515-1.748-1.046-.952-.531-1.63-.956-2.034-1.273-.372-.285-.684-.642-.915-1.05-.21-.39-.32-.826-.314-1.269 0-.798.307-1.488.919-2.065.612-.577 1.394-.865 2.339-.865.592 0 1.218.146 1.88.434.306.138.522.205.648.205.141 0 .26-.043.349-.128.089-.086.162-.255.217-.511l.301-.001zM59.35 52.073l.268.057-.955 3.022h-8.598v-.305h.415c.47 0 .805-.152 1.007-.456.114-.174.17-.578.17-1.208v-7.214c0-.695-.075-1.131-.23-1.304-.212-.24-.527-.362-.947-.362h-.415V44h5.026v.304c-.59-.006-1.003.046-1.24.162-.239.113-.4.258-.488.43-.086.172-.131.587-.131 1.24v7.029c0 .457.045.769.131.939.065.118.169.202.305.26.133.052.56.08 1.28.08h.81c.853 0 1.451-.062 1.795-.188.343-.126.66-.35.945-.67.282-.319.567-.824.852-1.513zM63.602 50.827l1.922-4.498 1.872 4.498h-3.794zm4.045.607l.656 1.585c.219.522.327.904.327 1.144 0 .182-.075.337-.231.464-.158.125-.456.199-.898.22v.304h4.38v-.304c-.454-.026-.806-.152-1.061-.374-.255-.222-.537-.705-.848-1.45l-3.861-9.275h-.278l-3.908 9.175c-.338.806-.645 1.34-.924 1.604-.138.132-.435.238-.9.319v.304h3.504v-.304c-.535-.039-.884-.124-1.043-.248-.162-.13-.242-.281-.242-.448 0-.215.095-.539.28-.972l.743-1.745 4.304.001zM81.804 44.001v.302c-.392.074-.69.199-.89.381-.288.27-.546.684-.769 1.242l-3.86 9.477h-.3L71.83 45.8c-.212-.496-.363-.799-.449-.908-.136-.171-.31-.309-.506-.403-.199-.096-.466-.158-.805-.186V44h4.532v.304c-.515.05-.847.136-1.001.263-.148.117-.233.297-.23.486 0 .27.127.699.379 1.28l2.822 6.528 2.625-6.447c.256-.638.387-1.077.387-1.323 0-.157-.083-.312-.24-.454-.159-.146-.427-.25-.8-.308-.029-.007-.076-.014-.142-.026V44l3.4.001zM90.912 48.967l4.1 4.08c.674.68 1.245 1.142 1.72 1.386.475.243.95.38 1.426.414v.304h-5.291v-.304c.317 0 .545-.053.684-.159.14-.107.21-.227.21-.358.001-.123-.026-.244-.08-.355-.052-.103-.221-.3-.51-.582l-3.83-3.81v3.6c0 .563.037.935.108 1.115.055.137.17.255.348.354.236.131.488.195.754.195h.382v.304h-4.76v-.304h.394c.461 0 .793-.134 1.003-.4.131-.177.197-.598.197-1.264v-7.214c0-.563-.038-.94-.107-1.124-.057-.131-.169-.247-.34-.345-.23-.13-.489-.197-.753-.197h-.393V44h4.759v.304h-.383c-.259 0-.512.06-.753.187-.165.08-.293.222-.356.396-.066.172-.1.535-.1 1.083v3.419c.108-.108.483-.455 1.12-1.047 1.62-1.49 2.6-2.486 2.938-2.986.15-.221.222-.41.222-.577 0-.126-.058-.235-.174-.334-.114-.095-.307-.141-.58-.141h-.251V44h4.087v.304c-.222.001-.442.035-.655.1-.254.086-.496.204-.72.351-.285.176-.635.458-1.049.842-.118.111-.676.671-1.666 1.682l-1.701 1.688zM106.021 44.303V44h3.904v.304h-.415c-.435 0-.771.182-1.004.547-.116.172-.172.565-.172 1.184v4.52c0 1.117-.109 1.982-.33 2.6-.219.615-.656 1.146-1.301 1.587-.646.439-1.523.66-2.635.66-1.21 0-2.128-.211-2.754-.633-.616-.407-1.084-1.004-1.332-1.7-.176-.49-.263-1.402-.263-2.745v-4.355c0-.685-.096-1.134-.282-1.347-.187-.212-.491-.32-.911-.32h-.416V44h4.794v.304h-.424c-.46 0-.787.144-.98.433-.138.197-.205.61-.205 1.232v4.857c0 .43.038.927.117 1.488.08.557.222.991.43 1.306.21.31.508.569.897.772.39.203.868.304 1.436.304.726 0 1.376-.159 1.95-.476.573-.316.964-.726 1.172-1.218.21-.498.316-1.34.316-2.52v-4.513c0-.695-.075-1.132-.228-1.304-.212-.24-.528-.362-.946-.362h-.418zM113.567 44.861c.626-.159 1.184-.239 1.673-.239 1.307 0 2.378.444 3.214 1.332.83.885 1.248 2.1 1.248 3.638 0 1.527-.418 2.739-1.248 3.63-.837.895-1.883 1.34-3.147 1.34-.469 0-1.048-.075-1.74-.23v-9.47zm-3.167 10.29h4.957c2.157 0 3.76-.58 4.815-1.743.938-1.043 1.407-2.338 1.407-3.89 0-1.157-.262-2.177-.79-3.06-.526-.881-1.222-1.513-2.088-1.891-.863-.379-2.125-.567-3.786-.567H110.4v.304h.416c.418 0 .734.121.946.361.154.172.23.61.23 1.304v7.214c0 .627-.058 1.034-.179 1.214-.194.298-.527.45-.997.45h-.416l.001.305zM125.671 44.774c.533-.1.958-.152 1.272-.152.706 0 1.276.22 1.705.653.428.439.644 1.005.644 1.7 0 .71-.266 1.296-.8 1.759-.53.461-1.322.69-2.369.69-.06 0-.122-.003-.183-.006-.076-.003-.165-.003-.269-.003v-4.64zm7.883 10.378v-.305c-.606-.067-1.098-.219-1.47-.463-.378-.24-.828-.731-1.355-1.465l-2.298-3.193c.937-.209 1.624-.564 2.07-1.07.444-.505.668-1.1.668-1.785 0-.642-.196-1.194-.587-1.657-.371-.452-.867-.784-1.425-.955-.558-.171-1.428-.259-2.609-.259h-4.045v.304h.416c.42 0 .734.121.947.361.154.167.229.602.229 1.304v7.214c0 .633-.056 1.037-.17 1.204-.201.307-.536.46-1.006.46h-.416v.304h4.761v-.304h-.433c-.414 0-.725-.12-.932-.36-.152-.17-.228-.605-.228-1.304v-3.246c.086.005.167.01.25.01.076.004.152.007.222.007.171 0 .391-.007.662-.017l3.773 5.215h2.976zM133.174 44.001h2.988l6.807 8.372v-6.438c0-.688-.08-1.117-.232-1.287-.204-.229-.527-.344-.969-.344h-.391V44h3.904v.304h-.396c-.479 0-.814.141-1.015.428-.12.176-.181.577-.181 1.203v9.396h-.296l-7.313-8.983v6.868c0 .689.075 1.116.223 1.288.209.229.533.343.973.343h.397v.304h-3.907v-.304h.391c.482 0 .82-.143 1.021-.428.119-.177.182-.578.182-1.203v-7.752c-.323-.378-.568-.628-.733-.75-.166-.119-.41-.232-.731-.337-.16-.048-.4-.074-.722-.074V44zM149.137 50.827l1.922-4.498 1.872 4.498h-3.794zm4.045.607l.657 1.585c.217.522.326.904.326 1.144 0 .182-.075.337-.232.464-.158.125-.455.199-.897.22v.304h4.38v-.304c-.455-.026-.806-.152-1.061-.374-.254-.222-.537-.705-.848-1.45l-3.861-9.274h-.278l-3.907 9.175c-.338.806-.646 1.34-.924 1.604-.139.132-.437.238-.9.319v.304h3.503v-.304c-.535-.039-.884-.124-1.043-.248-.161-.13-.242-.281-.242-.448 0-.215.095-.539.278-.972l.744-1.745h4.305zM78.314 28.758l.955.209-3.404 10.755H45.231v-1.078h1.483c1.673 0 2.867-.54 3.584-1.628.407-.62.607-2.057.607-4.304V7.008c0-2.475-.269-4.022-.817-4.642-.756-.858-1.88-1.287-3.374-1.287h-1.483V0h17.914v1.079c-2.1-.021-3.573.168-4.429.578-.845.4-1.424.919-1.732 1.527-.308.62-.469 2.097-.469 4.424v25.044c0 1.628.16 2.736.47 3.344.228.421.597.72 1.084.921.477.19 2 .29 4.56.29h2.884c3.046 0 5.175-.222 6.4-.67 1.224-.449 2.35-1.247 3.364-2.388 1.005-1.138 2.02-2.935 3.036-5.392v.001z" transform="translate(-1471 -3420) translate(1471 3420)"/>
                <path fill="#161615" fill-rule="nonzero" d="M88.345 17.693l14.61 14.53c2.398 2.426 4.439 4.074 6.13 4.943 1.692.87 3.385 1.358 5.077 1.478v1.078h-18.85v-1.078c1.135 0 1.94-.19 2.437-.57.499-.379.747-.808.747-1.28 0-.467-.1-.887-.279-1.256-.188-.37-.796-1.068-1.82-2.076L82.752 19.889v12.824c0 2.006.13 3.335.387 3.973.19.49.608.91 1.235 1.257.847.47 1.741.7 2.687.7h1.362v1.079H71.466v-1.078h1.404c1.643 0 2.827-.48 3.573-1.428.468-.63.696-2.128.696-4.504V7.008c0-2.005-.128-3.344-.377-4.003-.2-.47-.597-.88-1.204-1.229-.822-.458-1.747-.699-2.688-.698h-1.404V0h16.958v1.078h-1.362c-.926 0-1.822.219-2.688.668-.606.31-1.035.78-1.264 1.408-.239.62-.358 1.909-.358 3.854v12.184c.387-.38 1.722-1.62 3.99-3.725 5.774-5.311 9.266-8.858 10.472-10.635.527-.79.784-1.468.784-2.056 0-.45-.208-.84-.617-1.189-.407-.34-1.093-.51-2.068-.51h-.897V0h14.562v1.078c-.858.02-1.634.14-2.33.36-.707.209-1.563.627-2.568 1.248-1.015.628-2.26 1.628-3.732 3.005-.428.39-2.41 2.387-5.942 5.992l-6.061 6.01zM31.273 61.697l.969-2.264.94 2.264h-1.909zM33.64 62.8c.11.261.164.454.164.575 0 .091-.036.17-.115.233-.08.063-.23.099-.453.111v.152h2.205v-.152c-.228-.013-.406-.077-.533-.188-.128-.111-.27-.354-.427-.729l-1.944-4.668h-.139l-1.967 4.619c-.17.404-.324.673-.464.805-.069.067-.219.122-.453.162v.151h1.762v-.152c-.268-.02-.443-.063-.524-.126-.082-.063-.122-.141-.122-.225 0-.107.047-.271.14-.488l.375-.88h2.165l.33.8zM37.273 58.694c.275-.074.558-.114.842-.12.657 0 1.196.223 1.617.67.418.446.627 1.056.627 1.833 0 .766-.209 1.376-.627 1.824-.42.449-.947.674-1.584.674-.295-.007-.588-.046-.875-.116v-4.765zm-1.595 5.177h2.496c1.086 0 1.893-.293 2.421-.877.472-.524.71-1.176.71-1.957 0-.58-.132-1.094-.4-1.538-.263-.445-.612-.763-1.05-.953-.434-.19-1.068-.285-1.903-.285h-2.275v.154h.21c.21 0 .37.06.478.18.076.088.115.306.115.657v3.63c0 .315-.03.52-.091.61-.098.15-.265.227-.502.227h-.21v.152zM47.61 58.262v.152c-.198.037-.349.1-.45.192-.144.136-.273.344-.386.624L44.833 64h-.151l-2.091-4.833c-.107-.25-.182-.403-.226-.457-.069-.086-.156-.155-.255-.202-.128-.056-.265-.087-.404-.093v-.154h2.28v.154c-.259.024-.426.067-.505.131-.074.06-.116.15-.114.245 0 .137.064.351.19.644l1.42 3.284 1.32-3.243c.13-.32.194-.541.194-.666 0-.08-.04-.157-.119-.228-.08-.074-.215-.126-.403-.155l-.07-.012v-.154h1.71zM50.717 58.43c.533 0 .95.188 1.25.563.375.471.563 1.188.563 2.147 0 .887-.17 1.535-.51 1.947-.314.396-.794.624-1.298.615-.461.013-.901-.196-1.183-.563-.39-.494-.584-1.198-.584-2.112 0-.896.187-1.573.565-2.037.3-.374.7-.56 1.197-.56zm.079-.296c-.73 0-1.355.245-1.88.732-.603.563-.905 1.29-.905 2.18 0 .87.26 1.581.784 2.129.498.538 1.202.839 1.934.825.762 0 1.41-.282 1.943-.845.537-.563.803-1.27.803-2.122 0-.826-.264-1.516-.797-2.07-.53-.552-1.158-.829-1.882-.829zM56.324 60.762l2.064 2.05c.338.343.627.575.866.699.238.122.478.191.716.208v.152h-2.663v-.152c.162 0 .276-.027.346-.08.07-.053.105-.115.105-.182 0-.061-.013-.122-.038-.177-.075-.107-.162-.205-.258-.293l-1.927-1.917v1.812c0 .284.018.47.054.562.036.077.097.14.174.177.116.064.247.098.38.098h.193v.152H53.94v-.152h.199c.232 0 .397-.068.503-.202.067-.087.1-.3.1-.635v-3.63c0-.284-.02-.474-.054-.565-.036-.076-.096-.137-.17-.174-.117-.065-.247-.099-.38-.098h-.198v-.154h2.395v.154h-.192c-.132 0-.258.03-.381.093-.083.04-.147.112-.179.198-.033.088-.05.271-.05.546v1.72c.055-.053.243-.228.564-.526.815-.749 1.308-1.251 1.48-1.502.064-.084.102-.185.11-.29 0-.064-.03-.119-.087-.168-.059-.05-.155-.071-.293-.071h-.127v-.154h2.057v.154c-.121.003-.23.019-.33.05-.1.029-.219.088-.361.176-.189.125-.365.267-.528.424-.06.055-.34.337-.84.847l-.855.85z" transform="translate(-1471 -3420) translate(1471 3420)"/>
                <path fill="#161615" fill-rule="nonzero" d="M63.05 56.291l-.43 1.421h.139l1.21-1.42h-.92zm-1.326 5.405l.968-2.263.941 2.264-1.91-.001zm2.365 1.103c.111.263.165.455.165.576 0 .091-.037.17-.117.233-.078.063-.228.099-.451.111v.152h2.204v-.152c-.228-.013-.406-.077-.533-.188-.128-.111-.27-.354-.427-.729l-1.943-4.668h-.14l-1.967 4.619c-.17.404-.324.673-.464.805-.068.067-.219.122-.453.162v.151h1.763v-.152c-.269-.02-.444-.063-.525-.126-.082-.063-.122-.141-.122-.225 0-.107.047-.271.14-.488l.373-.88h2.167l.33.8zM70.869 58.262l.06 1.319h-.157c-.031-.233-.072-.398-.124-.496-.075-.15-.194-.274-.34-.355-.174-.082-.365-.122-.558-.114h-.787v4.281c0 .345.037.562.111.648.103.116.265.174.48.174h.193v.152H67.37v-.152h.2c.237 0 .408-.07.508-.215.06-.088.09-.29.09-.606v-4.28h-.67c-.26 0-.446.02-.554.057-.152.059-.28.165-.367.302-.101.148-.163.349-.182.604h-.156l.06-1.32h4.57zM71.025 58.262h1.503l3.423 4.212v-3.24c0-.345-.038-.561-.115-.648-.104-.114-.266-.172-.487-.172h-.199v-.152h1.965v.152h-.2c-.24 0-.408.072-.509.216-.06.088-.09.29-.09.603v4.73h-.151l-3.68-4.52v3.455c0 .344.04.561.113.648.107.115.27.173.49.173h.199v.152h-1.964v-.152h.197c.242 0 .411-.07.513-.215.06-.088.09-.29.09-.606v-3.9c-.109-.138-.232-.264-.368-.376-.113-.076-.238-.134-.369-.17-.118-.03-.24-.042-.36-.037v-.153zM78.695 56.291l-.43 1.421h.137l1.212-1.42h-.92zm.937 7.43c-.13-.001-.26-.035-.373-.1-.077-.037-.138-.1-.175-.177-.035-.091-.052-.278-.052-.562v-3.63c0-.336.033-.547.1-.638.107-.133.272-.2.5-.2h.202v-.153h-2.396v.154h.199c.13 0 .257.03.378.098.075.038.135.1.17.177.035.091.055.278.055.562v3.63c0 .334-.033.547-.101.636-.105.133-.271.202-.502.202h-.2v.151h2.396v-.152l-.201.001zM84.662 60.762l2.064 2.05c.337.343.627.575.865.699.24.122.48.191.717.208v.152h-2.66v-.152c.159 0 .272-.027.342-.08.07-.053.106-.115.106-.182 0-.061-.013-.122-.04-.177-.074-.107-.16-.205-.256-.293l-1.927-1.917v1.812c0 .284.017.47.054.562.036.078.098.14.175.177.116.064.246.098.38.098h.192v.152h-2.395v-.152h.198c.232 0 .398-.068.504-.202.066-.087.099-.3.099-.635v-3.63c0-.284-.02-.474-.055-.565-.035-.075-.095-.137-.169-.174-.116-.065-.247-.099-.38-.098h-.197v-.154h2.395v.154h-.193c-.132 0-.262.031-.38.093-.082.04-.146.111-.178.198-.033.088-.05.271-.05.546v1.72c.054-.053.243-.228.563-.526.815-.749 1.309-1.251 1.48-1.502.064-.084.102-.185.11-.29 0-.064-.03-.119-.088-.168-.058-.05-.155-.071-.29-.071h-.129v-.154h2.057v.154c-.111 0-.222.018-.328.05-.128.042-.25.102-.363.176-.189.125-.365.267-.528.424-.06.055-.34.337-.84.847l-.855.85z" transform="translate(-1471 -3420) translate(1471 3420)"/>
                <path fill="#161615" fill-rule="nonzero" d="M90.061 61.697l.969-2.264.941 2.264h-1.91zm2.036.304l.33.8c.111.26.164.453.164.574 0 .091-.037.17-.116.233-.078.063-.229.099-.45.111v.152h2.203v-.152c-.228-.013-.406-.077-.534-.188s-.27-.354-.426-.729l-1.945-4.668h-.138l-1.967 4.619c-.17.404-.325.673-.464.805-.068.067-.22.122-.453.162v.151h1.763v-.152c-.269-.02-.444-.063-.525-.126-.083-.063-.123-.141-.123-.225 0-.107.047-.271.141-.488l.374-.88h2.166zM94.211 58.262h1.504l3.423 4.212v-3.24c0-.345-.038-.561-.116-.648-.103-.114-.266-.172-.487-.172h-.199v-.152h1.966v.152h-.2c-.24 0-.408.072-.51.216-.06.088-.09.29-.09.603v4.73h-.15l-3.68-4.52v3.455c0 .344.039.561.114.648.105.115.268.173.487.173h.2v.152H94.51v-.152h.197c.242 0 .411-.07.514-.215.059-.088.091-.29.091-.606v-3.9c-.11-.137-.233-.263-.368-.376-.114-.076-.239-.133-.37-.17-.118-.03-.24-.042-.362-.037v-.153zM105.49 58.134l.126 1.903h-.126c-.17-.569-.412-.982-.726-1.23-.323-.254-.723-.387-1.133-.377-.368 0-.703.095-1 .283-.299.19-.533.491-.706.904-.169.414-.256.93-.256 1.544 0 .508.08.947.242 1.32.162.373.406.656.729.856.325.198.694.298 1.11.298.36 0 .68-.079.955-.234.277-.154.58-.462.911-.925l.127.084c-.279.498-.606.863-.979 1.093-.371.23-.813.347-1.325.347-.924 0-1.64-.345-2.146-1.035-.377-.514-.568-1.117-.568-1.812 0-.56.126-1.074.375-1.543.233-.453.59-.83 1.027-1.088.433-.258.928-.392 1.43-.388.402 0 .799.1 1.19.298.076.047.16.078.247.09.072.001.14-.027.192-.078.078-.087.131-.194.153-.31h.151zM107.8 58.565v2.219h1.231c.32 0 .532-.05.639-.145.144-.126.222-.35.24-.668h.151v1.954h-.151c-.039-.274-.079-.45-.116-.527-.054-.1-.14-.18-.243-.227-.112-.055-.286-.083-.52-.083h-1.23v1.85c0 .249.01.399.033.452.02.054.06.097.114.129.056.032.161.047.313.047h.948c.313 0 .543-.022.686-.066.156-.052.297-.141.411-.26.17-.172.343-.43.523-.773h.168l-.482 1.404h-4.307v-.152h.197c.131 0 .26-.033.376-.096.084-.039.149-.111.178-.2.033-.086.05-.268.05-.54v-3.65c0-.354-.036-.572-.107-.653-.101-.112-.266-.165-.497-.165h-.198v-.154h4.309l.058 1.235h-.159c-.058-.297-.121-.501-.192-.612-.074-.115-.182-.205-.31-.255-.108-.042-.303-.064-.58-.064H107.8zM116.03 62.322l.135.03-.482 1.519h-4.325v-.152h.21c.235 0 .404-.077.504-.23.059-.088.087-.29.087-.607v-3.63c0-.35-.038-.57-.116-.656-.107-.122-.264-.182-.474-.182h-.212v-.152h2.531v.152c-.296-.003-.504.023-.625.08-.103.043-.19.12-.244.217-.045.088-.067.296-.067.625v3.537c0 .229.022.386.067.472.03.06.083.102.151.13.068.027.282.04.645.04h.408c.429 0 .73-.03.903-.092.173-.064.33-.179.474-.338.143-.162.287-.415.43-.763zM119.494 56.291l-.429 1.421h.138l1.21-1.42h-.92zm-1.325 5.405l.967-2.263.943 2.264-1.91-.001zm2.036.305l.33.8c.11.26.164.453.164.574 0 .091-.038.17-.118.233-.076.063-.227.099-.45.111v.152h2.205v-.152c-.23-.013-.406-.077-.535-.188-.128-.111-.27-.354-.427-.729l-1.943-4.668h-.14l-1.965 4.619c-.17.404-.325.673-.466.805-.069.067-.22.122-.453.162v.151h1.764v-.152c-.268-.02-.443-.063-.524-.126-.083-.063-.123-.141-.123-.225 0-.107.047-.271.141-.488l.373-.88h2.167zM125.982 56.34h-.125l-.938.88-1.129-.88h-.128l.782 1.372h.757l.781-1.372zm-1.814 4.645V58.65c.268-.048.482-.074.639-.074.356 0 .644.11.86.328.215.22.322.506.322.855 0 .357-.134.653-.401.885-.268.232-.666.346-1.193.346-.023 0-.054 0-.092-.002h-.135v-.002zm3.967 2.734c-.306-.033-.553-.111-.742-.233-.19-.12-.415-.368-.68-.737l-1.158-1.607c.473-.105.818-.284 1.044-.538.222-.253.334-.554.334-.899 0-.322-.097-.6-.294-.834-.188-.226-.436-.393-.716-.48-.282-.086-.72-.13-1.314-.13h-2.035v.154h.21c.21 0 .37.06.477.18.077.085.114.304.114.657v3.63c0 .319-.029.521-.086.605-.101.155-.27.233-.505.233h-.211v.151h2.395v-.152h-.218c-.206 0-.363-.06-.468-.182-.076-.085-.114-.304-.114-.655V61.25c.043.003.083.005.126.005l.111.003c.086 0 .197-.003.333-.008l1.9 2.621h1.497v-.15z" transform="translate(-1471 -3420) translate(1471 3420)"/>
                <path stroke="#161615" stroke-width=".5" d="M0 56.769L30.045 56.769M127.955 56.769L158 56.769" transform="translate(-1471 -3420) translate(1471 3420)"/>
            </g>
        </g>
    </g>
</svg>
